# Rhino

g object_1
v -32.548900604248047 0 59.715137481689453
v -32.555858612060547 0 60.540576934814453
v -33.499217987060547 0 60.532581329345703
v -33.492504119873047 0 59.740833282470703
v -42.690624237060547 0 59.662708282470703
v -42.710033416748047 0 61.953784942626953
v -33.512035369873047 0 62.031909942626953
v -33.505565643310547 0 61.273853302001953
v -32.562206268310547 0 61.281848907470703
v -32.575511932373047 0 62.848560333251953
v -42.834789276123047 0 62.761402130126953
v -42.854198455810547 0 65.035636901855469
v -32.594799041748047 0 65.122795104980469
v -32.691478729248047 0 76.510887145996094
v -30.164623260498047 0 76.532371520996094
v -30.067821502685547 0 65.144279479980469
v -21.336009979248047 0 65.218437194824219
v -21.343944549560547 0 66.145805358886719
v -23.134838104248047 0 66.130577087402344
v -23.212841033935547 0 75.323234558105469
v -16.483592987060547 0 75.380393981933594
v -16.449291229248047 0 71.343620300292969
v -15.314281463623047 0 71.353263854980469
v -15.346996307373047 0 75.203300476074219
v -9.6902570724487305 0 75.251335144042969
v -8.4807844161987305 0 -67.139106750488281
v 10.80815601348877 0 -66.966011047363281
v 9.6145524978637695 0 73.555046081542969
v 14.75932788848877 0 73.598747253417969
v 14.77104663848877 0 72.222587585449219
v 15.94157886505127 0 72.232536315917969
v 15.92986011505127 0 73.608695983886719
v 37.296070098876953 0 73.790184020996094
v 37.319263458251953 0 71.061637878417969
v 38.236133575439453 0 71.069419860839844
v 38.212940216064453 0 73.797966003417969
v 45.599170684814453 0 73.860710144042969
v 45.643726348876953 0 68.610038757324219
v 38.257495880126953 0 68.547294616699219
v 38.247241973876953 0 69.765190124511719
v 37.330371856689453 0 69.757408142089844
v 37.340747833251953 0 68.539512634277344
v 15.97453784942627 0 68.358024597167969
v 15.96465015411377 0 69.517082214355469
v 14.79411792755127 0 69.507133483886719
v 14.93278980255127 0 53.177482604980469
v 16.048511505126953 0 53.186943054199219
v 16.034107208251953 0 54.876758575439453
v 30.603445053100586 0 58.405933380126953
v 31.140188217163086 0 56.652332305908203
v 37.781543731689453 0 59.034046173095703
v 39.051685333251953 0 55.753406524658203
v 32.189014434814453 0 53.096672058105469
v 31.554006576538086 0 54.736988067626953
v 30.710500717163086 0 54.410388946533203
v 25.173513412475586 0 52.121635437011719
v 25.601736068725586 0 51.142936706542969
v 31.052053451538086 0 53.528068542480469
v 33.246875762939453 0 47.858695983886719
v 25.585866928100586 0 44.689933776855469
v 23.218313217163086 0 50.099845886230469
v 23.844045639038086 0 50.373710632324219
v 23.399953842163086 0 51.388542175292969
v 16.089405059814453 0 48.366630554199219
v 16.059009552001953 0 51.944145202636719
v 14.94328784942627 0 51.934623718261719
v 15.00639820098877 0 44.515495300292969
v 16.122119903564453 0 44.525016784667969
v 16.101245880126953 0 46.985221862792969
v 22.150075912475586 0 49.632377624511719
v 24.508108139038086 0 44.244132995605469
v 18.098560333251953 0 41.592948913574219
v 18.192310333251953 0 30.552116394042969
v 16.240894317626953 0 30.535514831542969
v 16.221363067626953 0 32.836723327636719
v 15.10564136505127 0 32.827262878417969
v 15.24577808380127 0 16.325798034667969
v 16.444019317626953 0 16.335990905761719
v 16.330615997314453 0 29.683158874511719
v 25.448049545288086 0 29.760612487792969
v 25.689382553100586 0 1.3534477949142456
v 16.571826934814453 0 1.2759941816329956
v 16.459766387939453 0 14.475152015686035
v 15.26164722442627 0 14.464959144592285
v 15.38481616973877 0 -0.038764104247093201
v 16.582935333251953 0 -0.028632268309593201
v 16.579029083251953 0 0.43596735596656799
v 25.682058334350586 0 0.51329886913299561
v 25.694875717163086 0 -0.98975288867950439
v 16.591846466064453 0 -1.0670844316482544
v 15.39360523223877 0 -1.0772773027420044
v 15.44548511505127 0 -7.189765453338623
v 16.512378692626953 0 -7.180671215057373
v 16.466114044189453 0 -1.7412177324295044
v 28.757619857788086 0 -1.6368476152420044
v 28.854665756225586 0 -13.054878234863281
v 16.563159942626953 0 -13.159248352050781
v 16.529956817626953 0 -9.2520217895507812
v 15.46318531036377 0 -9.2611160278320312
v 15.54594898223877 0 -19.007392883300781
v 16.758350372314453 0 -18.997077941894531
v 16.715259552001953 0 -13.935310363769531
v 21.730154037475586 0 -13.892768859863281
v 29.766408920288086 0 -13.824470520019531
v 33.698413848876953 0 -13.791084289550781
v 33.722461700439453 0 -16.622871398925781
v 29.790456771850586 0 -16.656318664550781
v 21.754323959350586 0 -16.724555969238281
v 21.767385482788086 0 -18.273078918457031
v 22.781545639038086 0 -18.264472961425781
v 22.774099349975586 0 -17.385627746582031
v 28.984792709350586 0 -17.332893371582031
v 29.002614974975586 0 -19.433906555175781
v 30.029592514038086 0 -19.425178527832031
v 30.011770248413086 0 -17.324165344238281
v 35.989917755126953 0 -17.273384094238281
v 35.984180450439453 0 -16.603706359863281
v 34.632984161376953 0 -16.615180969238281
v 34.601123809814453 0 -12.856575012207031
v 29.758596420288086 0 -12.897712707519531
v 29.745656967163086 0 -11.375373840332031
v 37.609668731689453 0 -11.308540344238281
v 37.654590606689453 0 -16.589485168457031
v 37.660205841064453 0 -17.259162902832031
v 37.706104278564453 0 -22.654975891113281
v 37.648609161376953 0 -22.655464172363281
v 34.643604278564453 0 -22.680976867675781
v 34.649829864501953 0 -23.408027648925781
v 37.635669708251953 0 -23.382698059082031
v 37.657642364501953 0 -25.965766906738281
v 30.085744857788086 0 -26.030097961425781
v 30.080007553100586 0 -25.366279602050781
v 29.053030014038086 0 -25.375007629394531
v 29.058645248413086 0 -26.038825988769531
v 23.001028060913086 0 -26.090278625488281
v 22.979177474975586 0 -23.507209777832031
v 29.036794662475586 0 -23.455696105957031
v 29.046438217163086 0 -24.596687316894531
v 30.073415756225586 0 -24.587959289550781
v 30.063772201538086 0 -23.447029113769531
v 33.033008575439453 0 -23.421760559082031
v 33.026782989501953 0 -22.694709777832031
v 30.057546615600586 0 -22.719917297363281
v 30.040700912475586 0 -20.736885070800781
v 29.013723373413086 0 -20.745613098144531
v 29.030569076538086 0 -22.728645324707031
v 22.819875717163086 0 -22.781379699707031
v 22.813161849975586 0 -21.996284484863281
v 21.799123764038086 0 -22.004890441894531
v 21.832693099975586 0 -25.962532043457031
v 16.817798614501953 0 -26.005134582519531
v 16.776660919189453 0 -21.162971496582031
v 15.56425952911377 0 -21.173286437988281
v 15.65532398223877 0 -31.894844055175781
v 16.867725372314453 0 -31.884529113769531
v 16.827564239501953 0 -27.154975891113281
v 29.202322006225586 0 -27.049873352050781
v 29.302541732788086 0 -38.842292785644531
v 16.927783966064453 0 -38.947395324707031
v 16.888477325439453 0 -34.319953918457031
v 15.67607593536377 0 -34.330268859863281
v 15.76958179473877 0 -45.333076477050781
v 16.940357208251953 0 -45.323127746582031
v 16.897266387939453 0 -40.258003234863281
v 24.675710678100586 0 -40.191902160644531
v 24.718923568725586 0 -45.282661437988281
v 25.862844467163086 0 -45.272895812988281
v 25.819021224975586 0 -40.119819641113281
v 29.333913803100586 0 -40.089973449707031
v 29.367238998413086 0 -44.010383605957031
v 38.357227325439453 0 -41.817756652832031
v 40.193897247314453 0 -50.808784484863281
v 34.450244903564453 0 -50.980415344238281
v 34.500782012939453 0 -45.685188293457031
v 25.885671615600586 0 -47.960578918457031
v 25.874563217163086 0 -46.655830383300781
v 24.730642318725586 0 -46.665534973144531
v 24.742116928100586 0 -48.011909484863281
v 16.963672637939453 0 -48.078010559082031
v 16.955127716064453 0 -47.061958312988281
v 15.78435230255127 0 -47.071907043457031
v 15.87395191192627 0 -57.622688293457031
v 16.896900177001953 0 -57.613960266113281
v 16.874683380126953 0 -55.189399719238281
v 25.466360092163086 0 -53.328498840332031
v 25.478078842163086 0 -54.712532043457031
v 26.568777084350586 0 -54.703254699707031
v 26.555105209350586 0 -53.092720031738281
v 31.634328842163086 0 -51.992622375488281
v 31.922780990600586 0 -51.995674133300781
v 31.938039779663086 0 -53.800971984863281
v 33.086109161376953 0 -53.791206359863281
v 33.070972442626953 0 -52.008003234863281
v 40.036792755126953 0 -52.082832336425781
v 40.048633575439453 0 -53.476753234863281
v 41.283618927001953 0 -53.466255187988281
v 41.244068145751953 0 -50.213264465332031
v 49.363086700439453 0 -48.486640930175781
v 49.979541778564453 0 -51.357307434082031
v 50.821460723876953 0 -51.176521301269531
v 50.205249786376953 0 -48.307502746582031
v 51.779102325439453 0 -47.972846984863281
v 51.554492950439453 0 -46.916816711425781
v 49.978565216064453 0 -47.251960754394531
v 49.015796661376953 0 -42.768745422363281
v 48.173999786376953 0 -42.949531555175781
v 49.136402130126953 0 -47.431098937988281
v 41.165088653564453 0 -49.126289367675781
v 39.623096466064453 0 -42.439582824707031
v 52.773853302001953 0 -39.615486145019531
v 54.206592559814453 0 -46.352790832519531
v 52.779590606689453 0 -46.656318664550781
v 53.004199981689453 0 -47.712287902832031
v 54.431201934814453 0 -47.408821105957031
v 56.541675567626953 0 -57.332405090332031
v 52.338306427001953 0 -58.239997863769531
v 51.161914825439453 0 -52.762092590332031
v 50.320117950439453 0 -52.942878723144531
v 51.496753692626953 0 -58.421699523925781
v 41.344287872314453 0 -60.613838195800781
v 41.297046661376953 0 -55.047676086425781
v 40.062061309814453 0 -55.058174133300781
v 40.111621856689453 0 -60.880012512207031
v 33.159107208251953 0 -62.381233215332031
v 33.099658966064453 0 -55.380867004394531
v 31.951589584350586 0 -55.390632629394531
v 32.013111114501953 0 -62.628669738769531
v 26.645925521850586 0 -63.787544250488281
v 26.580739974975586 0 -56.111701965332031
v 25.490041732788086 0 -56.120979309082031
v 25.557180404663086 0 -64.022651672363281
v 18.367847442626953 0 -65.574958801269531
v 16.969654083251953 0 -65.586860656738281
v 16.915454864501953 0 -59.647163391113281
v 15.89116382598877 0 -59.655830383300781
v 15.95293140411377 0 -66.922309875488281
v 17.765674591064453 0 -66.906929016113281
v 17.814990997314453 0 -72.711128234863281
v -20.204784393310547 0 -73.043281555175781
v -20.223339080810547 0 -70.848030090332031
v -21.104808807373047 0 -70.855537414550781
v -21.098583221435547 0 -71.599067687988281
v -22.998485565185547 0 -73.217842102050781
v -26.808055877685547 0 -73.250190734863281
v -28.735301971435547 0 -71.663948059082031
v -28.758617401123047 0 -68.915351867675781
v -26.858715057373047 0 -67.296577453613281
v -23.049022674560547 0 -67.264228820800781
v -21.121898651123047 0 -68.850532531738281
v -21.115306854248047 0 -69.627876281738281
v -20.233837127685547 0 -69.620368957519531
v -20.262035369873047 0 -66.298469543457031
v -26.415966033935547 0 -66.350715637207031
v -26.458812713623047 0 -61.296882629394531
v -21.572338104248047 0 -61.255378723144531
v -21.580638885498047 0 -60.277961730957031
v -26.467113494873047 0 -60.319465637207031
v -26.517162322998047 0 -54.433662414550781
v -21.630687713623047 0 -54.392158508300781
v -21.640209197998047 0 -53.264167785644531
v -26.526683807373047 0 -53.305671691894531
v -26.565990447998047 0 -48.684272766113281
v -21.679515838623047 0 -48.642768859863281
v -21.688426971435547 0 -47.587654113769531
v -26.574901580810547 0 -47.629158020019531
v -26.627513885498047 0 -41.442695617675781
v -21.741039276123047 0 -41.401191711425781
v -21.750072479248047 0 -40.341865539550781
v -26.636547088623047 0 -40.383430480957031
v -26.674022674560547 0 -35.970832824707031
v -21.787548065185547 0 -35.929328918457031
v -21.798168182373047 0 -34.679023742675781
v -23.746166229248047 0 -34.695564270019531
v -26.709545135498047 0 -31.782051086425781
v -26.752147674560547 0 -26.774360656738281
v -23.838573455810547 0 -23.810920715332031
v -21.890575408935547 0 -23.794380187988281
v -21.899364471435547 0 -22.752876281738281
v -26.785961151123047 0 -22.794380187988281
v -26.818431854248047 0 -18.968574523925781
v -15.683055877685547 0 -18.874031066894531
v -15.650585174560547 0 -22.699775695800781
v -20.195262908935547 0 -22.738410949707031
v -20.186473846435547 0 -23.779914855957031
v -18.580150604248047 0 -23.766242980957031
v -15.616771697998047 0 -26.679756164550781
v -15.599681854248047 0 -28.679389953613281
v -14.46479320526123 0 -28.669746398925781
v -14.63813304901123 0 -8.2540359497070312
v -15.773143768310547 0 -8.2636184692382812
v -15.691234588623047 0 -17.910224914550781
v -26.826610565185547 0 -18.004829406738281
v -26.909252166748047 0 -8.2751541137695312
v -27.959300994873047 0 -8.2841262817382812
v -27.906688690185547 0 -14.478096008300781
v -36.775096893310547 0 -14.553413391113281
v -36.841259002685547 0 -6.758246898651123
v -27.972850799560547 0 -6.682929515838623
v -22.550731658935547 0 -6.636909008026123
v -22.560253143310547 0 -5.523017406463623
v -36.850780487060547 0 -5.644416332244873
v -37.054393768310547 0 18.330986022949219
v -28.243846893310547 0 18.405815124511719
v -28.253246307373047 0 19.515373229980469
v -37.063793182373047 0 19.440544128417969
v -37.128246307373047 0 27.024528503417969
v -28.317699432373047 0 27.099357604980469
v -28.325389862060547 0 28.008964538574219
v -37.135936737060547 0 27.934135437011719
v -37.239086151123047 0 40.075309753417969
v -37.247997283935547 0 41.125053405761719
v -37.305004119873047 0 47.832389831542969
v -24.382762908935547 0 47.942192077636719
v -24.325756072998047 0 41.234794616699219
v -35.036571502685547 0 41.143852233886719
v -35.027660369873047 0 40.094108581542969
v -29.442455291748047 0 40.141532897949219
v -29.349681854248047 0 29.218132019042969
v -28.335765838623047 0 29.226737976074219
v -28.429882049560547 0 40.316520690917969
v -18.138378143310547 0 40.403923034667969
v -18.145824432373047 0 41.287284851074219
v -23.469921112060547 0 41.242057800292969
v -23.540843963623047 0 49.595695495605469
v -22.030956268310547 0 47.884147644042969
v -17.745800018310547 0 47.920524597167969
v -16.265087127685547 0 49.657463073730469
v -16.186717987060547 0 40.420524597167969
v -16.194164276123047 0 41.303886413574219
v -16.043651580810547 0 23.584526062011719
v -15.937328338623047 0 11.064202308654785
v -28.180614471435547 0 10.960198402404785
v -28.235546112060547 0 17.432243347167969
v -29.249462127685547 0 17.423637390136719
v -29.194530487060547 0 10.951592445373535
v -34.660961151123047 0 10.905144691467285
v -34.649120330810547 0 9.5162286758422852
v -15.925487518310547 0 9.6752862930297852
v -15.796947479248047 0 -5.465583324432373
v -21.200756072998047 0 -5.511481761932373
v -21.191234588623047 0 -6.625312328338623
v -15.787425994873047 0 -6.579413890838623
v -15.783397674560547 0 -7.059882640838623
v -14.64838695526123 0 -7.050239086151123
v -15.155467987060547 0 52.647819519042969
v -16.290477752685547 0 52.638175964355469
v -16.278636932373047 0 51.241813659667969
v -17.055126190185547 0 50.330863952636719
v -18.228343963623047 0 48.954521179199219
v -21.565990447998047 0 48.926139831542969
v -22.762401580810547 0 50.282402038574219
v -23.554271697998047 0 51.179985046386719
v -23.566234588623047 0 52.576408386230469
v -24.290599822998047 0 52.570243835449219
v -24.258861541748047 0 48.830802917480469
v -28.673534393310547 0 48.793266296386719
v -28.682079315185547 0 49.804374694824219
v -29.566356658935547 0 49.796867370605469
v -29.557689666748047 0 48.785758972167969
v -42.654979705810547 0 48.674491882324219
v -42.742748260498047 0 59.018115997314453
v -29.645580291748047 0 59.129383087158203
v -29.637035369873047 0 58.118274688720703
v -28.752758026123047 0 58.125782012939453
v -28.761302947998047 0 59.136890411376953
v -27.423900604248047 0 59.148242950439453
v -27.429149627685547 0 59.758655548095703
v 15.01738452911377 0 43.218559265136719
v 15.09245777130127 0 34.372856140136719
v 16.208179473876953 0 34.382377624511719
v 16.133106231689453 0 43.228019714355469
v -15.302928924560547 0 70.004417419433594
v -16.437938690185547 0 69.994773864746094
v -16.405590057373047 0 66.187736511230469
v -18.597240447998047 0 66.169120788574219
v -18.589427947998047 0 65.241752624511719
v -16.397655487060547 0 65.260368347167969
v -16.337108612060547 0 58.128467559814453
v -17.846996307373047 0 59.840015411376953
v -18.543529510498047 0 59.834095001220703
v -18.534618377685547 0 58.796131134033203
v -18.311962127685547 0 58.798023223876953
v -16.323680877685547 0 56.544178009033203
v -16.312084197998047 0 55.181995391845703
v -15.177074432373047 0 55.191638946533203
v -21.649608612060547 0 58.769641876220703
v -21.281200408935547 0 58.772754669189453
v -21.290111541748047 0 59.810779571533203
v -22.132152557373047 0 59.803638458251953
v -23.612865447998047 0 58.066699981689453
v -23.627513885498047 0 59.790943145751953
v -25.925975799560547 0 59.771411895751953
v -25.920726776123047 0 59.160999298095703
v -24.346630096435547 0 59.174365997314453
v -24.312206268310547 0 55.114002227783203
v -23.587841033935547 0 55.120166778564453
v -23.599315643310547 0 56.482349395751953
v -29.624950408935547 0 56.703540802001953
v -29.608592987060547 0 54.780323028564453
v -28.724437713623047 0 54.787830352783203
v -28.740795135498047 0 56.711048126220703
v -29.594676971435547 0 53.134819030761719
v -29.578319549560547 0 51.211601257324219
v -28.694042205810547 0 51.219108581542969
v -28.710399627685547 0 53.142326354980469
v -28.294384002685547 0 24.356620788574219
v -28.307323455810547 0 25.881523132324219
v -29.321239471435547 0 25.872917175292969
v -29.274486541748047 0 20.360160827636719
v -28.260448455810547 0 20.368766784667969
v -28.286937713623047 0 23.480522155761719
v -17.206371307373047 0 23.574638366699219
v -17.213817596435547 0 24.450798034667969
v -14.13752269744873 0 -67.187141418457031
v -14.27680492401123 0 -50.789863586425781
v -15.411815643310547 0 -50.799507141113281
v -15.391307830810547 0 -53.211067199707031
v -19.936107635498047 0 -53.249702453613281
v -19.926586151123047 0 -54.377693176269531
v -15.381786346435547 0 -54.339057922363281
v -15.331737518310547 0 -60.224861145019531
v -19.876537322998047 0 -60.263435363769531
v -19.868236541748047 0 -61.240913391113281
v -15.323436737060547 0 -61.202278137207031
v -15.280590057373047 0 -66.256172180175781
v -18.755443572998047 0 -66.285652160644531
v -18.747509002685547 0 -67.226264953613281
v -15.430614471435547 0 -48.589668273925781
v -15.420116424560547 0 -49.832588195800781
v -14.28510570526123 0 -49.822944641113281
v -14.45331859588623 0 -30.017402648925781
v -15.588329315185547 0 -30.027046203613281
v -15.574169158935547 0 -31.687446594238281
v -18.487743377685547 0 -34.650886535644531
v -20.093944549560547 0 -34.664558410644531
v -20.083324432373047 0 -35.914863586425781
v -15.538646697998047 0 -35.876289367675781
v -15.501171112060547 0 -40.288825988769531
v -20.045848846435547 0 -40.327400207519531
v -20.036937713623047 0 -41.386726379394531
v -15.492137908935547 0 -41.348091125488281
v -15.439525604248047 0 -47.534553527832031
v -19.984325408935547 0 -47.573188781738281
v -19.975414276123047 0 -48.628303527832031
f 1 2 367
f 2 3 9
f 3 4 5
f 5 6 3
f 6 7 8
f 8 9 3
f 9 10 16
f 10 11 12
f 12 13 10
f 13 14 16
f 14 15 16
f 16 17 392
f 17 18 375
f 18 19 20
f 20 21 22
f 22 23 372
f 23 24 25
f 25 26 289
f 26 27 238
f 27 28 91
f 28 29 30
f 30 31 45
f 31 32 33
f 33 34 31
f 34 35 41
f 35 36 37
f 37 38 35
f 38 39 40
f 40 41 35
f 41 42 44
f 42 43 44
f 44 45 31
f 45 46 28
f 46 47 66
f 47 48 63
f 48 49 56
f 49 50 55
f 50 51 54
f 51 52 54
f 52 53 54
f 54 55 50
f 55 56 49
f 56 57 62
f 57 58 59
f 59 60 57
f 60 61 62
f 62 63 56
f 63 64 65
f 65 66 47
f 66 67 28
f 67 68 368
f 68 69 70
f 70 71 68
f 71 72 68
f 72 73 370
f 73 74 75
f 75 76 370
f 76 77 28
f 77 78 83
f 78 79 80
f 80 81 78
f 81 82 83
f 83 84 77
f 84 85 28
f 85 86 90
f 86 87 88
f 88 89 86
f 89 90 86
f 90 91 85
f 91 92 27
f 92 93 99
f 93 94 95
f 95 96 93
f 96 97 98
f 98 99 93
f 99 100 27
f 100 101 153
f 101 102 108
f 102 103 108
f 103 104 107
f 104 105 106
f 106 107 104
f 107 108 103
f 108 109 101
f 109 110 148
f 110 111 112
f 112 113 110
f 113 114 145
f 114 115 116
f 116 117 124
f 117 118 119
f 119 120 121
f 121 122 119
f 122 123 119
f 123 124 117
f 124 125 126
f 126 127 116
f 127 128 141
f 128 129 130
f 130 131 128
f 131 132 141
f 132 133 139
f 133 134 135
f 135 136 138
f 136 137 138
f 138 139 133
f 139 140 141
f 141 142 127
f 142 143 144
f 144 145 114
f 145 146 148
f 146 147 148
f 148 149 109
f 149 150 151
f 151 152 149
f 152 153 101
f 153 154 27
f 154 155 161
f 155 156 157
f 157 158 155
f 158 159 160
f 160 161 155
f 161 162 27
f 162 163 181
f 163 164 165
f 165 166 163
f 166 167 177
f 167 168 170
f 168 169 170
f 170 171 174
f 171 172 174
f 172 173 174
f 174 175 170
f 175 176 170
f 176 177 167
f 177 178 180
f 178 179 180
f 180 181 163
f 181 182 27
f 182 183 235
f 183 184 230
f 184 185 186
f 186 187 230
f 187 188 191
f 188 189 191
f 189 190 191
f 191 192 225
f 192 193 195
f 193 194 195
f 195 196 221
f 196 197 199
f 197 198 199
f 199 200 218
f 200 201 202
f 202 203 212
f 203 204 205
f 205 206 210
f 206 207 208
f 208 209 206
f 209 210 206
f 210 211 212
f 212 213 202
f 213 214 200
f 214 215 217
f 215 216 217
f 217 218 200
f 218 219 221
f 219 220 221
f 221 222 195
f 222 223 225
f 223 224 225
f 225 226 191
f 226 227 229
f 227 228 229
f 229 230 187
f 230 231 234
f 231 232 234
f 232 233 234
f 234 235 183
f 235 236 27
f 236 237 238
f 238 239 26
f 239 240 414
f 240 241 251
f 241 242 243
f 243 244 248
f 244 245 246
f 246 247 244
f 247 248 244
f 248 249 250
f 250 251 241
f 251 252 427
f 252 253 255
f 253 254 255
f 255 256 422
f 256 257 258
f 258 259 256
f 259 260 418
f 260 261 262
f 262 263 260
f 263 264 443
f 264 265 266
f 266 267 264
f 267 268 439
f 268 269 270
f 270 271 268
f 271 272 435
f 272 273 274
f 274 275 272
f 275 276 277
f 277 278 284
f 278 279 280
f 280 281 278
f 281 282 283
f 283 284 278
f 284 285 286
f 286 287 284
f 287 288 431
f 288 289 26
f 289 290 343
f 290 291 341
f 291 292 341
f 292 293 299
f 293 294 298
f 294 295 296
f 296 297 294
f 297 298 294
f 298 299 293
f 299 300 341
f 300 301 337
f 301 302 336
f 302 303 334
f 303 304 412
f 304 305 409
f 305 306 408
f 306 307 408
f 307 308 413
f 308 309 318
f 309 310 316
f 310 311 316
f 311 312 315
f 312 313 315
f 313 314 315
f 315 316 311
f 316 317 318
f 318 319 308
f 319 320 321
f 321 322 329
f 322 323 325
f 323 324 325
f 325 326 322
f 326 327 329
f 327 328 329
f 329 328 321
f 328 330 413
f 330 331 412
f 331 332 333
f 333 334 303
f 334 335 336
f 336 337 301
f 337 338 300
f 338 339 340
f 340 341 300
f 341 342 343
f 343 344 289
f 344 345 25
f 345 346 385
f 346 347 348
f 348 349 351
f 349 350 351
f 351 352 353
f 353 354 396
f 354 355 404
f 355 356 357
f 357 358 404
f 358 359 360
f 360 361 402
f 361 362 363
f 363 364 398
f 364 365 366
f 366 367 393
f 368 369 28
f 369 370 76
f 370 371 72
f 371 368 68
f 372 373 22
f 373 374 375
f 375 376 17
f 376 377 379
f 377 378 379
f 379 380 376
f 380 381 388
f 381 382 383
f 383 384 381
f 384 385 346
f 385 372 25
f 386 387 397
f 387 388 381
f 388 389 17
f 389 390 391
f 391 392 17
f 392 393 367
f 393 394 395
f 395 396 354
f 396 397 387
f 398 399 361
f 399 400 402
f 400 401 395
f 401 398 364
f 402 403 360
f 403 404 358
f 404 405 354
f 405 402 400
f 406 407 413
f 407 408 307
f 408 409 305
f 409 410 304
f 410 411 412
f 412 413 330
f 414 415 26
f 415 416 430
f 416 417 418
f 418 419 259
f 419 420 421
f 421 422 419
f 422 423 255
f 423 424 426
f 424 425 426
f 426 427 252
f 427 414 240
f 428 429 444
f 429 430 416
f 430 431 26
f 431 432 287
f 432 433 435
f 433 434 435
f 435 436 271
f 436 437 438
f 438 439 436
f 439 440 267
f 440 441 442
f 442 443 440
f 443 444 263
f 367 2 9
f 3 6 8
f 9 16 367
f 16 10 13
f 16 392 367
f 375 18 373
f 18 20 22
f 372 23 25
f 25 289 344
f 238 27 236
f 91 28 85
f 28 30 45
f 31 34 44
f 34 41 44
f 35 38 40
f 28 46 66
f 47 63 65
f 63 48 56
f 62 57 60
f 28 67 368
f 68 72 371
f 370 73 75
f 76 28 369
f 28 77 84
f 83 78 81
f 27 92 99
f 93 96 98
f 27 100 153
f 101 109 152
f 148 110 113
f 113 145 148
f 114 116 142
f 116 124 126
f 117 119 123
f 116 127 142
f 141 128 131
f 141 132 139
f 133 135 138
f 142 144 114
f 109 149 152
f 27 154 161
f 155 158 160
f 27 162 181
f 163 166 177
f 167 170 176
f 177 180 163
f 27 182 235
f 183 230 234
f 230 184 186
f 187 191 226
f 225 192 222
f 192 195 222
f 221 196 218
f 196 199 218
f 200 202 213
f 212 203 205
f 205 210 212
f 200 214 217
f 226 229 187
f 26 239 414
f 240 251 427
f 241 243 250
f 243 248 250
f 252 255 423
f 422 256 419
f 256 259 419
f 418 260 444
f 260 263 444
f 443 264 440
f 264 267 440
f 439 268 436
f 268 271 436
f 435 272 287
f 272 275 277
f 277 284 287
f 278 281 283
f 431 288 26
f 343 290 341
f 341 292 299
f 336 302 334
f 303 412 333
f 412 304 410
f 307 413 407
f 413 308 319
f 318 309 316
f 319 321 413
f 329 322 326
f 321 328 413
f 412 331 333
f 300 338 340
f 25 345 385
f 346 348 351
f 351 353 346
f 353 396 346
f 404 355 357
f 358 360 403
f 402 361 399
f 361 363 398
f 364 366 401
f 366 393 401
f 22 373 18
f 17 376 380
f 380 388 17
f 381 384 387
f 384 346 396
f 17 389 391
f 393 395 401
f 395 354 405
f 396 387 384
f 400 395 405
f 26 415 430
f 416 418 444
f 423 426 252
f 444 429 416
f 287 432 435
f 287 272 277
