# Rhino

g object_1
v -479.61123657 634.56689453 0.00000000
v -479.72732544 622.16571045 0.00000000
v -479.84338379 609.76452637 0.00000000
v -479.95947266 597.36328125 0.00000000
v -480.07556152 584.96209717 0.00000000
v -480.19161987 572.56091309 0.00000000
v -480.30770874 560.15966797 0.00000000
v -480.42379761 547.75848389 0.00000000
v -456.25308228 634.34826660 0.00000000
v -456.36917114 621.94708252 0.00000000
v -456.48526001 609.54583740 0.00000000
v -456.60134888 597.14465332 0.00000000
v -456.71740723 584.74346924 0.00000000
v -456.83349609 572.34222412 0.00000000
v -456.94958496 559.94104004 0.00000000
v -457.06564331 547.53985596 0.00000000
v -457.18173218 535.13861084 0.00000000
v -457.29782104 522.73742676 0.00000000
v -457.41390991 510.33621216 0.00000000
v -444.57403564 634.23895264 0.00000000
v -444.69012451 621.83776855 0.00000000
v -444.80618286 609.43652344 0.00000000
v -432.89495850 634.12963867 0.00000000
v -433.12713623 609.32720947 0.00000000
v -422.14453125 534.81066895 0.00000000
v -422.37670898 510.00823975 0.00000000
v -424.18084717 538.66241455 0.00000000
v -420.84054565 537.51318359 0.00000000
v -416.24694824 540.95660400 0.00000000
v -420.67929077 537.45770264 0.00000000
v -419.22476196 534.78332520 0.00000000
v -419.16671753 540.98394775 0.00000000
v -422.20257568 528.61004639 0.00000000
v -419.21026611 536.33349609 0.00000000
v -422.13003540 536.36083984 0.00000000
v -421.40008545 536.35400391 0.00000000
v -422.12277222 537.13586426 0.00000000
v -421.39282227 537.12902832 0.00000000
v -423.60443115 534.82434082 0.00000000
v -423.58990479 536.37445068 0.00000000
v -419.18124390 539.43377686 0.00000000
v -420.62661743 540.99761963 0.00000000
v -420.64111328 539.44744873 0.00000000
v -421.02786255 537.12561035 0.00000000
v -421.38919067 537.51660156 0.00000000
v -421.02423096 537.51318359 0.00000000
v -417.76489258 534.76965332 0.00000000
v -417.75036621 536.31982422 0.00000000
v -413.32717896 540.92926025 0.00000000
v -413.35620117 537.82897949 0.00000000
v -421.64746094 535.10992432 0.00000000
v -420.64291382 534.69519043 0.00000000
v -419.15554810 538.30822754 0.00000000
v -423.66403198 539.85931396 0.00000000
v -421.31057739 545.30981445 0.00000000
v -415.85360718 543.68133545 0.00000000
v -410.39666748 542.05279541 0.00000000
v -412.47561646 536.01007080 0.00000000
v -416.03778076 537.23559570 0.00000000
v -417.45147705 533.37768555 0.00000000
v -416.74621582 533.08654785 0.00000000
v -419.23928833 533.23315430 0.00000000
v -415.77755737 535.77130127 0.00000000
v -412.89849854 534.78082275 0.00000000
v -414.82546997 529.17980957 0.00000000
v -417.74597168 530.30548096 0.00000000
v -417.15853882 531.94110107 0.00000000
v -417.87023926 532.23492432 0.00000000
v -419.75231934 527.09893799 0.00000000
v -419.01162720 526.79351807 0.00000000
v -416.39205933 525.45507812 0.00000000
v -422.23159790 525.50976562 0.00000000
v -420.77169800 525.49609375 0.00000000
v -422.21707153 527.05993652 0.00000000
v -420.74267578 528.59637451 0.00000000
v -420.75720215 527.04626465 0.00000000
v -433.99771118 516.31817627 0.00000000
v -416.37756348 527.00524902 0.00000000
v -417.85192871 525.46875000 0.00000000
v -417.83743286 527.01892090 0.00000000
v -418.09350586 529.34387207 0.00000000
v -415.15164185 528.23175049 0.00000000
v -417.13177490 522.47625732 0.00000000
v -420.18734741 523.52746582 0.00000000
v -419.54202271 525.32012939 0.00000000
v -420.29095459 525.62896729 0.00000000
v -419.36987305 519.28179932 0.00000000
v -423.37240601 517.22003174 0.00000000
v -424.66522217 517.63537598 0.00000000
v -424.94735718 516.75994873 0.00000000
v -422.34768677 513.10852051 0.00000000
v -425.29644775 510.03558350 0.00000000
v -425.26745605 513.13586426 0.00000000
v -422.43133545 515.94909668 0.00000000
v -422.14846802 516.82678223 0.00000000
v -422.33316040 514.65869141 0.00000000
v -423.80755615 513.12219238 0.00000000
v -425.25292969 514.68603516 0.00000000
v -423.79306030 514.67236328 0.00000000
v -419.38436890 517.73168945 0.00000000
v -420.82974243 519.29547119 0.00000000
v -420.84426880 517.74536133 0.00000000
v -422.55276489 516.95666504 0.00000000
v -420.85150146 516.97027588 0.00000000
v -421.57418823 517.75219727 0.00000000
v -421.58145142 516.97711182 0.00000000
v -420.88778687 513.09490967 0.00000000
v -420.87329102 514.64501953 0.00000000
v -420.53762817 522.55450439 0.00000000
v -417.46817017 521.49847412 0.00000000
v -419.38131714 515.93768311 0.00000000
v -421.09594727 516.48858643 0.00000000
v -421.37908936 515.60998535 0.00000000
v -419.61434937 515.04125977 0.00000000
v -420.96554565 509.84371948 0.00000000
v -422.31674194 504.64620972 0.00000000
v -424.06823730 504.77005005 0.00000000
v -422.40570068 506.90795898 0.00000000
v -425.32546997 506.93527222 0.00000000
v -424.16934204 503.46994019 0.00000000
v -422.65319824 503.35202026 0.00000000
v -424.14270020 497.62249756 0.00000000
v -432.04675293 498.13882446 0.00000000
v -439.95077515 498.65518188 0.00000000
v -447.85482788 499.17153931 0.00000000
v -447.81976318 502.91943359 0.00000000
v -457.47192383 504.13558960 0.00000000
v -449.07147217 503.01840210 0.00000000
v -449.10668945 499.25332642 0.00000000
v -452.39395142 499.46804810 0.00000000
v -452.35830688 503.27825928 0.00000000
v -453.19583130 503.34448242 0.00000000
v -457.50094604 501.03530884 0.00000000
v -454.55218506 504.10827637 0.00000000
v -454.58117676 501.00796509 0.00000000
v -454.56668091 502.55813599 0.00000000
v -457.35586548 516.53680420 0.00000000
v -451.45828247 522.68273926 0.00000000
v -453.23162842 499.52279663 0.00000000
v -459.34320068 499.92202759 0.00000000
v -459.27914429 506.20056152 0.00000000
v -458.42572021 506.13418579 0.00000000
v -458.93182373 504.14926147 0.00000000
v -458.91729736 505.69943237 0.00000000
v -458.41574097 507.19873047 0.00000000
v -459.26837158 507.25900269 0.00000000
v -457.42840576 508.78607178 0.00000000
v -458.87377930 510.34988403 0.00000000
v -458.88827515 508.79971313 0.00000000
v -457.38488770 513.43652344 0.00000000
v -459.23202515 510.81924438 0.00000000
v -458.38195801 510.81057739 0.00000000
v -454.43609619 516.50946045 0.00000000
v -454.46511841 513.40917969 0.00000000
v -458.37457275 511.59655762 0.00000000
v -459.22402954 511.60449219 0.00000000
v -459.15670776 518.20428467 0.00000000
v -458.31280518 518.19567871 0.00000000
v -457.32684326 519.63708496 0.00000000
v -457.23977661 528.93798828 0.00000000
v -451.48730469 519.58245850 0.00000000
v -454.37805176 522.71008301 0.00000000
v -454.40707397 519.60980225 0.00000000
v -458.30447388 519.08691406 0.00000000
v -459.14755249 519.10162354 0.00000000
v -459.06512451 527.18188477 0.00000000
v -458.22879028 527.17333984 0.00000000
v -457.26879883 525.83770752 0.00000000
v -457.21075439 532.03833008 0.00000000
v -457.12368774 541.33923340 0.00000000
v -454.32000732 528.91070557 0.00000000
v -454.34902954 525.81036377 0.00000000
v -458.21957397 528.15802002 0.00000000
v -459.05508423 528.16589355 0.00000000
v -458.97879028 535.64239502 0.00000000
v -458.14959717 535.63391113 0.00000000
v -457.15270996 538.23895264 0.00000000
v -454.26196289 535.11126709 0.00000000
v -454.20391846 541.31188965 0.00000000
v -454.23294067 538.21160889 0.00000000
v -458.14105225 536.54541016 0.00000000
v -458.96951294 536.55316162 0.00000000
v -458.90032959 543.33618164 0.00000000
v -458.07757568 543.32843018 0.00000000
v -457.00762939 553.74041748 0.00000000
v -458.58358765 541.35290527 0.00000000
v -458.56906128 542.90301514 0.00000000
v -454.14590454 547.51251221 0.00000000
v -458.06689453 544.46881104 0.00000000
v -458.88867188 544.47650146 0.00000000
v -457.08016968 545.98968506 0.00000000
v -458.52554321 547.55346680 0.00000000
v -458.54003906 546.00335693 0.00000000
v -457.03665161 550.64013672 0.00000000
v -458.83877563 549.36828613 0.00000000
v -458.78887939 554.26013184 0.00000000
v -457.97531128 554.25183105 0.00000000
v -456.97860718 556.84075928 0.00000000
v -456.89154053 566.14166260 0.00000000
v -454.08786011 553.71307373 0.00000000
v -454.02981567 559.91369629 0.00000000
v -454.05883789 556.81341553 0.00000000
v -445.21246338 566.03234863 0.00000000
v -457.96630859 555.21307373 0.00000000
v -458.77908325 555.22064209 0.00000000
v -458.71545410 561.45574951 0.00000000
v -457.90795898 561.44781494 0.00000000
v -456.92056274 563.04132080 0.00000000
v -453.97177124 566.11431885 0.00000000
v -454.00079346 563.01403809 0.00000000
v -457.90060425 562.23376465 0.00000000
v -458.70745850 562.24127197 0.00000000
v -458.64575195 568.28918457 0.00000000
v -458.58404541 574.33703613 0.00000000
v -457.78738403 574.32958984 0.00000000
v -456.77545166 578.54284668 0.00000000
v -450.87786865 584.68878174 0.00000000
v -458.29336548 572.35589600 0.00000000
v -458.27886963 573.90606689 0.00000000
v -453.91372681 572.31494141 0.00000000
v -453.85568237 578.51550293 0.00000000
v -456.86251831 569.24194336 0.00000000
v -457.77713013 575.42370605 0.00000000
v -458.57290649 575.43115234 0.00000000
v -458.50286865 582.29650879 0.00000000
v -457.71289062 582.28912354 0.00000000
v -456.74642944 581.64312744 0.00000000
v -456.68838501 587.84375000 0.00000000
v -450.76181030 597.09002686 0.00000000
v -450.90689087 581.58850098 0.00000000
v -453.79763794 584.71612549 0.00000000
v -453.82666016 581.61584473 0.00000000
v -457.70138550 583.51824951 0.00000000
v -458.49032593 583.52563477 0.00000000
v -458.41094971 591.30682373 0.00000000
v -457.62854004 591.29949951 0.00000000
v -456.63037109 594.04437256 0.00000000
v -456.54330444 603.34527588 0.00000000
v -450.79083252 593.98968506 0.00000000
v -453.68157959 597.11730957 0.00000000
v -453.71060181 594.01702881 0.00000000
v -444.86422729 603.23596191 0.00000000
v -450.64572144 609.49121094 0.00000000
v -450.70376587 603.29058838 0.00000000
v -457.61758423 592.46990967 0.00000000
v -458.39898682 592.47723389 0.00000000
v -458.32620239 599.61383057 0.00000000
v -457.55078125 599.60656738 0.00000000
v -456.58682251 598.69482422 0.00000000
v -458.06121826 597.15832520 0.00000000
v -458.04672241 598.70849609 0.00000000
v -453.62353516 603.31793213 0.00000000
v -457.53955078 600.80676270 0.00000000
v -458.31396484 600.81402588 0.00000000
v -456.55780029 601.79510498 0.00000000
v -458.00317383 603.35894775 0.00000000
v -458.01770020 601.80877686 0.00000000
v -456.51428223 606.44555664 0.00000000
v -456.42721558 615.74645996 0.00000000
v -458.23049927 608.99353027 0.00000000
v -458.14706421 617.17309570 0.00000000
v -458.06362915 625.35260010 0.00000000
v -457.30984497 625.34558105 0.00000000
v -456.31112671 628.14770508 0.00000000
v -450.52963257 621.89239502 0.00000000
v -450.41357422 634.29364014 0.00000000
v -456.28210449 631.24798584 0.00000000
v -453.44940186 621.91973877 0.00000000
v -453.39135742 628.12036133 0.00000000
v -457.29931641 626.47070312 0.00000000
v -458.05215454 626.47772217 0.00000000
v -457.98657227 632.90411377 0.00000000
v -457.92102051 639.33044434 0.00000000
v -455.72836304 639.30993652 0.00000000
v -455.71740723 640.47973633 0.00000000
v -453.33334351 634.32092285 0.00000000
v -456.22409058 637.44860840 0.00000000
v -453.30432129 637.42126465 0.00000000
v -457.90908813 640.50024414 0.00000000
v -464.61187744 640.60382080 0.00000000
v -471.31463623 640.70739746 0.00000000
v -478.01742554 640.81097412 0.00000000
v -480.35992432 640.83215332 0.00000000
v -480.36999512 639.75482178 0.00000000
v -479.58221436 637.66723633 0.00000000
v -482.53100586 634.59423828 0.00000000
v -482.50198364 637.69458008 0.00000000
v -479.66928101 628.36633301 0.00000000
v -491.34832764 628.47564697 0.00000000
v -478.02432251 639.73968506 0.00000000
v -478.06689453 633.13665771 0.00000000
v -478.10946655 626.53369141 0.00000000
v -478.68756104 626.54260254 0.00000000
v -479.78533936 615.96508789 0.00000000
v -482.64706421 622.19305420 0.00000000
v -482.58905029 628.39367676 0.00000000
v -491.46441650 616.07440186 0.00000000
v -485.62487793 616.01977539 0.00000000
v -479.64025879 631.46661377 0.00000000
v -478.70117188 625.08758545 0.00000000
v -478.11886597 625.07855225 0.00000000
v -479.75631714 619.06542969 0.00000000
v -478.15634155 619.26757812 0.00000000
v -478.19378662 613.45660400 0.00000000
v -478.80993652 613.46612549 0.00000000
v -479.90142822 603.56390381 0.00000000
v -479.79986572 614.41497803 0.00000000
v -482.76315308 609.79180908 0.00000000
v -482.70510864 615.99243164 0.00000000
v -478.81915283 612.48413086 0.00000000
v -479.82888794 611.31463623 0.00000000
v -479.87240601 606.66418457 0.00000000
v -478.20013428 612.47454834 0.00000000
v -478.24548340 605.44256592 0.00000000
v -478.88494873 605.45251465 0.00000000
v -479.93045044 600.46362305 0.00000000
v -480.01751709 591.16271973 0.00000000
v -482.82119751 603.59124756 0.00000000
v -482.79217529 606.69152832 0.00000000
v -478.89324951 604.56707764 0.00000000
v -478.25119019 604.55712891 0.00000000
v -478.30340576 596.45812988 0.00000000
v -478.96905518 596.46844482 0.00000000
v -479.98849487 594.26300049 0.00000000
v -482.93728638 591.19000244 0.00000000
v -482.87924194 597.39062500 0.00000000
v -482.90826416 594.29034424 0.00000000
v -478.97906494 595.40014648 0.00000000
v -478.31030273 595.38977051 0.00000000
v -478.35665894 588.19879150 0.00000000
v -479.04638672 588.20520020 0.00000000
v -480.03201294 589.61254883 0.00000000
v -478.55761719 591.14904785 0.00000000
v -478.57214355 589.59887695 0.00000000
v -482.99533081 584.98944092 0.00000000
v -479.05795288 586.97058105 0.00000000
v -478.36462402 586.96405029 0.00000000
v -478.61566162 584.94842529 0.00000000
v -478.60116577 586.49859619 0.00000000
v -480.10458374 581.86181641 0.00000000
v -478.41116333 579.74414062 0.00000000
v -479.12554932 579.74804688 0.00000000
v -478.64468384 581.84814453 0.00000000
v -478.65921021 580.29797363 0.00000000
v -480.16259766 575.66119385 0.00000000
v -480.24966431 566.36029053 0.00000000
v -483.02435303 581.88909912 0.00000000
v -479.13571167 578.66253662 0.00000000
v -478.41818237 578.65789795 0.00000000
v -478.70272827 575.64752197 0.00000000
v -480.14810181 577.21136475 0.00000000
v -478.68823242 577.19769287 0.00000000
v -483.11138916 572.58819580 0.00000000
v -483.08236694 575.68853760 0.00000000
v -478.46990967 570.63549805 0.00000000
v -479.21081543 570.63958740 0.00000000
v -483.16943359 566.38763428 0.00000000
v -479.22030640 569.62738037 0.00000000
v -478.47644043 569.62255859 0.00000000
v -478.52127075 562.67059326 0.00000000
v -479.28536987 562.67480469 0.00000000
v -480.33673096 557.05938721 0.00000000
v -483.22747803 560.18701172 0.00000000
v -483.19845581 563.28729248 0.00000000
v -479.29620361 561.51684570 0.00000000
v -478.52871704 561.51190186 0.00000000
v -478.57559204 554.24224854 0.00000000
v -479.36422729 554.24963379 0.00000000
v -480.35122681 555.50921631 0.00000000
v -478.87686157 557.04571533 0.00000000
v -478.89135742 555.49554443 0.00000000
v -480.39477539 550.85876465 0.00000000
v -483.25650024 557.08673096 0.00000000
v -479.37515259 553.08502197 0.00000000
v -478.58309937 553.07763672 0.00000000
v -478.93487549 550.84509277 0.00000000
v -478.92037964 552.39526367 0.00000000
v -483.34356689 547.78582764 0.00000000
v -483.31454468 550.88610840 0.00000000
v -478.63500977 545.03039551 0.00000000
v -484.79397583 545.13165283 0.00000000
v -484.75009155 553.13531494 0.00000000
v -480.71011353 553.09753418 0.00000000
v -480.69921875 554.26208496 0.00000000
v -484.74371338 554.29998779 0.00000000
v -484.70394897 561.55169678 0.00000000
v -480.63122559 561.52545166 0.00000000
v -480.62039185 562.68212891 0.00000000
v -484.69763184 562.70446777 0.00000000
v -484.65948486 569.66241455 0.00000000
v -480.55529785 569.63598633 0.00000000
v -480.54583740 570.64691162 0.00000000
v -484.65396118 570.66943359 0.00000000
v -484.60995483 578.69781494 0.00000000
v -480.47073364 578.67114258 0.00000000
v -480.46057129 579.75537109 0.00000000
v -484.60403442 579.77807617 0.00000000
v -484.57086182 585.82958984 0.00000000
v -484.55969238 587.02203369 0.00000000
v -480.39291382 586.98303223 0.00000000
v -480.38137817 588.21771240 0.00000000
v -484.34646606 588.25482178 0.00000000
v -484.33386230 589.60144043 0.00000000
v -485.44692993 589.61187744 0.00000000
v -485.48236084 585.82904053 0.00000000
v -491.26068115 585.82550049 0.00000000
v -497.03897095 585.82202148 0.00000000
v -496.98721313 588.98797607 0.00000000
v -503.37564087 591.38134766 0.00000000
v -506.03344727 588.90661621 0.00000000
v -515.07965088 588.82519531 0.00000000
v -514.59930420 595.19793701 0.00000000
v -506.21926880 595.07519531 0.00000000
v -497.83923340 594.95245361 0.00000000
v -497.87405396 591.23272705 0.00000000
v -496.94775391 591.22406006 0.00000000
v -500.45587158 591.35400391 0.00000000
v -500.47039795 589.80383301 0.00000000
v -498.99600220 591.34033203 0.00000000
v -499.01049805 589.79016113 0.00000000
v -503.34661865 594.48162842 0.00000000
v -500.42684937 594.45428467 0.00000000
v -494.64535522 588.19903564 0.00000000
v -494.63085938 589.74920654 0.00000000
v -496.10525513 588.21270752 0.00000000
v -496.09072876 589.76287842 0.00000000
v -494.58734131 594.39965820 0.00000000
v -496.90045166 596.27539062 0.00000000
v -491.72390747 596.22692871 0.00000000
v -486.54736328 596.17846680 0.00000000
v -486.53799438 597.17944336 0.00000000
v -491.71453857 597.22790527 0.00000000
v -496.89108276 597.27636719 0.00000000
v -496.83749390 603.00256348 0.00000000
v -491.70559692 602.95452881 0.00000000
v -486.57366943 602.90649414 0.00000000
v -486.56341553 604.00250244 0.00000000
v -491.69531250 604.05053711 0.00000000
v -496.82723999 604.09857178 0.00000000
v -496.78890991 608.19177246 0.00000000
v -491.61630249 608.14337158 0.00000000
v -486.44369507 608.09497070 0.00000000
v -486.43267822 609.27386475 0.00000000
v -491.18750000 609.31835938 0.00000000
v -495.94235229 609.36285400 0.00000000
v -495.92370605 613.57696533 0.00000000
v -491.17398071 613.53253174 0.00000000
v -486.42425537 613.48809814 0.00000000
v -486.41400146 614.58233643 0.00000000
v -488.54464722 616.04711914 0.00000000
v -491.16644287 614.62677002 0.00000000
v -495.91885376 614.67126465 0.00000000
v -495.89282227 620.55834961 0.00000000
v -495.86679077 626.44543457 0.00000000
v -495.83328247 634.01940918 0.00000000
v -493.46823120 633.99731445 0.00000000
v -493.46807861 639.94775391 0.00000000
v -484.91046143 639.86761475 0.00000000
v -484.95858765 634.72753906 0.00000000
v -492.06976318 634.79412842 0.00000000
v -492.07736206 633.98425293 0.00000000
v -491.26129150 637.77655029 0.00000000
v -491.27578735 636.22637939 0.00000000
v -492.72116089 637.79022217 0.00000000
v -492.73568726 636.24005127 0.00000000
v -491.31930542 631.57592773 0.00000000
v -494.26809692 628.50299072 0.00000000
v -494.23907471 631.60327148 0.00000000
v -491.30480957 633.12609863 0.00000000
v -492.77920532 631.58959961 0.00000000
v -494.22457886 633.15344238 0.00000000
v -492.76467896 633.13977051 0.00000000
v -488.42855835 628.44830322 0.00000000
v -488.39956665 631.54858398 0.00000000
v -484.96615601 633.91772461 0.00000000
v -485.00671387 629.58441162 0.00000000
v -487.25537109 629.60546875 0.00000000
v -487.27722168 627.27038574 0.00000000
v -494.25643921 627.33569336 0.00000000
v -494.26492310 626.43041992 0.00000000
v -492.80822754 628.48931885 0.00000000
v -486.45648193 626.35729980 0.00000000
v -486.43276978 628.89239502 0.00000000
v -485.01333618 628.87915039 0.00000000
v -482.56002808 631.49395752 0.00000000
v -485.02020264 628.14447021 0.00000000
v -482.57452393 629.94378662 0.00000000
v -483.97317505 628.13470459 0.00000000
v -483.91870117 633.95599365 0.00000000
v -483.86419678 639.77734375 0.00000000
v -481.68807983 639.76330566 0.00000000
v -481.67794800 640.84405518 0.00000000
v -485.05978394 640.87493896 0.00000000
v -485.00369263 647.01971436 0.00000000
v -476.46231079 646.93518066 0.00000000
v -467.92095947 646.85070801 0.00000000
v -459.37957764 646.76623535 0.00000000
v -450.83819580 646.68176270 0.00000000
v -450.70730591 640.43286133 0.00000000
v -453.94714355 640.46313477 0.00000000
v -453.95809937 639.29333496 0.00000000
v -452.28713989 639.27770996 0.00000000
v -452.33239746 634.44427490 0.00000000
v -451.25012207 634.43414307 0.00000000
v -451.21224976 638.62286377 0.00000000
v -442.93701172 637.04187012 0.00000000
v -442.96786499 633.74322510 0.00000000
v -438.73449707 634.18432617 0.00000000
v -432.95300293 627.92901611 0.00000000
v -438.85058594 621.78308105 0.00000000
v -442.02081299 633.73437500 0.00000000
v -438.76351929 631.08398438 0.00000000
v -444.60305786 631.13867188 0.00000000
v -444.58853149 632.68878174 0.00000000
v -450.44259644 631.19329834 0.00000000
v -447.49380493 634.26629639 0.00000000
v -447.52282715 631.16601562 0.00000000
v -441.99154663 636.86120605 0.00000000
v -435.91891479 635.70104980 0.00000000
v -435.94503784 632.90924072 0.00000000
v -435.07083130 632.90106201 0.00000000
v -432.92398071 631.02935791 0.00000000
v -437.30361938 631.07031250 0.00000000
v -438.74899292 632.63415527 0.00000000
v -437.27459717 634.17065430 0.00000000
v -437.28912354 632.62048340 0.00000000
v -432.90948486 632.57946777 0.00000000
v -434.38388062 631.04302979 0.00000000
v -434.35485840 634.14331055 0.00000000
v -434.36935425 632.59313965 0.00000000
v -430.03323364 627.90173340 0.00000000
v -429.97518921 634.10229492 0.00000000
v -430.00421143 631.00201416 0.00000000
v -435.04620361 635.53430176 0.00000000
v -427.90930176 634.17083740 0.00000000
v -427.78863525 626.19445801 0.00000000
v -435.13296509 626.26324463 0.00000000
v -435.08328247 631.57336426 0.00000000
v -435.95745850 631.58160400 0.00000000
v -435.98040771 629.13018799 0.00000000
v -440.01422119 629.16790771 0.00000000
v -440.02343750 628.18444824 0.00000000
v -438.77801514 629.53387451 0.00000000
v -440.22338867 631.09765625 0.00000000
v -441.77035522 621.81042480 0.00000000
v -444.66110229 624.93804932 0.00000000
v -435.98962402 628.14672852 0.00000000
v -436.00717163 626.27142334 0.00000000
v -440.04098511 626.30914307 0.00000000
v -440.05194092 625.13677979 0.00000000
v -439.19857788 625.12878418 0.00000000
v -439.20510864 624.43103027 0.00000000
v -440.31045532 621.79675293 0.00000000
v -441.75582886 623.36059570 0.00000000
v -440.29595947 623.34692383 0.00000000
v -441.82836914 615.60980225 0.00000000
v -444.71911621 618.73742676 0.00000000
v -438.20068359 624.42163086 0.00000000
v -438.19415283 625.11938477 0.00000000
v -432.94311523 625.07019043 0.00000000
v -432.95956421 623.31298828 0.00000000
v -438.21060181 623.36212158 0.00000000
v -438.20666504 623.78234863 0.00000000
v -439.21109009 623.79174805 0.00000000
v -439.22509766 622.29687500 0.00000000
v -438.22064209 622.28747559 0.00000000
v -438.21835327 622.53332520 0.00000000
v -438.12063599 621.77624512 0.00000000
v -438.11700439 622.16381836 0.00000000
v -438.48559570 621.77966309 0.00000000
v -438.84695435 622.17065430 0.00000000
v -438.48196411 622.16723633 0.00000000
v -441.78485107 620.26025391 0.00000000
v -440.32498169 620.24658203 0.00000000
v -440.30319214 622.57183838 0.00000000
v -439.56600952 623.34008789 0.00000000
v -439.57327271 622.56500244 0.00000000
v -433.09826660 622.48541260 0.00000000
v -433.11260986 620.95117188 0.00000000
v -438.23272705 620.99914551 0.00000000
v -438.22756958 621.54986572 0.00000000
v -439.23199463 621.55926514 0.00000000
v -439.25714111 618.87152100 0.00000000
v -440.31497192 618.88140869 0.00000000
v -440.32513428 617.79632568 0.00000000
v -439.26730347 617.78643799 0.00000000
v -439.30987549 613.23822021 0.00000000
v -440.11575317 613.24578857 0.00000000
v -441.88641357 609.40924072 0.00000000
v -433.18515015 603.12664795 0.00000000
v -441.84289551 614.05969238 0.00000000
v -440.36849976 615.59613037 0.00000000
v -440.38299561 614.04602051 0.00000000
v -436.04687500 609.35455322 0.00000000
v -440.12817383 611.91815186 0.00000000
v -439.32229614 611.91064453 0.00000000
v -440.42654419 609.39556885 0.00000000
v -441.87191772 610.95935059 0.00000000
v -440.41201782 610.94567871 0.00000000
v -441.94445801 603.20861816 0.00000000
v -444.83520508 606.33624268 0.00000000
v -441.91543579 606.30889893 0.00000000
v -439.33975220 610.04742432 0.00000000
v -438.33532715 610.03802490 0.00000000
v -438.31787109 611.90124512 0.00000000
v -430.22210693 611.82543945 0.00000000
v -430.25781250 606.18859863 0.00000000
v -430.29348755 600.55169678 0.00000000
v -438.42340088 600.62780762 0.00000000
v -438.40612793 602.47351074 0.00000000
v -436.16296387 596.95336914 0.00000000
v -436.10491943 603.15393066 0.00000000
v -433.30123901 590.72540283 0.00000000
v -439.41055298 602.48291016 0.00000000
v -442.00250244 597.00799561 0.00000000
v -439.42782593 600.63720703 0.00000000
v -440.04168701 600.64294434 0.00000000
v -441.95898438 601.65844727 0.00000000
v -440.48458862 603.19494629 0.00000000
v -440.49908447 601.64477539 0.00000000
v -440.05477905 599.24389648 0.00000000
v -439.44091797 599.23815918 0.00000000
v -440.54263306 596.99432373 0.00000000
v -441.98800659 598.55816650 0.00000000
v -440.52810669 598.54449463 0.00000000
v -442.03152466 593.90771484 0.00000000
v -439.44860840 598.41796875 0.00000000
v -438.44418335 598.40856934 0.00000000
v -438.43649292 599.22875977 0.00000000
v -436.14846802 598.50347900 0.00000000
v -437.62286377 596.96704102 0.00000000
v -437.60833740 598.51715088 0.00000000
v -436.22100830 590.75274658 0.00000000
v -436.19198608 593.85302734 0.00000000
v -430.30233765 599.15264893 0.00000000
v -430.33853149 593.43646240 0.00000000
v -438.49023438 593.48803711 0.00000000
v -438.48657227 593.87976074 0.00000000
v -436.20651245 592.30291748 0.00000000
v -437.68087769 590.76641846 0.00000000
v -437.65188599 593.86669922 0.00000000
v -437.66638184 592.31658936 0.00000000
v -433.33026123 587.62512207 0.00000000
v -436.25003052 587.65246582 0.00000000
v -442.04602051 592.35754395 0.00000000
v -440.57162476 593.89404297 0.00000000
v -440.58615112 592.34387207 0.00000000
v -442.11859131 584.60681152 0.00000000
v -442.08956909 587.70709229 0.00000000
v -436.17749023 595.40319824 0.00000000
v -437.63735962 595.41687012 0.00000000
v -437.64462280 594.64178467 0.00000000
v -438.36730957 595.42370605 0.00000000
v -442.01699829 595.45788574 0.00000000
v -440.55712891 595.44421387 0.00000000
v -439.49099731 593.88916016 0.00000000
v -439.52081299 590.70355225 0.00000000
v -440.02902222 590.70825195 0.00000000
v -440.62966919 587.69342041 0.00000000
v -442.07504272 589.25726318 0.00000000
v -440.61517334 589.24359131 0.00000000
v -440.03790283 589.75738525 0.00000000
v -439.52972412 589.75262451 0.00000000
v -439.53610229 589.06890869 0.00000000
v -438.53167725 589.05950928 0.00000000
v -438.49920654 592.52899170 0.00000000
v -430.33642578 592.45257568 0.00000000
v -430.37957764 586.95178223 0.00000000
v -438.55068970 587.02825928 0.00000000
v -438.54202271 587.95538330 0.00000000
v -437.70989990 587.66613770 0.00000000
v -436.23550415 589.20257568 0.00000000
v -437.69540405 589.21624756 0.00000000
v -439.54644775 587.96478271 0.00000000
v -439.56176758 586.32867432 0.00000000
v -439.62994385 579.04370117 0.00000000
v -443.74615479 579.08221436 0.00000000
v -443.72357178 581.49377441 0.00000000
v -445.04702759 581.50616455 0.00000000
v -445.06961060 579.09460449 0.00000000
v -449.41632080 579.13531494 0.00000000
v -449.42758179 577.93096924 0.00000000
v -447.95812988 584.66143799 0.00000000
v -447.98712158 581.56115723 0.00000000
v -444.53439331 577.88513184 0.00000000
v -439.64123535 577.83935547 0.00000000
v -438.63681030 577.82995605 0.00000000
v -437.04974365 577.83807373 0.00000000
v -437.06454468 574.34075928 0.00000000
v -442.71453857 574.32189941 0.00000000
v -450.13027954 574.39129639 0.00000000
v -450.14181519 573.15740967 0.00000000
v -442.71142578 573.08782959 0.00000000
v -442.70507812 570.57434082 0.00000000
v -443.39028931 570.58074951 0.00000000
v -443.40444946 569.07000732 0.00000000
v -442.70126343 569.06341553 0.00000000
v -443.75259399 566.01867676 0.00000000
v -445.19796753 567.58245850 0.00000000
v -443.73806763 567.56878662 0.00000000
v -442.68988037 564.56890869 0.00000000
v -447.29428101 563.63360596 0.00000000
v -451.89868164 562.69824219 0.00000000
v -451.88107300 564.64898682 0.00000000
v -452.98559570 564.65930176 0.00000000
v -453.00607300 562.47332764 0.00000000
v -453.00588989 562.18792725 0.00000000
v -455.48968506 559.92736816 0.00000000
v -455.46066284 563.02764893 0.00000000
v -453.98626709 564.56414795 0.00000000
v -453.94274902 569.21459961 0.00000000
v -456.56201172 562.22119141 0.00000000
v -456.56939697 561.43420410 0.00000000
v -453.00537109 561.39782715 0.00000000
v -453.00137329 555.16656494 0.00000000
v -456.62774658 555.20056152 0.00000000
v -456.63674927 554.23815918 0.00000000
v -455.54772949 553.72674561 0.00000000
v -455.51870728 556.82708740 0.00000000
v -454.11688232 550.61279297 0.00000000
v -453.00076294 554.20111084 0.00000000
v -452.99761963 549.31121826 0.00000000
v -452.99447632 544.42132568 0.00000000
v -456.72830200 544.45623779 0.00000000
v -456.73898315 543.31591797 0.00000000
v -452.99374390 543.28088379 0.00000000
v -452.98937988 536.49719238 0.00000000
v -456.80249023 536.53289795 0.00000000
v -456.81103516 535.62030029 0.00000000
v -455.72186279 535.12493896 0.00000000
v -455.69284058 538.22528076 0.00000000
v -454.29098511 532.01098633 0.00000000
v -452.98880005 535.58129883 0.00000000
v -452.98397827 528.10900879 0.00000000
v -456.88098145 528.14550781 0.00000000
v -456.89022827 527.15966797 0.00000000
v -455.80889893 525.82403564 0.00000000
v -455.77990723 528.92437744 0.00000000
v -452.98333740 527.11981201 0.00000000
v -452.98269653 526.11486816 0.00000000
v -453.02572632 521.51745605 0.00000000
v -452.18765259 521.50958252 0.00000000
v -451.47277832 521.13262939 0.00000000
v -454.39254761 521.15991211 0.00000000
v -448.53851318 522.65539551 0.00000000
v -448.56753540 519.55511475 0.00000000
v -439.83724976 516.37280273 0.00000000
v -452.14767456 525.78082275 0.00000000
v -446.66366577 523.58666992 0.00000000
v -446.77291870 522.57720947 0.00000000
v -445.50372314 522.06945801 0.00000000
v -439.80822754 519.47314453 0.00000000
v -442.75701904 516.40014648 0.00000000
v -442.72799683 519.50048828 0.00000000
v -445.36956787 523.06890869 0.00000000
v -437.78421021 520.03411865 0.00000000
v -437.81619263 514.86975098 0.00000000
v -446.23944092 516.58880615 0.00000000
v -445.66284180 520.88409424 0.00000000
v -446.90252686 521.38006592 0.00000000
v -447.39562988 516.82470703 0.00000000
v -452.22229004 517.80975342 0.00000000
v -452.19879150 520.31958008 0.00000000
v -453.03686523 520.32745361 0.00000000
v -453.04934692 518.99548340 0.00000000
v -456.96600342 519.06365967 0.00000000
v -456.97424316 518.18206787 0.00000000
v -455.89596558 516.52313232 0.00000000
v -455.86694336 519.62347412 0.00000000
v -453.05734253 518.14208984 0.00000000
v -453.11904907 511.54736328 0.00000000
v -457.03601074 511.58401489 0.00000000
v -457.04336548 510.79693604 0.00000000
v -454.47961426 511.85903931 0.00000000
v -455.92498779 513.42285156 0.00000000
v -455.93951416 511.87268066 0.00000000
v -453.12646484 510.75695801 0.00000000
v -453.16323853 506.82733154 0.00000000
v -457.07794189 507.10412598 0.00000000
v -457.08798218 506.03015137 0.00000000
v -453.17355347 505.72570801 0.00000000
v -453.18548584 504.45205688 0.00000000
v -452.34793091 504.38583374 0.00000000
v -452.33599854 505.66055298 0.00000000
v -449.04913330 505.40493774 0.00000000
v -449.06109619 504.12597656 0.00000000
v -447.80938721 504.02700806 0.00000000
v -447.79739380 505.30758667 0.00000000
v -440.93911743 504.77420044 0.00000000
v -434.08084106 504.24078369 0.00000000
v -427.22253418 503.70739746 0.00000000
v -427.12310791 504.98605347 0.00000000
v -427.80557251 505.03430176 0.00000000
v -425.33999634 505.38513184 0.00000000
v -426.78536987 506.94894409 0.00000000
v -426.79986572 505.39880371 0.00000000
v -427.64578247 507.29382324 0.00000000
v -435.80349731 507.83535767 0.00000000
v -443.96124268 508.37689209 0.00000000
v -443.87350464 511.62481689 0.00000000
v -435.37158203 511.00625610 0.00000000
v -426.86965942 510.38769531 0.00000000
v -426.77139282 512.61578369 0.00000000
v -431.85525513 513.65325928 0.00000000
v -436.93911743 514.69079590 0.00000000
v -436.99093628 520.30242920 0.00000000
v -436.84140015 520.59320068 0.00000000
v -433.96868896 519.41845703 0.00000000
v -436.88845825 519.44580078 0.00000000
v -438.34835815 519.45947266 0.00000000
v -435.42858887 519.43212891 0.00000000
v -438.37738037 516.35919189 0.00000000
v -439.82275391 517.92297363 0.00000000
v -438.36285400 517.90930176 0.00000000
v -436.15853882 519.43896484 0.00000000
v -436.15127563 520.21405029 0.00000000
v -433.98321533 517.86834717 0.00000000
v -435.45761108 516.33184814 0.00000000
v -435.44308472 517.88195801 0.00000000
v -431.50259399 518.87255859 0.00000000
v -426.16375732 517.15197754 0.00000000
v -425.88195801 518.02630615 0.00000000
v -426.95236206 518.37023926 0.00000000
v -426.28393555 520.45068359 0.00000000
v -427.30203247 520.77777100 0.00000000
v -427.97045898 518.69738770 0.00000000
v -436.42019653 521.41223145 0.00000000
v -434.45635986 525.23071289 0.00000000
v -430.72735596 523.50091553 0.00000000
v -425.99798584 521.71484375 0.00000000
v -423.78823853 527.07110596 0.00000000
v -424.79168701 527.48486328 0.00000000
v -426.50256348 523.33581543 0.00000000
v -430.12353516 524.89929199 0.00000000
v -426.78561401 532.62982178 0.00000000
v -423.22515869 531.28387451 0.00000000
v -424.19534302 528.93103027 0.00000000
v -423.19168091 528.51715088 0.00000000
v -421.10668945 533.57098389 0.00000000
v -422.11105347 533.98565674 0.00000000
v -422.82180786 532.26202393 0.00000000
v -426.35620117 533.62438965 0.00000000
v -494.31732178 620.83435059 0.00000000
v -486.41006470 620.76037598 0.00000000
v -486.39904785 621.93701172 0.00000000
v -491.43539429 619.17474365 0.00000000
v -488.51562500 619.14739990 0.00000000
v -494.30630493 622.01104736 0.00000000
v -494.38418579 616.10174561 0.00000000
v -494.35516357 619.20208740 0.00000000
v -495.41830444 591.35583496 0.00000000
v -486.70925903 591.27435303 0.00000000
v -486.70098877 592.15875244 0.00000000
v -495.41000366 592.24023438 0.00000000
v -494.60183716 592.84948730 0.00000000
v -496.04721069 594.41333008 0.00000000
v -496.06170654 592.86315918 0.00000000
v -484.04556274 620.40112305 0.00000000
v -484.00094604 625.16955566 0.00000000
v -480.03607178 625.10821533 0.00000000
v -480.02243042 626.56329346 0.00000000
v -483.98733521 626.62463379 0.00000000
v -483.98150635 627.24615479 0.00000000
v -485.02853394 627.25598145 0.00000000
v -485.09259033 620.41094971 0.00000000
v -482.67608643 619.09271240 0.00000000
v -484.22573853 601.15460205 0.00000000
v -484.19302368 604.64910889 0.00000000
v -480.22814941 604.58770752 0.00000000
v -480.21984863 605.47314453 0.00000000
v -481.36132812 603.57757568 0.00000000
v -481.33230591 606.67785645 0.00000000
v -482.85021973 600.49090576 0.00000000
v -484.18472290 605.53448486 0.00000000
v -484.11892700 612.56616211 0.00000000
v -480.15402222 612.50482178 0.00000000
v -480.14483643 613.48681641 0.00000000
v -481.30328369 609.77819824 0.00000000
v -482.74865723 611.34197998 0.00000000
v -481.28875732 611.32830811 0.00000000
v -482.71963501 614.44226074 0.00000000
v -481.24523926 615.97875977 0.00000000
v -481.25973511 614.42864990 0.00000000
v -484.10971069 613.54815674 0.00000000
v -484.05789185 619.08673096 0.00000000
v -485.10488892 619.09649658 0.00000000
v -485.18881226 610.13043213 0.00000000
v -485.27273560 601.16436768 0.00000000
v -484.32171631 590.90057373 0.00000000
v -484.27883911 595.48217773 0.00000000
v -480.31393433 595.42077637 0.00000000
v -480.30395508 596.48907471 0.00000000
v -484.26882935 596.55041504 0.00000000
v -484.23855591 599.78442383 0.00000000
v -485.28558350 599.79418945 0.00000000
v -485.33270264 594.75952148 0.00000000
v -491.78338623 594.81988525 0.00000000
v -491.79229736 593.86938477 0.00000000
v -493.12744141 594.38598633 0.00000000
v -494.57281494 595.94982910 0.00000000
v -493.11294556 595.93615723 0.00000000
v -493.14196777 592.83581543 0.00000000
v -485.40765381 593.80957031 0.00000000
v -485.43478394 590.91101074 0.00000000
v -449.15863037 622.57415771 0.00000000
v -443.61355591 622.52221680 0.00000000
v -443.61688232 622.16662598 0.00000000
v -447.60986328 621.86511230 0.00000000
v -444.70462036 620.28759766 0.00000000
v -450.55865479 618.79211426 0.00000000
v -447.63888550 618.76477051 0.00000000
v -446.14999390 621.85144043 0.00000000
v -442.68258667 622.15789795 0.00000000
v -442.66793823 623.72174072 0.00000000
v -443.60223389 623.73046875 0.00000000
v -443.60635376 623.28936768 0.00000000
v -444.66833496 624.16296387 0.00000000
v -443.93841553 624.15612793 0.00000000
v -449.15142822 623.34124756 0.00000000
v -449.06976318 621.87872314 0.00000000
v -441.63345337 613.25994873 0.00000000
v -448.48126221 613.32409668 0.00000000
v -448.43957520 617.77746582 0.00000000
v -451.40045166 617.80517578 0.00000000
v -451.35714722 622.59472656 0.00000000
v -450.19421387 622.58380127 0.00000000
v -450.18704224 623.35095215 0.00000000
v -451.35021973 623.36181641 0.00000000
v -451.34408569 624.03955078 0.00000000
v -453.50744629 615.71911621 0.00000000
v -456.39819336 618.84680176 0.00000000
v -453.47842407 618.81945801 0.00000000
v -452.42968750 624.04974365 0.00000000
v -452.50674438 615.81622314 0.00000000
v -451.41854858 615.80603027 0.00000000
v -451.41006470 616.74304199 0.00000000
v -453.49295044 617.26928711 0.00000000
v -453.56549072 609.51855469 0.00000000
v -456.45623779 612.64617920 0.00000000
v -453.53646851 612.61883545 0.00000000
v -449.50103760 616.72515869 0.00000000
v -449.53280640 613.33392334 0.00000000
v -451.44073486 613.35180664 0.00000000
v -447.72595215 609.46386719 0.00000000
v -451.43084717 614.44384766 0.00000000
v -452.51950073 614.45404053 0.00000000
v -452.58978271 606.94714355 0.00000000
v -451.49871826 606.93695068 0.00000000
v -450.67474365 606.39093018 0.00000000
v -453.59451294 606.41821289 0.00000000
v -451.45272827 612.02416992 0.00000000
v -446.54931641 611.97827148 0.00000000
v -441.64587402 611.93237305 0.00000000
v -439.39724731 603.90350342 0.00000000
v -438.39282227 603.89410400 0.00000000
v -433.15612793 606.22692871 0.00000000
v -436.07589722 606.25427246 0.00000000
v -438.34860229 608.61743164 0.00000000
v -439.35305786 608.62683105 0.00000000
v -438.47906494 594.68109131 0.00000000
v -438.45394897 597.36437988 0.00000000
v -439.45837402 597.37377930 0.00000000
v -439.48348999 594.69049072 0.00000000
v -450.32519531 569.13482666 0.00000000
v -444.47290039 569.08001709 0.00000000
v -444.45877075 570.59075928 0.00000000
v -450.31103516 570.64550781 0.00000000
v -446.55722046 589.16900635 0.00000000
v -446.55111694 589.81835938 0.00000000
v -450.84887695 587.78906250 0.00000000
v -447.84204102 597.06268311 0.00000000
v -447.87106323 593.96234131 0.00000000
v -440.96221924 589.76605225 0.00000000
v -440.95330811 590.71691895 0.00000000
v -444.46923828 590.74981689 0.00000000
v -444.41201782 596.86358643 0.00000000
v -446.26968384 596.88098145 0.00000000
v -446.32693481 590.76721191 0.00000000
v -449.09603882 590.79315186 0.00000000
v -449.10491943 589.84228516 0.00000000
v -449.38897705 587.77545166 0.00000000
v -450.83435059 589.33923340 0.00000000
v -449.37448120 589.32556152 0.00000000
v -453.76861572 587.81640625 0.00000000
v -447.86505127 589.83068848 0.00000000
v -447.87112427 589.18127441 0.00000000
v -443.67797852 586.36724854 0.00000000
v -440.88787842 586.34112549 0.00000000
v -440.87924194 587.26385498 0.00000000
v -440.65869141 584.59313965 0.00000000
v -442.10406494 586.15692139 0.00000000
v -446.57455444 587.31713867 0.00000000
v -446.56658936 588.16583252 0.00000000
v -446.49822998 584.64776611 0.00000000
v -447.94360352 586.21160889 0.00000000
v -446.48373413 586.19793701 0.00000000
v -447.88052368 588.17816162 0.00000000
v -447.88845825 587.32946777 0.00000000
v -449.12835693 587.34106445 0.00000000
v -449.13699341 586.41833496 0.00000000
v -449.41799927 584.67510986 0.00000000
v -445.00140381 586.37963867 0.00000000
v -445.02316284 584.05590820 0.00000000
v -443.69970703 584.04351807 0.00000000
v -441.39816284 626.32183838 0.00000000
v -449.12286377 626.39416504 0.00000000
v -449.13385010 625.22174072 0.00000000
v -443.58877563 625.16986084 0.00000000
v -443.59402466 624.60858154 0.00000000
v -442.65972900 624.59979248 0.00000000
v -442.65444946 625.16113281 0.00000000
v -441.40914917 625.14947510 0.00000000
v -451.58288574 597.62713623 0.00000000
v -451.56729126 599.35168457 0.00000000
v -446.24703979 599.30187988 0.00000000
v -446.25549316 598.39868164 0.00000000
v -447.78399658 603.26324463 0.00000000
v -444.39782715 598.38128662 0.00000000
v -444.38937378 599.28448486 0.00000000
v -443.46237183 597.02166748 0.00000000
v -443.44787598 598.57183838 0.00000000
v -441.17181396 599.25439453 0.00000000
v -441.15872192 600.65344238 0.00000000
v -446.35668945 600.70208740 0.00000000
v -451.55465698 600.75073242 0.00000000
v -451.51278687 605.38336182 0.00000000
v -452.60430908 605.39355469 0.00000000
v -452.64767456 600.76098633 0.00000000
v -456.20095825 600.79425049 0.00000000
v -456.21218872 599.59405518 0.00000000
v -452.65890503 599.56079102 0.00000000
v -452.67691040 597.63739014 0.00000000
v -451.61428833 594.15460205 0.00000000
v -451.59539795 596.24298096 0.00000000
v -452.68988037 596.25323486 0.00000000
v -452.70941162 594.16485596 0.00000000
v -451.65930176 589.17687988 0.00000000
v -451.65307617 589.86614990 0.00000000
v -450.45587158 589.85491943 0.00000000
v -450.44696045 590.80578613 0.00000000
v -451.64447021 590.81701660 0.00000000
v -451.62658691 592.79473877 0.00000000
v -452.72213745 592.80499268 0.00000000
v -452.72570801 592.42413330 0.00000000
v -452.25070190 594.00335693 0.00000000
v -452.25796509 593.22827148 0.00000000
v -453.71783447 593.24194336 0.00000000
v -452.98791504 593.23510742 0.00000000
v -455.17047119 594.03070068 0.00000000
v -450.77630615 595.53985596 0.00000000
v -453.69607544 595.56719971 0.00000000
v -456.27899170 592.45733643 0.00000000
v -456.28994751 591.28692627 0.00000000
v -452.73666382 591.25366211 0.00000000
v -452.75601196 589.18713379 0.00000000
v -452.79296875 585.23901367 0.00000000
v -451.69500732 585.22875977 0.00000000
v -451.68402100 586.44213867 0.00000000
v -450.48791504 586.43096924 0.00000000
v -450.47927856 587.35369873 0.00000000
v -451.67568970 587.36492920 0.00000000
v -451.66958618 588.03771973 0.00000000
v -453.78314209 586.26629639 0.00000000
v -452.76666260 588.04797363 0.00000000
v -452.86791992 577.23315430 0.00000000
v -451.76736450 577.22283936 0.00000000
v -451.70751953 583.84204102 0.00000000
v -452.80593872 583.85235596 0.00000000
v -452.80950928 583.47247314 0.00000000
v -450.89239502 583.13861084 0.00000000
v -453.80490112 583.94104004 0.00000000
v -453.06771851 584.70928955 0.00000000
v -453.07495117 583.93420410 0.00000000
v -455.28656006 581.62945557 0.00000000
v -455.25753784 584.72979736 0.00000000
v -456.36279297 583.50573730 0.00000000
v -456.37429810 582.27661133 0.00000000
v -452.82101440 582.24334717 0.00000000
v -452.87780762 576.17681885 0.00000000
v -452.88528442 575.37792969 0.00000000
v -456.43856812 575.41119385 0.00000000
v -456.44879150 574.31707764 0.00000000
v -452.89550781 574.28381348 0.00000000
v -452.97390747 565.90832520 0.00000000
v -451.86975098 565.89794922 0.00000000
v -451.80398560 573.17291260 0.00000000
v -451.25885010 573.16784668 0.00000000
v -451.24731445 574.40173340 0.00000000
v -451.79284668 574.40686035 0.00000000
v -451.77691650 576.16650391 0.00000000
v -418.56280518 537.03967285 0.00000000
v -417.24890137 536.55603027 0.00000000
v -416.89263916 537.53808594 0.00000000
v -418.22082520 537.98052979 0.00000000
v -416.26147461 539.40643311 0.00000000
v -417.70684814 540.97027588 0.00000000
v -417.72134399 539.42010498 0.00000000
v -421.21939087 530.65454102 0.00000000
v -419.78262329 530.09173584 0.00000000
v -419.52325439 530.75384521 0.00000000
v -422.18804932 530.16021729 0.00000000
v -420.72817993 530.14654541 0.00000000
v -420.96002197 531.31665039 0.00000000
v -423.97204590 524.05596924 0.00000000
v -422.23437500 523.33966064 0.00000000
v -421.91036987 524.12567139 0.00000000
v -423.64804077 524.84197998 0.00000000
v -441.28012085 617.80529785 0.00000000
v -441.26995850 618.89038086 0.00000000
v -442.71304321 618.90386963 0.00000000
v -442.69396973 620.94012451 0.00000000
v -443.62826538 620.94885254 0.00000000
v -443.65838623 617.73272705 0.00000000
v -447.65093994 617.77008057 0.00000000
v -447.66085815 616.70794678 0.00000000
v -442.73400879 616.66180420 0.00000000
v -442.72317505 617.81878662 0.00000000
v -451.29678345 629.27349854 0.00000000
v -451.26266479 633.04742432 0.00000000
v -452.34536743 633.05755615 0.00000000
v -453.36233521 631.22064209 0.00000000
v -452.40744019 626.42492676 0.00000000
v -455.96075439 626.45819092 0.00000000
v -455.97128296 625.33300781 0.00000000
v -452.41796875 625.29980469 0.00000000
v -452.42321777 624.73962402 0.00000000
v -451.33786011 624.72949219 0.00000000
v -451.33322144 625.24237061 0.00000000
v -450.16943359 625.23144531 0.00000000
v -450.15847778 626.40386963 0.00000000
v -451.32263184 626.41473389 0.00000000
v -451.30566406 628.29003906 0.00000000
v -443.01965332 628.21252441 0.00000000
v -443.02612305 627.52026367 0.00000000
v -442.07907104 627.51141357 0.00000000
v -442.07260132 628.20361328 0.00000000
v -441.38061523 628.19714355 0.00000000
v -441.37142944 629.18060303 0.00000000
v -442.06338501 629.18707275 0.00000000
v -442.03802490 631.89526367 0.00000000
v -442.98507690 631.90411377 0.00000000
v -443.01043701 629.19598389 0.00000000
f 463 465 464 462
f 481 467 468 470
f 470 466 289 481
f 466 470 472 469
f 470 468 471 472
f 297 849 850 846
f 423 425 426 424
f 420 418 417 419
f 417 409 421 422
f 902 855 427 899
f 855 857 856 427
f 899 427 900 901
f 1 286 287 285
f 473 289 466 474
f 487 485 299
f 288 296 487
f 299 288 487
f 299 485 286 1
f 3 878 880 311
f 878 308 879 880
f 883 881 309 882
f 307 883 882 294
f 298 450 847
f 450 297 846 847
f 882 309 866
f 302 294 882
f 866 302 882
f 302 866 295 2
f 4 326 873 316
f 871 306 316
f 873 318 871
f 316 873 871
f 872 319 308 878
f 878 3 312 872
f 317 325 327 324
f 6 353 354 345
f 340 347 335 5
f 364 357 346
f 8 378 379 372
f 362 373 363 7
f 339 338 5
f 334 332 317 333
f 350 345 351 352
f 340 343 344
f 377 376 372
f 371 369 362 370
f 12 250 251 249
f 255 257 256 238
f 14 218 219
f 170 186 187
f 191 193 192 16
f 127 143 144
f 147 149 148 19
f 276 9 277 278
f 269 264 267 1121
f 1121 267 9 276
f 517 515 266 516
f 514 513 517
f 516 20 514
f 517 516 514
f 938 11 939 940
f 940 939 259 930
f 937 930 259
f 931 932 937
f 259 931 937
f 932 931 10 268
f 920 908 911
f 910 265 920
f 911 910 920
f 912 21 909
f 909 557 911
f 911 908 912
f 912 909 911
f 252 238 258 950
f 950 258 11 938
f 601 1017 949 944
f 601 242 1017
f 1017 244 949
f 949 243 944
f 944 22 601
f 994 683 995 996
f 995 683 1001
f 981 970 982 983
f 1063 231 1075
f 1075 13 228
f 228 984 1063
f 1063 1075 228
f 1048 1047 241
f 1045 1046 1048
f 1051 241 1049
f 1049 237 12
f 12 240 1051
f 1051 1049 12
f 1050 229 971
f 972 239 1050
f 971 972 1050
f 1074 232 221
f 216 227 1074
f 221 216 1074
f 1073 1071 231 1072
f 1070 217 1001
f 1001 683 684
f 684 230 1070
f 1070 1001 684
f 710 210 709
f 709 208 199
f 199 209 710
f 710 709 199
f 209 199 222 711
f 711 222 14 220
f 188 16 194 720
f 718 200 720
f 194 185 718
f 720 194 718
f 719 198 15 708
f 708 201 202 719
f 731 177 170
f 179 180 731
f 170 179 731
f 737 172 162
f 18 168 737
f 162 18 737
f 738 160 169
f 732 171 738
f 169 732 738
f 730 178 732
f 169 17 730
f 732 169 730
f 774 776 775 154
f 775 150 137 768
f 768 153 154 775
f 744 163 769
f 769 159 18
f 18 162 744
f 744 769 18
f 743 138 745
f 746 161 743
f 745 746 743
f 136 135 133
f 127 134 136
f 133 127 136
f 568 570 572 569
f 570 510 571 572
f 553 575 577
f 577 575 555 576
f 575 553 545
f 554 555 575
f 545 554 575
f 918 917 546
f 544 512 543
f 523 512 524 526
f 526 524 508 525
f 522 528 530 527
f 527 530 529 23
f 597 589 598 599
f 593 591 556 592
f 574 573 545 553
f 611 631 632 630
f 623 615 624 625
f 615 1020 1021 624
f 620 618 600 619
f 600 242 601 602
f 602 601 22 589
f 590 612 957 956
f 956 957 594 24
f 644 671 673 672
f 672 673 640 633
f 672 633 613
f 643 644 672
f 613 643 672
f 990 648 991
f 659 649 660 661
f 647 645 626 646
f 646 626 654 655
f 655 654 615 623
f 633 640 642 639
f 652 651 650
f 634 641 652
f 650 634 652
f 653 651 652
f 650 651 631 611
f 698 203 699 700
f 813 747 753
f 754 752 813
f 753 754 813
f 77 818 819 817
f 817 819 811 808
f 812 747 813 814
f 814 813 752 810
f 816 815 809
f 531 509 522 533
f 527 23 532
f 533 522 527
f 532 533 527
f 25 39 40 35
f 97 91 26
f 92 93 97
f 26 92 97
f 91 97 99 96
f 97 93 98 99
f 794 796 795 119
f 118 119 92 26
f 29 49 50
f 47 31 34 48
f 36 35 37 38
f 44 38 45 46
f 41 43 42 32
f 1097 41 32 1096
f 1095 1097 1096 29
f 73 72 74 76
f 76 74 33 75
f 71 79 80 78
f 75 33 1101 1102
f 62 31 47
f 107 91 96 108
f 104 106 105 102
f 100 102 101 87
f 457 464 465
f 465 456 457
f 464 457 462
f 455 471 468
f 471 456 472
f 456 461 472
f 456 471 455
f 460 456 465
f 454 455 468
f 456 460 461
f 465 463 460
f 461 475 469
f 459 460 463
f 474 466 469
f 477 474 476
f 477 473 474
f 462 459 463
f 461 469 472
f 479 454 467
f 468 467 454
f 454 479 480
f 479 481 289
f 479 467 481
f 848 454 480
f 849 453 850
f 843 850 453
f 848 843 453
f 843 846 850
f 848 453 454
f 452 453 849
f 289 473 478
f 478 473 477
f 480 482 845 848
f 843 844 846
f 451 297 450
f 479 289 478
f 451 849 297
f 483 486 864
f 462 457 458
f 492 493 494
f 462 458 459
f 474 475 476
f 469 475 474
f 489 490 287 286
f 483 484 486
f 490 491 287
f 284 491 492
f 492 283 284
f 287 284 285
f 283 492 494
f 287 491 284
f 489 286 485
f 487 488 485
f 485 488 489
f 283 494 495
f 488 864 486
f 864 488 863
f 296 863 488
f 482 864 845
f 844 847 846
f 865 844 845
f 847 886 298
f 865 886 844
f 885 886 865 858
f 865 845 864
f 844 886 847
f 483 864 482
f 862 296 861
f 296 288 861
f 296 862 863
f 860 295 859
f 866 885 858
f 858 295 866
f 885 866 309
f 885 309 884
f 858 859 295
f 488 487 296
f 884 309 881
f 449 450 298
f 446 447 445
f 452 849 451
f 438 439 440
f 435 433 434
f 445 447 444
f 441 438 440
f 447 448 444
f 437 438 441
f 433 435 432
f 428 429 901 900
f 432 435 436
f 429 430 896 897
f 856 428 900
f 412 413 410
f 414 421 413
f 421 414 422
f 421 409 413
f 854 416 857
f 422 414 419
f 416 856 857
f 851 416 854
f 428 856 416
f 409 410 413
f 900 427 856
f 898 899 897
f 901 897 899
f 901 429 897
f 902 853 854
f 855 854 857
f 853 902 898
f 902 899 898
f 854 855 902
f 451 450 449
f 449 298 448
f 448 443 444
f 308 875 879
f 887 298 886
f 298 887 448
f 887 442 443
f 442 887 437
f 870 874 319
f 887 443 448
f 877 884 881
f 437 441 442
f 877 881 883
f 876 879 875
f 308 319 874
f 306 870 312
f 872 870 319
f 870 872 312
f 880 879 876
f 308 874 875
f 869 871 318
f 895 432 436
f 437 888 436
f 436 888 895
f 887 888 437
f 432 895 431
f 898 903 853
f 896 430 431
f 852 853 904
f 896 431 895
f 853 903 904
f 895 888 867 894
f 873 867 318
f 868 318 867
f 894 867 873
f 893 894 873 326
f 326 892 893
f 889 890 327 325
f 890 891 327
f 869 318 868
f 871 869 306
f 406 424 852
f 284 290 285
f 282 495 281
f 496 281 495
f 291 1 285
f 291 288 299
f 1 291 299
f 291 285 290
f 495 282 283
f 281 496 280
f 497 280 496
f 280 497 279
f 277 272 273
f 272 277 9
f 272 9 267
f 274 277 273
f 275 279 497
f 267 264 272
f 861 288 860
f 288 293 300
f 288 300 2
f 288 292 293
f 288 291 292
f 2 303 302
f 303 294 302
f 300 301 2
f 2 301 303
f 2 860 288
f 263 270 264
f 271 264 270
f 304 294 303
f 261 10 931
f 264 10 263
f 10 261 262
f 262 263 10
f 259 261 931
f 1123 1124 264
f 271 272 264
f 501 274 275
f 274 501 278 277
f 502 278 501
f 275 500 501
f 498 500 275
f 1120 1121 276
f 1121 1120 1122
f 264 269 1122 1123
f 276 278 503
f 10 264 1124
f 502 503 278
f 266 504 505
f 276 503 266
f 517 1142 1118
f 1118 1119 515
f 1122 269 1121
f 276 266 1119 1120
f 266 503 504
f 1124 933 268
f 1124 1125 1126
f 946 930 934
f 930 937 934
f 933 934 932 268
f 259 939 261
f 1124 1126 933
f 268 10 1124
f 1126 1127 929 933
f 1129 929 1127
f 265 910 925
f 934 937 932
f 929 927 928
f 935 946 934
f 1128 1129 1127
f 1132 1130 1131
f 275 497 498
f 930 946 940
f 876 311 880
f 311 307 310
f 876 877 307
f 310 307 305
f 877 883 307
f 876 307 311
f 311 313 3
f 315 320 306
f 315 306 312
f 314 312 3
f 311 310 313
f 307 304 305
f 313 314 3
f 306 869 870
f 256 254 260
f 306 321 316
f 315 312 314
f 320 321 306
f 304 307 294
f 892 326 4
f 323 328 4
f 4 322 323
f 322 4 316
f 892 4 891
f 327 891 324
f 324 891 4
f 324 4 328
f 324 328 329
f 329 333 324
f 316 321 322
f 250 246 247
f 254 257 253
f 251 247 248
f 250 237 246
f 245 246 237
f 250 247 251
f 248 249 251
f 254 256 257
f 258 256 260
f 11 258 260
f 238 252 255
f 258 238 256
f 249 1029 1030
f 255 253 257
f 249 248 253
f 1029 249 255
f 1030 240 249
f 252 1029 255
f 939 11 260
f 938 940 946
f 1027 950 947
f 938 947 950
f 938 946 947
f 950 1027 252
f 1032 229 240
f 1030 1031 240
f 1028 1029 252
f 947 948 1026 1027
f 261 939 260
f 1031 1032 240
f 1053 237 1052
f 1035 1051 240
f 240 12 249
f 237 1053 228
f 245 237 236
f 1044 1052 1047
f 1052 1049 1047
f 1049 241 1047
f 1052 237 1049
f 228 235 236
f 241 1051 1036
f 237 250 12
f 241 1036 1048
f 1035 1036 1051
f 1036 1033 1045
f 1045 1048 1036
f 1047 1043 1044
f 1046 1043 1048
f 1043 1047 1048
f 1033 1046 1045
f 1032 1013 229
f 228 236 237
f 255 249 253
f 1042 1043 1046
f 295 860 2
f 1054 1055 1053
f 409 418 410
f 415 419 414
f 419 417 422
f 415 420 419
f 411 412 410
f 418 408 410
f 415 408 420
f 418 420 408
f 408 415 416
f 418 409 417
f 851 424 426
f 852 904 404
f 403 889 325
f 404 904 889
f 851 426 416
f 406 852 404
f 403 401 402
f 852 424 851
f 404 889 403
f 408 426 425
f 401 403 325
f 408 416 426
f 423 407 425
f 423 424 406
f 347 397 398
f 423 406 407
f 406 404 405
f 399 335 398
f 408 425 407
f 396 397 347
f 399 400 5 335
f 400 401 331 336
f 340 396 347
f 353 393 354
f 354 393 394
f 392 353 6
f 393 353 392
f 395 354 394
f 335 347 398
f 401 325 332
f 401 332 331
f 330 334 333
f 333 317 324
f 331 332 334
f 340 342 396
f 340 5 338 343
f 336 5 400
f 336 339 5
f 330 331 334
f 337 338 339
f 336 337 339
f 343 338 341
f 13 227 226 233
f 338 337 341
f 225 216 224
f 233 234 13
f 330 333 329
f 395 396 348
f 396 342 348
f 349 352 348
f 342 340 344
f 351 395 348
f 351 345 354
f 355 356 6
f 6 345 350
f 392 6 356
f 352 351 348
f 344 341 342
f 351 354 395
f 350 352 349
f 341 344 343
f 213 214 218
f 349 355 350
f 214 215 219
f 222 213 218
f 214 219 218
f 6 350 355
f 358 392 356
f 219 215 14
f 317 332 325
f 357 389 390
f 391 357 390
f 388 364 346
f 364 389 357
f 389 364 388
f 363 386 387
f 373 386 363
f 346 357 391
f 359 346 358
f 391 358 346
f 346 359 360
f 391 392 358
f 361 346 360
f 363 387 7
f 365 7 387
f 388 365 387
f 7 365 366
f 388 361 365
f 370 7 366
f 346 361 388
f 384 385 373
f 386 373 385
f 384 368 374 383
f 384 373 369
f 378 381 382
f 382 383 372 379
f 382 379 378
f 8 381 378
f 362 369 373
f 369 371 368 384
f 370 367 371
f 376 8 372
f 374 375 377
f 377 375 376
f 377 372 383
f 383 374 377
f 380 8 376
f 371 367 368
f 370 362 7
f 380 381 8
f 16 192 195
f 370 366 367
f 190 195 192
f 376 375 380
f 183 186 182
f 211 212 208
f 212 213 199
f 194 195 196
f 192 193 190
f 193 189 190
f 184 187 183
f 177 182 186
f 187 186 183
f 205 206 198
f 166 18 165
f 150 155 156
f 141 143 140
f 151 149 146
f 164 165 159
f 150 156 157
f 157 158 137
f 158 164 159
f 152 148 151
f 148 149 151
f 142 144 141
f 133 140 143
f 144 143 141
f 145 146 149
f 175 169 174
f 144 142 127
f 187 184 170
f 226 227 225
f 1076 1077 227
f 224 216 223
f 13 1076 227
f 227 216 225
f 218 14 222
f 1082 14 215
f 222 199 213
f 208 212 199
f 1081 223 216
f 228 13 234
f 1074 227 1077
f 1071 1069 1076
f 13 1075 1076
f 1076 1075 1071
f 1082 223 1081
f 220 14 1082 1083
f 221 1081 216
f 712 208 709
f 709 210 707
f 228 1053 984
f 712 713 208
f 204 205 198
f 206 207 15
f 15 198 206
f 207 208 15
f 185 204 198
f 195 194 16
f 196 197 185
f 185 194 196
f 197 204 185
f 193 191 724 189
f 716 717 185
f 15 713 708
f 712 709 707
f 198 719 716
f 188 724 191
f 715 716 719 202
f 191 16 188
f 717 718 185
f 185 198 716
f 15 208 713
f 211 208 207
f 189 724 725 184
f 223 1082 215
f 1056 1072 231
f 1068 1073 1072
f 1056 231 1063
f 1063 984 1064
f 1077 1078 1074
f 1073 1069 1071
f 1079 1081 221
f 1063 1064 1056
f 1075 231 1071
f 1072 1067 1068
f 1074 1078 232
f 1068 1069 1073
f 1065 1079 221
f 1081 1079 1080
f 1065 1066 1079
f 1065 221 1078
f 1057 1072 1056
f 1064 984 1055
f 711 220 1083
f 1084 209 711
f 210 710 705 706
f 710 209 1084 705
f 714 202 201
f 721 720 200
f 722 188 720
f 721 718 717
f 708 713 714
f 210 706 707
f 721 200 718
f 722 723 188
f 964 1086 967
f 1084 1085 704 705
f 722 720 721
f 202 714 715
f 714 201 708
f 1084 711 1083
f 724 188 723
f 1037 1064 1055
f 235 228 234
f 17 176 181
f 182 177 181
f 170 177 186
f 177 17 181
f 160 167 173
f 160 174 169
f 169 176 17
f 160 173 174
f 728 729 17
f 176 169 175
f 177 728 17
f 728 177 731
f 728 731 180
f 179 170 725 726
f 729 730 17
f 168 160 735 736
f 738 735 160
f 738 171 735
f 180 727 728
f 184 725 170
f 167 160 168
f 159 165 18
f 137 150 157
f 158 159 137
f 766 159 769
f 767 159 766
f 19 148 152
f 145 149 147
f 155 19 152
f 155 150 19
f 773 147 19
f 773 19 772
f 779 145 147
f 18 166 168
f 150 776 772
f 163 766 769
f 772 776 774
f 767 768 137
f 150 772 19
f 127 133 143
f 780 142 779
f 147 773 777
f 780 127 142
f 779 147 778
f 780 134 127
f 159 767 137
f 737 168 736
f 142 145 779
f 171 734 735
f 166 167 168
f 727 180 179
f 733 732 178
f 178 730 729
f 162 172 740 741
f 741 744 162
f 172 737 736
f 171 732 734
f 729 733 178
f 733 734 732
f 736 739 172
f 740 172 739
f 163 744 764
f 764 744 741
f 138 742 748
f 742 764 741
f 765 163 764
f 726 727 179
f 163 765 766
f 770 154 153
f 132 136 134
f 132 135 136
f 772 774 771
f 774 154 771
f 150 775 776
f 767 770 153
f 778 147 777
f 781 782 134
f 132 782 783 131
f 132 139 135
f 134 780 781
f 782 132 134
f 771 154 770
f 767 153 768
f 133 135 139
f 140 133 139
f 1053 1055 984
f 266 515 1119
f 516 266 505
f 515 517 1118
f 1129 1130 1006 1007
f 1130 1132 1006
f 927 1129 1007 919
f 506 516 505
f 929 1129 927
f 514 1141 513
f 506 20 516
f 1006 1132 1133
f 546 1009 918
f 915 917 918
f 513 1142 517
f 546 917 1007
f 514 20 507 1141
f 1134 1005 1006
f 917 919 1007
f 925 926 265
f 919 926 927
f 926 919 905
f 908 920 905
f 920 926 905
f 910 923 924
f 925 910 924
f 920 265 926
f 935 936 941
f 919 917 916
f 21 1112 909
f 905 912 908
f 1115 923 1114
f 911 1114 923
f 1113 1114 911 557
f 923 910 911
f 923 1115 922
f 557 909 1112
f 906 912 905
f 1008 1009 546
f 498 499 500
f 507 511 1141
f 1141 511 1140
f 1141 1142 513
f 1133 1134 1006
f 1007 1008 546
f 511 544 1140
f 1138 1139 1140
f 508 511 518
f 1140 544 1138
f 1137 1135 1136
f 1137 1005 1135
f 1005 550 1012
f 555 554 1012 550
f 1135 1005 1134
f 1005 1137 542 549
f 1010 1011 1012
f 916 917 915
f 1009 915 918
f 915 1010 914
f 1010 915 1009
f 907 21 906
f 21 907 545
f 557 1112 1113
f 545 907 913
f 1112 21 545
f 913 914 554 545
f 906 21 912
f 1111 1112 545
f 554 1010 1012
f 573 1111 545
f 573 574 584 1109
f 592 556 1108 585
f 573 1109 1110
f 573 1110 1111
f 554 914 1010
f 1137 1138 541 542
f 506 507 20
f 1117 1108 1116
f 935 945 946
f 942 943 945
f 243 948 951
f 252 1027 1028
f 971 1014 1015
f 948 949 1026
f 1025 1026 244
f 935 941 945
f 944 243 951 952
f 945 941 942
f 244 1017 1024 1025
f 244 1026 949
f 229 1014 971
f 1014 229 1013
f 229 1034 1035
f 243 949 948
f 240 229 1035
f 1050 1033 1034
f 1033 1050 239
f 1034 229 1050
f 1042 1033 239
f 1040 1041 1042
f 1037 1038 982
f 1038 1039 982
f 1037 982 1062
f 1062 1064 1037
f 239 1040 1042
f 1039 1040 979
f 979 1040 239
f 972 979 239
f 972 978 979
f 982 1039 983
f 980 983 1039
f 986 980 985
f 979 980 1039
f 983 980 986
f 971 977 972
f 986 997 981 983
f 591 921 922
f 922 1115 591
f 1116 556 591
f 591 593 588 921
f 556 1116 1108
f 598 22 952
f 971 1015 1016
f 1024 618 1023
f 618 1024 242
f 242 1024 1017
f 22 598 589
f 595 953 921
f 952 953 598
f 589 597 602
f 618 620 1023
f 617 1022 1023
f 602 619 600
f 242 600 618
f 953 599 598
f 624 1021 1022
f 971 1020 977
f 977 1020 976
f 1020 971 1016 1018
f 972 977 978
f 997 986 968 993
f 660 968 969
f 645 974 975
f 976 626 975
f 654 976 1020
f 1019 1022 1021
f 654 1020 615
f 626 976 654
f 975 626 645
f 993 968 660 649
f 1021 1020 1018
f 1018 1019 1021
f 1022 625 624
f 944 952 22
f 591 1115 1116
f 1108 1109 584 585
f 543 540 541
f 542 547 549
f 549 550 1005
f 564 576 555
f 551 552 550
f 552 555 550
f 543 541 544
f 524 512 544
f 548 549 547
f 523 543 512
f 555 552 564
f 563 564 552
f 559 560 558
f 552 558 563
f 564 565 576
f 524 544 511
f 524 511 508
f 553 582 574
f 553 577 565
f 565 577 576
f 583 584 574
f 587 588 593
f 587 593 592
f 592 585 586
f 921 588 595
f 510 553 565
f 510 582 553
f 566 572 571
f 587 592 586
f 570 581 510
f 510 581 582
f 582 583 574
f 569 572 566
f 571 510 565
f 565 566 571
f 519 520 525
f 508 519 525
f 534 529 521
f 540 543 523
f 539 523 526
f 523 539 540
f 520 538 539
f 520 539 526
f 520 526 525
f 521 538 520
f 23 529 534
f 533 532 535
f 534 532 23
f 534 535 532
f 530 528 538 521
f 537 528 509
f 522 509 528
f 538 528 537
f 533 535 536
f 529 530 521
f 578 569 567
f 568 579 580
f 581 570 568
f 569 578 568
f 580 581 568
f 561 563 558
f 569 566 567
f 537 509 531
f 537 531 536
f 533 536 531
f 578 579 568
f 560 561 558
f 563 561 562
f 605 606 24 594
f 519 508 518
f 959 602 597
f 599 603 597
f 599 595 596
f 599 953 595
f 602 959 954
f 617 1023 620
f 616 617 620
f 617 621 1022
f 619 614 620
f 625 1022 621
f 603 599 596
f 603 604 597
f 604 594 597
f 597 958 959
f 958 597 594
f 614 616 620
f 954 955 610
f 954 610 614
f 614 619 954
f 954 619 602
f 627 621 622
f 623 962 655
f 646 656 647
f 963 646 655
f 969 973 660
f 658 973 974
f 661 973 662
f 647 657 658
f 658 662 973
f 647 658 974
f 974 645 647
f 660 973 661
f 623 625 627 962
f 646 963 656
f 656 963 960
f 662 663 664
f 647 656 657
f 661 662 664
f 627 961 962
f 627 625 621
f 612 609 610
f 958 957 955
f 957 958 594
f 632 629 630
f 632 628 629
f 631 961 632
f 628 632 961
f 653 961 631
f 653 960 961
f 955 957 612
f 612 610 955
f 24 607 956
f 607 24 606
f 607 590 956
f 635 611 630
f 629 635 630
f 607 608 590
f 608 609 612 590
f 636 611 635
f 604 605 594
f 652 960 653
f 963 655 962
f 651 653 631
f 638 960 652
f 640 665 666
f 637 638 641
f 641 634 637
f 637 634 636
f 641 638 652
f 642 640 666
f 638 656 960
f 636 634 650
f 667 639 666
f 636 650 611
f 639 667 613
f 665 640 673
f 633 639 613
f 666 639 642
f 613 667 668
f 670 665 673 671
f 628 961 627
f 664 674 659 661
f 544 541 1138
f 665 670 674 664
f 970 1061 1062
f 1061 970 1060
f 970 981 999 1060
f 1062 982 970
f 1057 217 1072
f 1059 1057 1058
f 1001 217 1059
f 1057 1059 217
f 1072 217 1067
f 1059 1060 999
f 1059 999 1000
f 999 981 997
f 998 999 997
f 995 1001 1000
f 1000 1001 1059
f 1000 996 995
f 994 996 1002 1003
f 1079 1066 1090
f 232 1078 221
f 1066 1067 230
f 1067 217 1070
f 1066 682 1090
f 1088 1089 1090
f 1088 692 1087
f 967 1086 1087
f 691 1088 1090
f 230 681 1066
f 230 1067 1070
f 684 680 681
f 684 681 230
f 684 994 679
f 994 1003 679
f 692 966 967
f 1085 1086 964
f 682 685 691
f 1087 692 967
f 682 691 1090
f 692 1088 691
f 684 679 680
f 681 682 1066
f 683 994 684
f 996 1000 1002
f 992 993 649
f 675 988 989
f 649 659 989
f 648 1004 987
f 988 990 991
f 987 991 648
f 987 988 991
f 648 678 1004
f 675 989 659
f 669 671 644
f 671 669 670
f 675 990 988
f 668 669 644 643
f 613 668 643
f 674 675 659
f 649 989 992
f 990 678 648
f 678 679 1003
f 1003 1004 678
f 693 695 966
f 695 696 965 966
f 700 965 696
f 691 685 690
f 676 677 678
f 685 686 690
f 689 687 688
f 678 990 676
f 689 686 687
f 692 693 966
f 689 690 686
f 693 694 695
f 990 675 676
f 700 696 697
f 699 964 965
f 748 749 745
f 704 702 703
f 743 742 138
f 745 138 748
f 763 742 743
f 702 704 1085
f 764 742 763
f 745 749 750
f 964 702 1085
f 203 701 702
f 964 203 702
f 751 760 750
f 750 760 745
f 759 760 751
f 751 754 759
f 759 754 758
f 760 746 745
f 203 964 699
f 762 763 161
f 763 743 161
f 131 783 786 128
f 130 131 128 129
f 785 786 783
f 785 783 784
f 746 762 161
f 761 746 760
f 789 787 788
f 126 787 789
f 124 125 126
f 787 126 128 786
f 746 761 762
f 754 751 755
f 701 698 700
f 701 700 697
f 754 755 752
f 756 752 755
f 814 810 756
f 752 756 810
f 809 818 805
f 805 806 809
f 754 753 758
f 828 829 827
f 826 827 829
f 807 808 816
f 806 816 809
f 819 809 815
f 816 808 811
f 807 820 808
f 815 811 819
f 811 815 816
f 807 816 806
f 820 817 808
f 757 753 747
f 747 812 757
f 812 814 757
f 798 799 800
f 790 124 789
f 789 124 126
f 757 758 753
f 77 805 818
f 77 817 820
f 77 804 805
f 801 797 798
f 801 798 800
f 791 123 790
f 790 123 124
f 77 820 804
f 819 818 809
f 757 814 756
f 203 698 701
f 700 699 965
f 53 54 43
f 45 37 27
f 40 27 37
f 842 27 40
f 35 36 51
f 35 40 37
f 51 25 35
f 45 38 37
f 39 842 40
f 46 27 28
f 46 45 27
f 42 43 54
f 42 55 32
f 44 36 38
f 46 28 44
f 30 44 28
f 36 44 30
f 51 52 840
f 55 42 54
f 36 30 51
f 842 39 841
f 840 39 25
f 837 831 832
f 837 832 835
f 838 839 1101
f 33 838 1101
f 837 835 836
f 837 838 831
f 841 39 840
f 834 835 832
f 1098 1102 1101
f 1103 1098 1101
f 1101 839 1103
f 840 25 51
f 838 33 74
f 1099 75 1102
f 69 76 75
f 839 62 1103
f 839 840 52
f 74 831 838
f 41 53 43
f 1096 32 56
f 53 41 1097
f 1091 34 53
f 34 52 53
f 1092 48 1091
f 53 1094 1091
f 34 1091 48
f 1094 53 1097
f 1093 1094 1097
f 49 29 56
f 50 49 57
f 56 57 49
f 59 1092 1093
f 59 1095 50
f 50 1095 29
f 1093 1095 59
f 1097 1095 1093
f 47 48 1092
f 50 57 58
f 56 29 1096
f 56 32 55
f 50 58 59
f 62 52 31
f 31 52 34
f 60 68 62
f 1103 62 1100
f 1099 68 69
f 1099 69 75
f 62 68 1100
f 1100 68 1099
f 1102 1098 1099
f 60 62 47
f 839 52 62
f 60 47 59
f 64 61 63
f 65 66 67
f 64 65 61
f 61 65 67
f 67 68 61
f 61 68 60
f 59 47 1092
f 82 78 81
f 86 76 69
f 830 824 825
f 834 832 833
f 824 822 823
f 804 821 803
f 825 829 830
f 804 820 821
f 1105 824 830
f 1104 830 831
f 830 1104 1105
f 821 822 90
f 89 90 822
f 1105 88 89
f 89 822 824
f 94 99 90
f 72 1107 831
f 89 824 1105
f 1107 1104 831
f 98 821 90
f 802 795 797
f 797 801 802
f 92 802 803
f 821 98 803
f 802 92 795
f 792 793 796
f 796 793 797
f 794 791 792
f 796 797 795
f 796 794 792
f 803 98 93
f 803 93 92
f 117 119 118
f 795 92 119
f 791 120 122
f 117 120 794
f 122 120 121
f 117 794 119
f 794 120 791
f 99 98 90
f 123 791 122
f 829 825 826
f 73 1106 72
f 1106 73 86
f 76 86 73
f 72 831 74
f 103 105 95
f 103 101 105
f 109 87 101
f 103 109 101
f 1105 1106 86
f 101 102 105
f 1105 86 88
f 79 70 80
f 86 69 70
f 78 80 81
f 85 70 79
f 84 85 79
f 87 109 110
f 84 79 83
f 82 83 71
f 83 79 71
f 100 87 110
f 71 78 82
f 86 70 85
f 113 94 95
f 113 95 112
f 106 112 95
f 95 105 106
f 96 94 113
f 118 26 115
f 91 107 26
f 117 118 116
f 115 116 118
f 108 96 113
f 99 94 96
f 112 106 104
f 111 112 104
f 102 100 104
f 100 111 104
f 26 107 115
f 107 108 114
f 108 113 114
f 115 107 114
f 111 100 110
f 1106 1107 72
f 70 81 80
f 1046 1033 1042
