# Rhino

g object_1
v -479.61123657226562 0 -634.56689453125
v -479.72732543945312 0 -622.16571044921875
v -479.8433837890625 0 -609.7645263671875
v -479.95947265625 0 -597.36328125
v -480.0755615234375 0 -584.96209716796875
v -480.19161987304688 0 -572.5609130859375
v -480.30770874023438 0 -560.15966796875
v -480.42379760742188 0 -547.75848388671875
v -456.25308227539062 0 -634.3482666015625
v -456.36917114257812 0 -621.94708251953125
v -456.48526000976562 0 -609.54583740234375
v -456.60134887695312 0 -597.1446533203125
v -456.7174072265625 0 -584.74346923828125
v -456.83349609375 0 -572.34222412109375
v -456.9495849609375 0 -559.9410400390625
v -457.06564331054688 0 -547.53985595703125
v -457.18173217773438 0 -535.13861083984375
v -457.29782104492188 0 -522.7374267578125
v -457.41390991210938 0 -510.33621215820312
v -444.57403564453125 0 -634.23895263671875
v -444.69012451171875 0 -621.8377685546875
v -444.80618286132812 0 -609.4365234375
v -432.89495849609375 0 -634.129638671875
v -433.12713623046875 0 -609.32720947265625
v -422.14453125 0 -534.8106689453125
v -422.376708984375 0 -510.00823974609375
v -424.18084716796875 0 -538.66241455078125
v -420.84054565429688 0 -537.51318359375
v -416.2469482421875 0 -540.95660400390625
v -420.67929077148438 0 -537.45770263671875
v -419.22476196289062 0 -534.7833251953125
v -419.16671752929688 0 -540.98394775390625
v -422.20257568359375 0 -528.61004638671875
v -419.21026611328125 0 -536.33349609375
v -422.13003540039062 0 -536.36083984375
v -421.40008544921875 0 -536.35400390625
v -422.12277221679688 0 -537.1358642578125
v -421.392822265625 0 -537.1290283203125
v -423.60443115234375 0 -534.8243408203125
v -423.58990478515625 0 -536.37445068359375
v -419.18124389648438 0 -539.43377685546875
v -420.62661743164062 0 -540.99761962890625
v -420.64111328125 0 -539.44744873046875
v -421.02786254882812 0 -537.1256103515625
v -421.38919067382812 0 -537.5166015625
v -421.02423095703125 0 -537.51318359375
v -417.764892578125 0 -534.7696533203125
v -417.7503662109375 0 -536.31982421875
v -413.32717895507812 0 -540.92926025390625
v -413.356201171875 0 -537.8289794921875
v -421.6474609375 0 -535.10992431640625
v -420.64291381835938 0 -534.6951904296875
v -419.15554809570312 0 -538.3082275390625
v -423.66403198242188 0 -539.85931396484375
v -421.31057739257812 0 -545.309814453125
v -415.85360717773438 0 -543.68133544921875
v -410.39666748046875 0 -542.05279541015625
v -412.47561645507812 0 -536.01007080078125
v -416.03778076171875 0 -537.235595703125
v -417.45147705078125 0 -533.377685546875
v -416.7462158203125 0 -533.0865478515625
v -419.23928833007812 0 -533.233154296875
v -415.77755737304688 0 -535.77130126953125
v -412.89849853515625 0 -534.78082275390625
v -414.82546997070312 0 -529.1798095703125
v -417.7459716796875 0 -530.30548095703125
v -417.15853881835938 0 -531.94110107421875
v -417.8702392578125 0 -532.23492431640625
v -419.7523193359375 0 -527.09893798828125
v -419.01162719726562 0 -526.79351806640625
v -416.39205932617188 0 -525.455078125
v -422.23159790039062 0 -525.509765625
v -420.77169799804688 0 -525.49609375
v -422.21707153320312 0 -527.0599365234375
v -420.74267578125 0 -528.59637451171875
v -420.7572021484375 0 -527.0462646484375
v -433.99771118164062 0 -516.31817626953125
v -416.3775634765625 0 -527.0052490234375
v -417.8519287109375 0 -525.46875
v -417.83743286132812 0 -527.0189208984375
v -418.093505859375 0 -529.3438720703125
v -415.15164184570312 0 -528.23175048828125
v -417.13177490234375 0 -522.47625732421875
v -420.18734741210938 0 -523.5274658203125
v -419.54202270507812 0 -525.32012939453125
v -420.29095458984375 0 -525.62896728515625
v -419.369873046875 0 -519.28179931640625
v -423.37240600585938 0 -517.22003173828125
v -424.66522216796875 0 -517.6353759765625
v -424.94735717773438 0 -516.75994873046875
v -422.34768676757812 0 -513.1085205078125
v -425.29644775390625 0 -510.03558349609375
v -425.2674560546875 0 -513.1358642578125
v -422.43133544921875 0 -515.9490966796875
v -422.14846801757812 0 -516.8267822265625
v -422.33316040039062 0 -514.65869140625
v -423.80755615234375 0 -513.1221923828125
v -425.2529296875 0 -514.68603515625
v -423.79306030273438 0 -514.67236328125
v -419.38436889648438 0 -517.731689453125
v -420.82974243164062 0 -519.29547119140625
v -420.84426879882812 0 -517.745361328125
v -422.55276489257812 0 -516.9566650390625
v -420.85150146484375 0 -516.97027587890625
v -421.57418823242188 0 -517.752197265625
v -421.58145141601562 0 -516.97711181640625
v -420.88778686523438 0 -513.09490966796875
v -420.873291015625 0 -514.64501953125
v -420.53762817382812 0 -522.55450439453125
v -417.46817016601562 0 -521.49847412109375
v -419.38131713867188 0 -515.93768310546875
v -421.095947265625 0 -516.48858642578125
v -421.37908935546875 0 -515.6099853515625
v -419.61434936523438 0 -515.041259765625
v -420.96554565429688 0 -509.84371948242188
v -422.31674194335938 0 -504.64620971679688
v -424.0682373046875 0 -504.77005004882812
v -422.40570068359375 0 -506.907958984375
v -425.32546997070312 0 -506.93527221679688
v -424.16934204101562 0 -503.46994018554688
v -422.6531982421875 0 -503.35202026367188
v -424.1427001953125 0 -497.62249755859375
v -432.0467529296875 0 -498.13882446289062
v -439.95077514648438 0 -498.65518188476562
v -447.85482788085938 0 -499.17153930664062
v -447.81976318359375 0 -502.91943359375
v -457.471923828125 0 -504.13558959960938
v -449.07147216796875 0 -503.01840209960938
v -449.106689453125 0 -499.25332641601562
v -452.39395141601562 0 -499.46804809570312
v -452.35830688476562 0 -503.27825927734375
v -453.19583129882812 0 -503.344482421875
v -457.50094604492188 0 -501.03530883789062
v -454.55218505859375 0 -504.1082763671875
v -454.5811767578125 0 -501.00796508789062
v -454.56668090820312 0 -502.55813598632812
v -457.35586547851562 0 -516.53680419921875
v -451.45828247070312 0 -522.6827392578125
v -453.23162841796875 0 -499.52279663085938
v -459.34320068359375 0 -499.92202758789062
v -459.27914428710938 0 -506.2005615234375
v -458.42572021484375 0 -506.13418579101562
v -458.93182373046875 0 -504.14926147460938
v -458.91729736328125 0 -505.69943237304688
v -458.41574096679688 0 -507.19873046875
v -459.26837158203125 0 -507.25900268554688
v -457.42840576171875 0 -508.78607177734375
v -458.873779296875 0 -510.34988403320312
v -458.88827514648438 0 -508.79971313476562
v -457.3848876953125 0 -513.4365234375
v -459.23202514648438 0 -510.81924438476562
v -458.3819580078125 0 -510.81057739257812
v -454.43609619140625 0 -516.50946044921875
v -454.46511840820312 0 -513.4091796875
v -458.37457275390625 0 -511.5965576171875
v -459.22402954101562 0 -511.6044921875
v -459.15670776367188 0 -518.20428466796875
v -458.31280517578125 0 -518.1956787109375
v -457.32684326171875 0 -519.6370849609375
v -457.23977661132812 0 -528.93798828125
v -451.4873046875 0 -519.58245849609375
v -454.3780517578125 0 -522.7100830078125
v -454.40707397460938 0 -519.60980224609375
v -458.30447387695312 0 -519.0869140625
v -459.14755249023438 0 -519.10162353515625
v -459.06512451171875 0 -527.181884765625
v -458.22879028320312 0 -527.17333984375
v -457.268798828125 0 -525.83770751953125
v -457.21075439453125 0 -532.038330078125
v -457.12368774414062 0 -541.3392333984375
v -454.32000732421875 0 -528.91070556640625
v -454.34902954101562 0 -525.81036376953125
v -458.21957397460938 0 -528.15802001953125
v -459.05508422851562 0 -528.1658935546875
v -458.97879028320312 0 -535.64239501953125
v -458.14959716796875 0 -535.6339111328125
v -457.1527099609375 0 -538.23895263671875
v -454.261962890625 0 -535.11126708984375
v -454.20391845703125 0 -541.3118896484375
v -454.23294067382812 0 -538.21160888671875
v -458.14105224609375 0 -536.54541015625
v -458.96951293945312 0 -536.55316162109375
v -458.90032958984375 0 -543.336181640625
v -458.07757568359375 0 -543.32843017578125
v -457.00762939453125 0 -553.74041748046875
v -458.58358764648438 0 -541.3529052734375
v -458.56906127929688 0 -542.90301513671875
v -454.14590454101562 0 -547.51251220703125
v -458.06689453125 0 -544.46881103515625
v -458.888671875 0 -544.47650146484375
v -457.08016967773438 0 -545.98968505859375
v -458.52554321289062 0 -547.553466796875
v -458.5400390625 0 -546.00335693359375
v -457.03665161132812 0 -550.64013671875
v -458.83877563476562 0 -549.3682861328125
v -458.78887939453125 0 -554.2601318359375
v -457.97531127929688 0 -554.2518310546875
v -456.97860717773438 0 -556.84075927734375
v -456.89154052734375 0 -566.14166259765625
v -454.08786010742188 0 -553.71307373046875
v -454.02981567382812 0 -559.9136962890625
v -454.058837890625 0 -556.81341552734375
v -445.21246337890625 0 -566.0323486328125
v -457.96630859375 0 -555.21307373046875
v -458.77908325195312 0 -555.22064208984375
v -458.7154541015625 0 -561.45574951171875
v -457.907958984375 0 -561.44781494140625
v -456.92056274414062 0 -563.04132080078125
v -453.97177124023438 0 -566.11431884765625
v -454.00079345703125 0 -563.0140380859375
v -457.90060424804688 0 -562.2337646484375
v -458.70745849609375 0 -562.24127197265625
v -458.645751953125 0 -568.2891845703125
v -458.58404541015625 0 -574.3370361328125
v -457.78738403320312 0 -574.32958984375
v -456.77545166015625 0 -578.5428466796875
v -450.87786865234375 0 -584.68878173828125
v -458.29336547851562 0 -572.35589599609375
v -458.27886962890625 0 -573.90606689453125
v -453.91372680664062 0 -572.31494140625
v -453.85568237304688 0 -578.5155029296875
v -456.86251831054688 0 -569.241943359375
v -457.77713012695312 0 -575.4237060546875
v -458.57290649414062 0 -575.43115234375
v -458.50286865234375 0 -582.2965087890625
v -457.712890625 0 -582.28912353515625
v -456.74642944335938 0 -581.64312744140625
v -456.68838500976562 0 -587.84375
v -450.76181030273438 0 -597.09002685546875
v -450.90689086914062 0 -581.5885009765625
v -453.79763793945312 0 -584.71612548828125
v -453.82666015625 0 -581.6158447265625
v -457.70138549804688 0 -583.51824951171875
v -458.49032592773438 0 -583.525634765625
v -458.41094970703125 0 -591.30682373046875
v -457.6285400390625 0 -591.29949951171875
v -456.63037109375 0 -594.04437255859375
v -456.54330444335938 0 -603.34527587890625
v -450.79083251953125 0 -593.98968505859375
v -453.68157958984375 0 -597.1173095703125
v -453.71060180664062 0 -594.01702880859375
v -444.86422729492188 0 -603.2359619140625
v -450.64572143554688 0 -609.4912109375
v -450.70376586914062 0 -603.29058837890625
v -457.61758422851562 0 -592.46990966796875
v -458.39898681640625 0 -592.47723388671875
v -458.32620239257812 0 -599.61383056640625
v -457.55078125 0 -599.6065673828125
v -456.58682250976562 0 -598.69482421875
v -458.06121826171875 0 -597.1583251953125
v -458.04672241210938 0 -598.70849609375
v -453.62353515625 0 -603.31793212890625
v -457.53955078125 0 -600.8067626953125
v -458.31396484375 0 -600.81402587890625
v -456.55780029296875 0 -601.79510498046875
v -458.003173828125 0 -603.35894775390625
v -458.0177001953125 0 -601.80877685546875
v -456.5142822265625 0 -606.445556640625
v -456.42721557617188 0 -615.7464599609375
v -458.23049926757812 0 -608.9935302734375
v -458.14706420898438 0 -617.173095703125
v -458.06362915039062 0 -625.35260009765625
v -457.30984497070312 0 -625.3455810546875
v -456.31112670898438 0 -628.147705078125
v -450.52963256835938 0 -621.89239501953125
v -450.41357421875 0 -634.29364013671875
v -456.2821044921875 0 -631.24798583984375
v -453.44940185546875 0 -621.91973876953125
v -453.391357421875 0 -628.120361328125
v -457.29931640625 0 -626.470703125
v -458.05215454101562 0 -626.47772216796875
v -457.986572265625 0 -632.90411376953125
v -457.9210205078125 0 -639.3304443359375
v -455.72836303710938 0 -639.3099365234375
v -455.7174072265625 0 -640.479736328125
v -453.33334350585938 0 -634.3209228515625
v -456.22409057617188 0 -637.4486083984375
v -453.3043212890625 0 -637.4212646484375
v -457.90908813476562 0 -640.500244140625
v -464.61187744140625 0 -640.60382080078125
v -471.31463623046875 0 -640.7073974609375
v -478.01742553710938 0 -640.81097412109375
v -480.35992431640625 0 -640.8321533203125
v -480.3699951171875 0 -639.75482177734375
v -479.58221435546875 0 -637.667236328125
v -482.531005859375 0 -634.59423828125
v -482.50198364257812 0 -637.694580078125
v -479.66928100585938 0 -628.3663330078125
v -491.34832763671875 0 -628.47564697265625
v -478.02432250976562 0 -639.73968505859375
v -478.06689453125 0 -633.13665771484375
v -478.10946655273438 0 -626.53369140625
v -478.68756103515625 0 -626.5426025390625
v -479.78533935546875 0 -615.965087890625
v -482.64706420898438 0 -622.19305419921875
v -482.58905029296875 0 -628.3936767578125
v -491.46441650390625 0 -616.07440185546875
v -485.6248779296875 0 -616.019775390625
v -479.6402587890625 0 -631.46661376953125
v -478.701171875 0 -625.08758544921875
v -478.11886596679688 0 -625.07855224609375
v -479.75631713867188 0 -619.0654296875
v -478.15634155273438 0 -619.267578125
v -478.19378662109375 0 -613.45660400390625
v -478.8099365234375 0 -613.46612548828125
v -479.90142822265625 0 -603.56390380859375
v -479.79986572265625 0 -614.41497802734375
v -482.76315307617188 0 -609.79180908203125
v -482.70510864257812 0 -615.992431640625
v -478.81915283203125 0 -612.484130859375
v -479.82888793945312 0 -611.31463623046875
v -479.87240600585938 0 -606.6641845703125
v -478.20013427734375 0 -612.47454833984375
v -478.2454833984375 0 -605.44256591796875
v -478.88494873046875 0 -605.4525146484375
v -479.93045043945312 0 -600.463623046875
v -480.01751708984375 0 -591.1627197265625
v -482.82119750976562 0 -603.59124755859375
v -482.79217529296875 0 -606.6915283203125
v -478.89324951171875 0 -604.56707763671875
v -478.25119018554688 0 -604.55712890625
v -478.30340576171875 0 -596.4581298828125
v -478.96905517578125 0 -596.46844482421875
v -479.98849487304688 0 -594.26300048828125
v -482.93728637695312 0 -591.19000244140625
v -482.87924194335938 0 -597.390625
v -482.90826416015625 0 -594.29034423828125
v -478.97906494140625 0 -595.400146484375
v -478.310302734375 0 -595.3897705078125
v -478.35665893554688 0 -588.19879150390625
v -479.04638671875 0 -588.2052001953125
v -480.03201293945312 0 -589.612548828125
v -478.5576171875 0 -591.1490478515625
v -478.5721435546875 0 -589.598876953125
v -482.99533081054688 0 -584.98944091796875
v -479.05795288085938 0 -586.9705810546875
v -478.3646240234375 0 -586.96405029296875
v -478.61566162109375 0 -584.94842529296875
v -478.60116577148438 0 -586.49859619140625
v -480.10458374023438 0 -581.86181640625
v -478.41116333007812 0 -579.744140625
v -479.12554931640625 0 -579.748046875
v -478.64468383789062 0 -581.84814453125
v -478.65921020507812 0 -580.2979736328125
v -480.16259765625 0 -575.66119384765625
v -480.24966430664062 0 -566.36029052734375
v -483.02435302734375 0 -581.88909912109375
v -479.13571166992188 0 -578.66253662109375
v -478.41818237304688 0 -578.65789794921875
v -478.70272827148438 0 -575.64752197265625
v -480.14810180664062 0 -577.21136474609375
v -478.688232421875 0 -577.19769287109375
v -483.11138916015625 0 -572.58819580078125
v -483.08236694335938 0 -575.68853759765625
v -478.46990966796875 0 -570.635498046875
v -479.2108154296875 0 -570.63958740234375
v -483.16943359375 0 -566.38763427734375
v -479.22030639648438 0 -569.62738037109375
v -478.4764404296875 0 -569.62255859375
v -478.52127075195312 0 -562.67059326171875
v -479.28536987304688 0 -562.6748046875
v -480.33673095703125 0 -557.05938720703125
v -483.22747802734375 0 -560.18701171875
v -483.19845581054688 0 -563.28729248046875
v -479.29620361328125 0 -561.516845703125
v -478.52871704101562 0 -561.51190185546875
v -478.57559204101562 0 -554.24224853515625
v -479.36422729492188 0 -554.2496337890625
v -480.35122680664062 0 -555.50921630859375
v -478.87686157226562 0 -557.04571533203125
v -478.891357421875 0 -555.49554443359375
v -480.394775390625 0 -550.8587646484375
v -483.25650024414062 0 -557.08673095703125
v -479.37515258789062 0 -553.08502197265625
v -478.58309936523438 0 -553.07763671875
v -478.93487548828125 0 -550.8450927734375
v -478.92037963867188 0 -552.395263671875
v -483.34356689453125 0 -547.78582763671875
v -483.31454467773438 0 -550.8861083984375
v -478.635009765625 0 -545.0303955078125
v -484.79397583007812 0 -545.13165283203125
v -484.75009155273438 0 -553.13531494140625
v -480.71011352539062 0 -553.0975341796875
v -480.69921875 0 -554.2620849609375
v -484.74371337890625 0 -554.29998779296875
v -484.70394897460938 0 -561.55169677734375
v -480.6312255859375 0 -561.52545166015625
v -480.62039184570312 0 -562.68212890625
v -484.6976318359375 0 -562.7044677734375
v -484.65948486328125 0 -569.66241455078125
v -480.5552978515625 0 -569.635986328125
v -480.54583740234375 0 -570.64691162109375
v -484.65396118164062 0 -570.66943359375
v -484.60995483398438 0 -578.69781494140625
v -480.47073364257812 0 -578.671142578125
v -480.4605712890625 0 -579.75537109375
v -484.60403442382812 0 -579.778076171875
v -484.57086181640625 0 -585.82958984375
v -484.5596923828125 0 -587.02203369140625
v -480.39291381835938 0 -586.9830322265625
v -480.38137817382812 0 -588.21771240234375
v -484.34646606445312 0 -588.25482177734375
v -484.3338623046875 0 -589.6014404296875
v -485.44692993164062 0 -589.61187744140625
v -485.48236083984375 0 -585.82904052734375
v -491.26068115234375 0 -585.82550048828125
v -497.03897094726562 0 -585.822021484375
v -496.98721313476562 0 -588.98797607421875
v -503.37564086914062 0 -591.38134765625
v -506.033447265625 0 -588.9066162109375
v -515.07965087890625 0 -588.8251953125
v -514.59930419921875 0 -595.19793701171875
v -506.21926879882812 0 -595.0751953125
v -497.8392333984375 0 -594.95245361328125
v -497.87405395507812 0 -591.23272705078125
v -496.94775390625 0 -591.22406005859375
v -500.45587158203125 0 -591.35400390625
v -500.47039794921875 0 -589.8038330078125
v -498.99600219726562 0 -591.34033203125
v -499.010498046875 0 -589.7901611328125
v -503.34661865234375 0 -594.48162841796875
v -500.42684936523438 0 -594.45428466796875
v -494.64535522460938 0 -588.19903564453125
v -494.630859375 0 -589.74920654296875
v -496.10525512695312 0 -588.21270751953125
v -496.09072875976562 0 -589.76287841796875
v -494.58734130859375 0 -594.399658203125
v -496.90045166015625 0 -596.275390625
v -491.72390747070312 0 -596.2269287109375
v -486.54736328125 0 -596.178466796875
v -486.53799438476562 0 -597.179443359375
v -491.71453857421875 0 -597.2279052734375
v -496.89108276367188 0 -597.2763671875
v -496.83749389648438 0 -603.0025634765625
v -491.70559692382812 0 -602.95452880859375
v -486.57366943359375 0 -602.906494140625
v -486.56341552734375 0 -604.00250244140625
v -491.6953125 0 -604.050537109375
v -496.82723999023438 0 -604.09857177734375
v -496.78890991210938 0 -608.1917724609375
v -491.61630249023438 0 -608.14337158203125
v -486.44369506835938 0 -608.094970703125
v -486.43267822265625 0 -609.27386474609375
v -491.1875 0 -609.318359375
v -495.94235229492188 0 -609.36285400390625
v -495.9237060546875 0 -613.57696533203125
v -491.17398071289062 0 -613.53253173828125
v -486.42425537109375 0 -613.48809814453125
v -486.41400146484375 0 -614.58233642578125
v -488.54464721679688 0 -616.047119140625
v -491.16644287109375 0 -614.62677001953125
v -495.91885375976562 0 -614.6712646484375
v -495.892822265625 0 -620.558349609375
v -495.86679077148438 0 -626.4454345703125
v -495.83328247070312 0 -634.0194091796875
v -493.46823120117188 0 -633.997314453125
v -493.46807861328125 0 -639.94775390625
v -484.91046142578125 0 -639.86761474609375
v -484.95858764648438 0 -634.7275390625
v -492.06976318359375 0 -634.79412841796875
v -492.07736206054688 0 -633.9842529296875
v -491.26129150390625 0 -637.77655029296875
v -491.27578735351562 0 -636.22637939453125
v -492.72116088867188 0 -637.79022216796875
v -492.73568725585938 0 -636.24005126953125
v -491.31930541992188 0 -631.575927734375
v -494.26809692382812 0 -628.50299072265625
v -494.23907470703125 0 -631.603271484375
v -491.3048095703125 0 -633.1260986328125
v -492.77920532226562 0 -631.589599609375
v -494.22457885742188 0 -633.1534423828125
v -492.76467895507812 0 -633.1397705078125
v -488.42855834960938 0 -628.44830322265625
v -488.39956665039062 0 -631.548583984375
v -484.96615600585938 0 -633.917724609375
v -485.0067138671875 0 -629.58441162109375
v -487.25537109375 0 -629.60546875
v -487.2772216796875 0 -627.2703857421875
v -494.25643920898438 0 -627.335693359375
v -494.26492309570312 0 -626.430419921875
v -492.8082275390625 0 -628.48931884765625
v -486.45648193359375 0 -626.3572998046875
v -486.43276977539062 0 -628.89239501953125
v -485.01333618164062 0 -628.879150390625
v -482.56002807617188 0 -631.49395751953125
v -485.02020263671875 0 -628.14447021484375
v -482.57452392578125 0 -629.94378662109375
v -483.97317504882812 0 -628.13470458984375
v -483.918701171875 0 -633.95599365234375
v -483.86419677734375 0 -639.77734375
v -481.68807983398438 0 -639.7633056640625
v -481.67794799804688 0 -640.84405517578125
v -485.05978393554688 0 -640.87493896484375
v -485.00369262695312 0 -647.01971435546875
v -476.46231079101562 0 -646.9351806640625
v -467.92095947265625 0 -646.8507080078125
v -459.37957763671875 0 -646.7662353515625
v -450.83819580078125 0 -646.6817626953125
v -450.70730590820312 0 -640.432861328125
v -453.9471435546875 0 -640.463134765625
v -453.95809936523438 0 -639.2933349609375
v -452.28713989257812 0 -639.2777099609375
v -452.3323974609375 0 -634.44427490234375
v -451.2501220703125 0 -634.43414306640625
v -451.21224975585938 0 -638.62286376953125
v -442.93701171875 0 -637.0418701171875
v -442.96786499023438 0 -633.74322509765625
v -438.7344970703125 0 -634.184326171875
v -432.9530029296875 0 -627.92901611328125
v -438.8505859375 0 -621.7830810546875
v -442.02081298828125 0 -633.734375
v -438.76351928710938 0 -631.083984375
v -444.60305786132812 0 -631.138671875
v -444.58853149414062 0 -632.68878173828125
v -450.44259643554688 0 -631.19329833984375
v -447.49380493164062 0 -634.26629638671875
v -447.5228271484375 0 -631.166015625
v -441.99154663085938 0 -636.8612060546875
v -435.91891479492188 0 -635.7010498046875
v -435.94503784179688 0 -632.90924072265625
v -435.07083129882812 0 -632.90106201171875
v -432.92398071289062 0 -631.02935791015625
v -437.30361938476562 0 -631.0703125
v -438.74899291992188 0 -632.6341552734375
v -437.27459716796875 0 -634.170654296875
v -437.28912353515625 0 -632.6204833984375
v -432.90948486328125 0 -632.5794677734375
v -434.38388061523438 0 -631.04302978515625
v -434.3548583984375 0 -634.143310546875
v -434.36935424804688 0 -632.5931396484375
v -430.03323364257812 0 -627.9017333984375
v -429.97518920898438 0 -634.102294921875
v -430.00421142578125 0 -631.00201416015625
v -435.04620361328125 0 -635.5343017578125
v -427.9093017578125 0 -634.17083740234375
v -427.78863525390625 0 -626.1944580078125
v -435.13296508789062 0 -626.26324462890625
v -435.08328247070312 0 -631.5733642578125
v -435.95745849609375 0 -631.58160400390625
v -435.98040771484375 0 -629.13018798828125
v -440.01422119140625 0 -629.16790771484375
v -440.0234375 0 -628.1844482421875
v -438.77801513671875 0 -629.53387451171875
v -440.223388671875 0 -631.09765625
v -441.77035522460938 0 -621.8104248046875
v -444.66110229492188 0 -624.93804931640625
v -435.9896240234375 0 -628.146728515625
v -436.00717163085938 0 -626.27142333984375
v -440.04098510742188 0 -626.30914306640625
v -440.05194091796875 0 -625.13677978515625
v -439.19857788085938 0 -625.1287841796875
v -439.20510864257812 0 -624.4310302734375
v -440.31045532226562 0 -621.7967529296875
v -441.75582885742188 0 -623.360595703125
v -440.29595947265625 0 -623.346923828125
v -441.828369140625 0 -615.60980224609375
v -444.7191162109375 0 -618.7374267578125
v -438.20068359375 0 -624.421630859375
v -438.19415283203125 0 -625.119384765625
v -432.943115234375 0 -625.0701904296875
v -432.95956420898438 0 -623.31298828125
v -438.21060180664062 0 -623.36212158203125
v -438.2066650390625 0 -623.7823486328125
v -439.21109008789062 0 -623.791748046875
v -439.22509765625 0 -622.296875
v -438.22064208984375 0 -622.2874755859375
v -438.21835327148438 0 -622.5333251953125
v -438.12063598632812 0 -621.7762451171875
v -438.11700439453125 0 -622.163818359375
v -438.485595703125 0 -621.7796630859375
v -438.84695434570312 0 -622.170654296875
v -438.48196411132812 0 -622.167236328125
v -441.78485107421875 0 -620.26025390625
v -440.32498168945312 0 -620.24658203125
v -440.30319213867188 0 -622.57183837890625
v -439.56600952148438 0 -623.340087890625
v -439.57327270507812 0 -622.56500244140625
v -433.0982666015625 0 -622.48541259765625
v -433.11260986328125 0 -620.951171875
v -438.23272705078125 0 -620.9991455078125
v -438.22756958007812 0 -621.54986572265625
v -439.23199462890625 0 -621.55926513671875
v -439.25714111328125 0 -618.87152099609375
v -440.31497192382812 0 -618.88140869140625
v -440.32513427734375 0 -617.79632568359375
v -439.26730346679688 0 -617.78643798828125
v -439.30987548828125 0 -613.23822021484375
v -440.11575317382812 0 -613.24578857421875
v -441.88641357421875 0 -609.40924072265625
v -433.18515014648438 0 -603.12664794921875
v -441.8428955078125 0 -614.0596923828125
v -440.36849975585938 0 -615.59613037109375
v -440.38299560546875 0 -614.0460205078125
v -436.046875 0 -609.35455322265625
v -440.128173828125 0 -611.91815185546875
v -439.32229614257812 0 -611.91064453125
v -440.42654418945312 0 -609.39556884765625
v -441.87191772460938 0 -610.9593505859375
v -440.41201782226562 0 -610.9456787109375
v -441.9444580078125 0 -603.2086181640625
v -444.835205078125 0 -606.33624267578125
v -441.91543579101562 0 -606.30889892578125
v -439.33975219726562 0 -610.04742431640625
v -438.3353271484375 0 -610.03802490234375
v -438.31787109375 0 -611.9012451171875
v -430.22210693359375 0 -611.825439453125
v -430.2578125 0 -606.1885986328125
v -430.29348754882812 0 -600.55169677734375
v -438.42340087890625 0 -600.6278076171875
v -438.4061279296875 0 -602.4735107421875
v -436.1629638671875 0 -596.953369140625
v -436.10491943359375 0 -603.1539306640625
v -433.30123901367188 0 -590.72540283203125
v -439.41055297851562 0 -602.48291015625
v -442.00250244140625 0 -597.00799560546875
v -439.42782592773438 0 -600.63720703125
v -440.04168701171875 0 -600.6429443359375
v -441.958984375 0 -601.658447265625
v -440.48458862304688 0 -603.1949462890625
v -440.49908447265625 0 -601.644775390625
v -440.05477905273438 0 -599.243896484375
v -439.44091796875 0 -599.2381591796875
v -440.54263305664062 0 -596.99432373046875
v -441.98800659179688 0 -598.55816650390625
v -440.52810668945312 0 -598.54449462890625
v -442.03152465820312 0 -593.90771484375
v -439.4486083984375 0 -598.41796875
v -438.44418334960938 0 -598.4085693359375
v -438.43649291992188 0 -599.228759765625
v -436.14846801757812 0 -598.50347900390625
v -437.62286376953125 0 -596.967041015625
v -437.60833740234375 0 -598.51715087890625
v -436.22100830078125 0 -590.75274658203125
v -436.19198608398438 0 -593.85302734375
v -430.30233764648438 0 -599.15264892578125
v -430.33853149414062 0 -593.43646240234375
v -438.490234375 0 -593.488037109375
v -438.486572265625 0 -593.8797607421875
v -436.20651245117188 0 -592.30291748046875
v -437.68087768554688 0 -590.76641845703125
v -437.65188598632812 0 -593.86669921875
v -437.6663818359375 0 -592.31658935546875
v -433.33026123046875 0 -587.6251220703125
v -436.25003051757812 0 -587.6524658203125
v -442.0460205078125 0 -592.3575439453125
v -440.57162475585938 0 -593.89404296875
v -440.58615112304688 0 -592.3438720703125
v -442.11859130859375 0 -584.6068115234375
v -442.08956909179688 0 -587.70709228515625
v -436.177490234375 0 -595.4031982421875
v -437.63735961914062 0 -595.4168701171875
v -437.64462280273438 0 -594.64178466796875
v -438.3673095703125 0 -595.4237060546875
v -442.01699829101562 0 -595.4578857421875
v -440.55712890625 0 -595.4442138671875
v -439.49099731445312 0 -593.88916015625
v -439.52081298828125 0 -590.70355224609375
v -440.02902221679688 0 -590.708251953125
v -440.62966918945312 0 -587.69342041015625
v -442.07504272460938 0 -589.25726318359375
v -440.61517333984375 0 -589.24359130859375
v -440.03790283203125 0 -589.75738525390625
v -439.52972412109375 0 -589.75262451171875
v -439.53610229492188 0 -589.06890869140625
v -438.53167724609375 0 -589.05950927734375
v -438.49920654296875 0 -592.52899169921875
v -430.33642578125 0 -592.45257568359375
v -430.37957763671875 0 -586.9517822265625
v -438.55068969726562 0 -587.02825927734375
v -438.54202270507812 0 -587.95538330078125
v -437.70989990234375 0 -587.6661376953125
v -436.23550415039062 0 -589.20257568359375
v -437.69540405273438 0 -589.21624755859375
v -439.54644775390625 0 -587.96478271484375
v -439.561767578125 0 -586.32867431640625
v -439.62994384765625 0 -579.043701171875
v -443.74615478515625 0 -579.08221435546875
v -443.72357177734375 0 -581.4937744140625
v -445.04702758789062 0 -581.50616455078125
v -445.06961059570312 0 -579.0946044921875
v -449.41632080078125 0 -579.13531494140625
v -449.42758178710938 0 -577.93096923828125
v -447.9581298828125 0 -584.66143798828125
v -447.98712158203125 0 -581.5611572265625
v -444.53439331054688 0 -577.8851318359375
v -439.6412353515625 0 -577.83935546875
v -438.63681030273438 0 -577.8299560546875
v -437.04974365234375 0 -577.83807373046875
v -437.06454467773438 0 -574.34075927734375
v -442.71453857421875 0 -574.3218994140625
v -450.13027954101562 0 -574.39129638671875
v -450.14181518554688 0 -573.15740966796875
v -442.71142578125 0 -573.08782958984375
v -442.705078125 0 -570.5743408203125
v -443.39028930664062 0 -570.58074951171875
v -443.40444946289062 0 -569.07000732421875
v -442.70126342773438 0 -569.06341552734375
v -443.75259399414062 0 -566.0186767578125
v -445.19796752929688 0 -567.58245849609375
v -443.73806762695312 0 -567.56878662109375
v -442.68988037109375 0 -564.56890869140625
v -447.29428100585938 0 -563.63360595703125
v -451.898681640625 0 -562.6982421875
v -451.88107299804688 0 -564.64898681640625
v -452.985595703125 0 -564.6593017578125
v -453.00607299804688 0 -562.47332763671875
v -453.00588989257812 0 -562.18792724609375
v -455.48968505859375 0 -559.9273681640625
v -455.46066284179688 0 -563.02764892578125
v -453.98626708984375 0 -564.56414794921875
v -453.9427490234375 0 -569.214599609375
v -456.56201171875 0 -562.22119140625
v -456.56939697265625 0 -561.4342041015625
v -453.00537109375 0 -561.3978271484375
v -453.00137329101562 0 -555.16656494140625
v -456.62774658203125 0 -555.2005615234375
v -456.63674926757812 0 -554.2381591796875
v -455.5477294921875 0 -553.72674560546875
v -455.51870727539062 0 -556.82708740234375
v -454.11688232421875 0 -550.61279296875
v -453.00076293945312 0 -554.20111083984375
v -452.99761962890625 0 -549.31121826171875
v -452.99447631835938 0 -544.42132568359375
v -456.72830200195312 0 -544.45623779296875
v -456.73898315429688 0 -543.31591796875
v -452.99374389648438 0 -543.2808837890625
v -452.9893798828125 0 -536.4971923828125
v -456.802490234375 0 -536.53289794921875
v -456.81103515625 0 -535.62030029296875
v -455.72186279296875 0 -535.12493896484375
v -455.69284057617188 0 -538.22528076171875
v -454.29098510742188 0 -532.010986328125
v -452.98880004882812 0 -535.581298828125
v -452.98397827148438 0 -528.1090087890625
v -456.8809814453125 0 -528.1455078125
v -456.89022827148438 0 -527.15966796875
v -455.80889892578125 0 -525.82403564453125
v -455.7799072265625 0 -528.92437744140625
v -452.98333740234375 0 -527.11981201171875
v -452.98269653320312 0 -526.1148681640625
v -453.02572631835938 0 -521.5174560546875
v -452.18765258789062 0 -521.50958251953125
v -451.4727783203125 0 -521.13262939453125
v -454.39254760742188 0 -521.159912109375
v -448.53851318359375 0 -522.6553955078125
v -448.56753540039062 0 -519.55511474609375
v -439.83724975585938 0 -516.372802734375
v -452.14767456054688 0 -525.78082275390625
v -446.66366577148438 0 -523.586669921875
v -446.77291870117188 0 -522.57720947265625
v -445.50372314453125 0 -522.0694580078125
v -439.8082275390625 0 -519.47314453125
v -442.75701904296875 0 -516.400146484375
v -442.72799682617188 0 -519.50048828125
v -445.36956787109375 0 -523.06890869140625
v -437.78421020507812 0 -520.03411865234375
v -437.81619262695312 0 -514.8697509765625
v -446.23944091796875 0 -516.58880615234375
v -445.662841796875 0 -520.88409423828125
v -446.90252685546875 0 -521.38006591796875
v -447.3956298828125 0 -516.82470703125
v -452.2222900390625 0 -517.80975341796875
v -452.19879150390625 0 -520.319580078125
v -453.036865234375 0 -520.32745361328125
v -453.04934692382812 0 -518.9954833984375
v -456.96600341796875 0 -519.06365966796875
v -456.9742431640625 0 -518.18206787109375
v -455.89596557617188 0 -516.52313232421875
v -455.866943359375 0 -519.62347412109375
v -453.05734252929688 0 -518.14208984375
v -453.11904907226562 0 -511.54736328125
v -457.0360107421875 0 -511.58401489257812
v -457.04336547851562 0 -510.79693603515625
v -454.4796142578125 0 -511.85903930664062
v -455.92498779296875 0 -513.4228515625
v -455.93951416015625 0 -511.8726806640625
v -453.12646484375 0 -510.7569580078125
v -453.16323852539062 0 -506.82733154296875
v -457.07794189453125 0 -507.1041259765625
v -457.08798217773438 0 -506.0301513671875
v -453.17355346679688 0 -505.7257080078125
v -453.18548583984375 0 -504.45205688476562
v -452.34793090820312 0 -504.38583374023438
v -452.33599853515625 0 -505.66055297851562
v -449.04913330078125 0 -505.40493774414062
v -449.06109619140625 0 -504.1259765625
v -447.80938720703125 0 -504.02700805664062
v -447.79739379882812 0 -505.30758666992188
v -440.93911743164062 0 -504.77420043945312
v -434.08084106445312 0 -504.24078369140625
v -427.2225341796875 0 -503.7073974609375
v -427.12310791015625 0 -504.98605346679688
v -427.80557250976562 0 -505.0343017578125
v -425.33999633789062 0 -505.3851318359375
v -426.78536987304688 0 -506.94894409179688
v -426.79986572265625 0 -505.3988037109375
v -427.64578247070312 0 -507.2938232421875
v -435.80349731445312 0 -507.83535766601562
v -443.96124267578125 0 -508.37689208984375
v -443.87350463867188 0 -511.62481689453125
v -435.37158203125 0 -511.00625610351562
v -426.86965942382812 0 -510.3876953125
v -426.77139282226562 0 -512.61578369140625
v -431.85525512695312 0 -513.65325927734375
v -436.93911743164062 0 -514.6907958984375
v -436.99093627929688 0 -520.30242919921875
v -436.84140014648438 0 -520.59320068359375
v -433.96868896484375 0 -519.41845703125
v -436.88845825195312 0 -519.44580078125
v -438.34835815429688 0 -519.45947265625
v -435.4285888671875 0 -519.43212890625
v -438.37738037109375 0 -516.35919189453125
v -439.82275390625 0 -517.9229736328125
v -438.36285400390625 0 -517.9093017578125
v -436.15853881835938 0 -519.43896484375
v -436.15127563476562 0 -520.21405029296875
v -433.98321533203125 0 -517.86834716796875
v -435.45761108398438 0 -516.33184814453125
v -435.44308471679688 0 -517.8819580078125
v -431.50259399414062 0 -518.87255859375
v -426.16375732421875 0 -517.1519775390625
v -425.8819580078125 0 -518.02630615234375
v -426.95236206054688 0 -518.3702392578125
v -426.283935546875 0 -520.45068359375
v -427.30203247070312 0 -520.77777099609375
v -427.970458984375 0 -518.6973876953125
v -436.42019653320312 0 -521.4122314453125
v -434.45635986328125 0 -525.230712890625
v -430.72735595703125 0 -523.50091552734375
v -425.99798583984375 0 -521.71484375
v -423.78823852539062 0 -527.07110595703125
v -424.79168701171875 0 -527.48486328125
v -426.5025634765625 0 -523.3358154296875
v -430.12353515625 0 -524.8992919921875
v -426.78561401367188 0 -532.62982177734375
v -423.22515869140625 0 -531.28387451171875
v -424.19534301757812 0 -528.9310302734375
v -423.19168090820312 0 -528.51715087890625
v -421.106689453125 0 -533.57098388671875
v -422.11105346679688 0 -533.98565673828125
v -422.82180786132812 0 -532.26202392578125
v -426.356201171875 0 -533.6243896484375
v -494.31732177734375 0 -620.8343505859375
v -486.41006469726562 0 -620.7603759765625
v -486.3990478515625 0 -621.93701171875
v -491.43539428710938 0 -619.17474365234375
v -488.515625 0 -619.14739990234375
v -494.30630493164062 0 -622.01104736328125
v -494.38418579101562 0 -616.10174560546875
v -494.35516357421875 0 -619.20208740234375
v -495.41830444335938 0 -591.3558349609375
v -486.70925903320312 0 -591.27435302734375
v -486.70098876953125 0 -592.15875244140625
v -495.41000366210938 0 -592.240234375
v -494.60183715820312 0 -592.8494873046875
v -496.04721069335938 0 -594.413330078125
v -496.06170654296875 0 -592.8631591796875
v -484.04556274414062 0 -620.401123046875
v -484.00094604492188 0 -625.1695556640625
v -480.03607177734375 0 -625.10821533203125
v -480.02243041992188 0 -626.56329345703125
v -483.98733520507812 0 -626.6246337890625
v -483.98150634765625 0 -627.24615478515625
v -485.02853393554688 0 -627.2559814453125
v -485.09259033203125 0 -620.41094970703125
v -482.67608642578125 0 -619.09271240234375
v -484.22573852539062 0 -601.15460205078125
v -484.19302368164062 0 -604.64910888671875
v -480.2281494140625 0 -604.58770751953125
v -480.2198486328125 0 -605.47314453125
v -481.361328125 0 -603.57757568359375
v -481.33230590820312 0 -606.6778564453125
v -482.8502197265625 0 -600.49090576171875
v -484.18472290039062 0 -605.53448486328125
v -484.11892700195312 0 -612.566162109375
v -480.15402221679688 0 -612.50482177734375
v -480.14483642578125 0 -613.48681640625
v -481.30328369140625 0 -609.7781982421875
v -482.7486572265625 0 -611.34197998046875
v -481.28875732421875 0 -611.32830810546875
v -482.71963500976562 0 -614.4422607421875
v -481.2452392578125 0 -615.978759765625
v -481.25973510742188 0 -614.42864990234375
v -484.10971069335938 0 -613.54815673828125
v -484.05789184570312 0 -619.08673095703125
v -485.10488891601562 0 -619.09649658203125
v -485.18881225585938 0 -610.13043212890625
v -485.27273559570312 0 -601.16436767578125
v -484.32171630859375 0 -590.90057373046875
v -484.27883911132812 0 -595.482177734375
v -480.31393432617188 0 -595.4207763671875
v -480.303955078125 0 -596.48907470703125
v -484.26882934570312 0 -596.5504150390625
v -484.23855590820312 0 -599.784423828125
v -485.28558349609375 0 -599.794189453125
v -485.33270263671875 0 -594.759521484375
v -491.78338623046875 0 -594.81988525390625
v -491.79229736328125 0 -593.869384765625
v -493.12744140625 0 -594.385986328125
v -494.57281494140625 0 -595.9498291015625
v -493.11294555664062 0 -595.9361572265625
v -493.1419677734375 0 -592.8358154296875
v -485.40765380859375 0 -593.8095703125
v -485.43478393554688 0 -590.9110107421875
v -449.15863037109375 0 -622.57415771484375
v -443.61355590820312 0 -622.522216796875
v -443.61688232421875 0 -622.1666259765625
v -447.60986328125 0 -621.8651123046875
v -444.70462036132812 0 -620.28759765625
v -450.55865478515625 0 -618.7921142578125
v -447.63888549804688 0 -618.7647705078125
v -446.14999389648438 0 -621.8514404296875
v -442.68258666992188 0 -622.15789794921875
v -442.66793823242188 0 -623.72174072265625
v -443.60223388671875 0 -623.73046875
v -443.60635375976562 0 -623.28936767578125
v -444.6683349609375 0 -624.1629638671875
v -443.93841552734375 0 -624.1561279296875
v -449.15142822265625 0 -623.34124755859375
v -449.06976318359375 0 -621.87872314453125
v -441.63345336914062 0 -613.25994873046875
v -448.48126220703125 0 -613.3240966796875
v -448.4395751953125 0 -617.7774658203125
v -451.40045166015625 0 -617.80517578125
v -451.35714721679688 0 -622.5947265625
v -450.1942138671875 0 -622.58380126953125
v -450.18704223632812 0 -623.3509521484375
v -451.3502197265625 0 -623.36181640625
v -451.34408569335938 0 -624.03955078125
v -453.5074462890625 0 -615.7191162109375
v -456.398193359375 0 -618.8468017578125
v -453.47842407226562 0 -618.8194580078125
v -452.4296875 0 -624.04974365234375
v -452.50674438476562 0 -615.81622314453125
v -451.41854858398438 0 -615.8060302734375
v -451.41006469726562 0 -616.7430419921875
v -453.49295043945312 0 -617.269287109375
v -453.56549072265625 0 -609.5185546875
v -456.45623779296875 0 -612.64617919921875
v -453.53646850585938 0 -612.61883544921875
v -449.50103759765625 0 -616.72515869140625
v -449.53280639648438 0 -613.33392333984375
v -451.44073486328125 0 -613.351806640625
v -447.7259521484375 0 -609.4638671875
v -451.43084716796875 0 -614.44384765625
v -452.51950073242188 0 -614.45404052734375
v -452.58978271484375 0 -606.9471435546875
v -451.49871826171875 0 -606.93695068359375
v -450.67474365234375 0 -606.39093017578125
v -453.59451293945312 0 -606.418212890625
v -451.45272827148438 0 -612.024169921875
v -446.54931640625 0 -611.978271484375
v -441.6458740234375 0 -611.932373046875
v -439.39724731445312 0 -603.90350341796875
v -438.392822265625 0 -603.89410400390625
v -433.1561279296875 0 -606.2269287109375
v -436.07589721679688 0 -606.2542724609375
v -438.34860229492188 0 -608.617431640625
v -439.35305786132812 0 -608.6268310546875
v -438.47906494140625 0 -594.68109130859375
v -438.45394897460938 0 -597.3643798828125
v -439.4583740234375 0 -597.373779296875
v -439.48348999023438 0 -594.69049072265625
v -450.3251953125 0 -569.13482666015625
v -444.472900390625 0 -569.08001708984375
v -444.45877075195312 0 -570.59075927734375
v -450.31103515625 0 -570.6455078125
v -446.55722045898438 0 -589.16900634765625
v -446.55111694335938 0 -589.818359375
v -450.848876953125 0 -587.7890625
v -447.842041015625 0 -597.06268310546875
v -447.87106323242188 0 -593.96234130859375
v -440.96221923828125 0 -589.76605224609375
v -440.95330810546875 0 -590.7169189453125
v -444.46923828125 0 -590.74981689453125
v -444.41201782226562 0 -596.86358642578125
v -446.26968383789062 0 -596.8809814453125
v -446.32693481445312 0 -590.7672119140625
v -449.09603881835938 0 -590.79315185546875
v -449.10491943359375 0 -589.84228515625
v -449.38897705078125 0 -587.77545166015625
v -450.8343505859375 0 -589.3392333984375
v -449.37448120117188 0 -589.3255615234375
v -453.76861572265625 0 -587.81640625
v -447.86505126953125 0 -589.8306884765625
v -447.87112426757812 0 -589.1812744140625
v -443.677978515625 0 -586.36724853515625
v -440.88787841796875 0 -586.34112548828125
v -440.87924194335938 0 -587.26385498046875
v -440.65869140625 0 -584.5931396484375
v -442.10406494140625 0 -586.15692138671875
v -446.57455444335938 0 -587.317138671875
v -446.56658935546875 0 -588.16583251953125
v -446.49822998046875 0 -584.64776611328125
v -447.943603515625 0 -586.21160888671875
v -446.48373413085938 0 -586.19793701171875
v -447.88052368164062 0 -588.17816162109375
v -447.88845825195312 0 -587.3294677734375
v -449.12835693359375 0 -587.341064453125
v -449.13699340820312 0 -586.4183349609375
v -449.41799926757812 0 -584.67510986328125
v -445.00140380859375 0 -586.379638671875
v -445.02316284179688 0 -584.055908203125
v -443.69970703125 0 -584.04351806640625
v -441.39816284179688 0 -626.32183837890625
v -449.12286376953125 0 -626.3941650390625
v -449.13385009765625 0 -625.22174072265625
v -443.58877563476562 0 -625.16986083984375
v -443.59402465820312 0 -624.60858154296875
v -442.65972900390625 0 -624.59979248046875
v -442.65444946289062 0 -625.1611328125
v -441.40914916992188 0 -625.14947509765625
v -451.5828857421875 0 -597.62713623046875
v -451.56729125976562 0 -599.3516845703125
v -446.24703979492188 0 -599.3018798828125
v -446.2554931640625 0 -598.398681640625
v -447.78399658203125 0 -603.26324462890625
v -444.3978271484375 0 -598.38128662109375
v -444.38937377929688 0 -599.28448486328125
v -443.46237182617188 0 -597.02166748046875
v -443.4478759765625 0 -598.57183837890625
v -441.17181396484375 0 -599.25439453125
v -441.15872192382812 0 -600.6534423828125
v -446.356689453125 0 -600.70208740234375
v -451.55465698242188 0 -600.750732421875
v -451.51278686523438 0 -605.38336181640625
v -452.60430908203125 0 -605.3935546875
v -452.64767456054688 0 -600.760986328125
v -456.20095825195312 0 -600.79425048828125
v -456.21218872070312 0 -599.59405517578125
v -452.65890502929688 0 -599.560791015625
v -452.67691040039062 0 -597.63739013671875
v -451.61428833007812 0 -594.15460205078125
v -451.59539794921875 0 -596.24298095703125
v -452.68988037109375 0 -596.25323486328125
v -452.70941162109375 0 -594.16485595703125
v -451.6593017578125 0 -589.1768798828125
v -451.653076171875 0 -589.86614990234375
v -450.45587158203125 0 -589.85491943359375
v -450.44696044921875 0 -590.8057861328125
v -451.64447021484375 0 -590.8170166015625
v -451.6265869140625 0 -592.79473876953125
v -452.72213745117188 0 -592.80499267578125
v -452.7257080078125 0 -592.42413330078125
v -452.25070190429688 0 -594.00335693359375
v -452.25796508789062 0 -593.228271484375
v -453.71783447265625 0 -593.241943359375
v -452.9879150390625 0 -593.235107421875
v -455.17047119140625 0 -594.03070068359375
v -450.77630615234375 0 -595.53985595703125
v -453.69607543945312 0 -595.56719970703125
v -456.27899169921875 0 -592.45733642578125
v -456.28994750976562 0 -591.28692626953125
v -452.73666381835938 0 -591.253662109375
v -452.75601196289062 0 -589.1871337890625
v -452.79296875 0 -585.239013671875
v -451.69500732421875 0 -585.228759765625
v -451.68402099609375 0 -586.442138671875
v -450.4879150390625 0 -586.43096923828125
v -450.47927856445312 0 -587.35369873046875
v -451.67568969726562 0 -587.36492919921875
v -451.66958618164062 0 -588.0377197265625
v -453.78314208984375 0 -586.26629638671875
v -452.76666259765625 0 -588.0479736328125
v -452.867919921875 0 -577.233154296875
v -451.76736450195312 0 -577.22283935546875
v -451.70751953125 0 -583.842041015625
v -452.80593872070312 0 -583.85235595703125
v -452.80950927734375 0 -583.47247314453125
v -450.89239501953125 0 -583.13861083984375
v -453.80490112304688 0 -583.9410400390625
v -453.06771850585938 0 -584.70928955078125
v -453.074951171875 0 -583.9342041015625
v -455.28656005859375 0 -581.62945556640625
v -455.25753784179688 0 -584.72979736328125
v -456.36279296875 0 -583.5057373046875
v -456.37429809570312 0 -582.276611328125
v -452.82101440429688 0 -582.24334716796875
v -452.8778076171875 0 -576.17681884765625
v -452.88528442382812 0 -575.3779296875
v -456.43856811523438 0 -575.41119384765625
v -456.44879150390625 0 -574.31707763671875
v -452.8955078125 0 -574.2838134765625
v -452.97390747070312 0 -565.9083251953125
v -451.8697509765625 0 -565.89794921875
v -451.80398559570312 0 -573.17291259765625
v -451.25885009765625 0 -573.1678466796875
v -451.247314453125 0 -574.4017333984375
v -451.7928466796875 0 -574.4068603515625
v -451.77691650390625 0 -576.16650390625
v -418.56280517578125 0 -537.0396728515625
v -417.2489013671875 0 -536.5560302734375
v -416.89263916015625 0 -537.5380859375
v -418.2208251953125 0 -537.98052978515625
v -416.261474609375 0 -539.40643310546875
v -417.70684814453125 0 -540.97027587890625
v -417.72134399414062 0 -539.42010498046875
v -421.21939086914062 0 -530.654541015625
v -419.78262329101562 0 -530.09173583984375
v -419.52325439453125 0 -530.75384521484375
v -422.18804931640625 0 -530.16021728515625
v -420.72817993164062 0 -530.14654541015625
v -420.96002197265625 0 -531.316650390625
v -423.9720458984375 0 -524.05596923828125
v -422.234375 0 -523.33966064453125
v -421.91036987304688 0 -524.12567138671875
v -423.64804077148438 0 -524.84197998046875
v -441.28012084960938 0 -617.8052978515625
v -441.26995849609375 0 -618.890380859375
v -442.71304321289062 0 -618.90386962890625
v -442.6939697265625 0 -620.94012451171875
v -443.62826538085938 0 -620.9488525390625
v -443.65838623046875 0 -617.73272705078125
v -447.65093994140625 0 -617.77008056640625
v -447.66085815429688 0 -616.70794677734375
v -442.7340087890625 0 -616.66180419921875
v -442.72317504882812 0 -617.81878662109375
v -451.29678344726562 0 -629.27349853515625
v -451.26266479492188 0 -633.04742431640625
v -452.34536743164062 0 -633.05755615234375
v -453.36233520507812 0 -631.22064208984375
v -452.40744018554688 0 -626.4249267578125
v -455.96075439453125 0 -626.45819091796875
v -455.97128295898438 0 -625.3330078125
v -452.41796875 0 -625.2998046875
v -452.4232177734375 0 -624.7396240234375
v -451.33786010742188 0 -624.7294921875
v -451.33322143554688 0 -625.24237060546875
v -450.16943359375 0 -625.2314453125
v -450.15847778320312 0 -626.40386962890625
v -451.3226318359375 0 -626.41473388671875
v -451.3056640625 0 -628.2900390625
v -443.0196533203125 0 -628.2125244140625
v -443.026123046875 0 -627.520263671875
v -442.07907104492188 0 -627.51141357421875
v -442.07260131835938 0 -628.20361328125
v -441.380615234375 0 -628.1971435546875
v -441.37142944335938 0 -629.18060302734375
v -442.06338500976562 0 -629.18707275390625
v -442.03802490234375 0 -631.895263671875
v -442.98507690429688 0 -631.90411376953125
v -443.01043701171875 0 -629.19598388671875
f 463 465 464 462
f 481 467 468 470
f 470 466 289 481
f 466 470 472 469
f 470 468 471 472
f 297 849 850 846
f 423 425 426 424
f 420 418 417 419
f 417 409 421 422
f 902 855 427 899
f 855 857 856 427
f 899 427 900 901
f 1 286 287 285
f 473 289 466 474
f 487 485 299
f 288 296 487
f 299 288 487
f 299 485 286 1
f 3 878 880 311
f 878 308 879 880
f 883 881 309 882
f 307 883 882 294
f 298 450 847
f 450 297 846 847
f 882 309 866
f 302 294 882
f 866 302 882
f 302 866 295 2
f 4 326 873 316
f 871 306 316
f 873 318 871
f 316 873 871
f 872 319 308 878
f 878 3 312 872
f 317 325 327 324
f 6 353 354 345
f 340 347 335 5
f 364 357 346
f 8 378 379 372
f 362 373 363 7
f 339 338 5
f 334 332 317 333
f 350 345 351 352
f 340 343 344
f 377 376 372
f 371 369 362 370
f 12 250 251 249
f 255 257 256 238
f 14 218 219
f 170 186 187
f 191 193 192 16
f 127 143 144
f 147 149 148 19
f 276 9 277 278
f 269 264 267 1121
f 1121 267 9 276
f 517 515 266 516
f 514 513 517
f 516 20 514
f 517 516 514
f 938 11 939 940
f 940 939 259 930
f 937 930 259
f 931 932 937
f 259 931 937
f 932 931 10 268
f 920 908 911
f 910 265 920
f 911 910 920
f 912 21 909
f 909 557 911
f 911 908 912
f 912 909 911
f 252 238 258 950
f 950 258 11 938
f 601 1017 949 944
f 601 242 1017
f 1017 244 949
f 949 243 944
f 944 22 601
f 994 683 995 996
f 995 683 1001
f 981 970 982 983
f 1063 231 1075
f 1075 13 228
f 228 984 1063
f 1063 1075 228
f 1048 1047 241
f 1045 1046 1048
f 1051 241 1049
f 1049 237 12
f 12 240 1051
f 1051 1049 12
f 1050 229 971
f 972 239 1050
f 971 972 1050
f 1074 232 221
f 216 227 1074
f 221 216 1074
f 1073 1071 231 1072
f 1070 217 1001
f 1001 683 684
f 684 230 1070
f 1070 1001 684
f 710 210 709
f 709 208 199
f 199 209 710
f 710 709 199
f 209 199 222 711
f 711 222 14 220
f 188 16 194 720
f 718 200 720
f 194 185 718
f 720 194 718
f 719 198 15 708
f 708 201 202 719
f 731 177 170
f 179 180 731
f 170 179 731
f 737 172 162
f 18 168 737
f 162 18 737
f 738 160 169
f 732 171 738
f 169 732 738
f 730 178 732
f 169 17 730
f 732 169 730
f 774 776 775 154
f 775 150 137 768
f 768 153 154 775
f 744 163 769
f 769 159 18
f 18 162 744
f 744 769 18
f 743 138 745
f 746 161 743
f 745 746 743
f 136 135 133
f 127 134 136
f 133 127 136
f 568 570 572 569
f 570 510 571 572
f 553 575 577
f 577 575 555 576
f 575 553 545
f 554 555 575
f 545 554 575
f 918 917 546
f 544 512 543
f 523 512 524 526
f 526 524 508 525
f 522 528 530 527
f 527 530 529 23
f 597 589 598 599
f 593 591 556 592
f 574 573 545 553
f 611 631 632 630
f 623 615 624 625
f 615 1020 1021 624
f 620 618 600 619
f 600 242 601 602
f 602 601 22 589
f 590 612 957 956
f 956 957 594 24
f 644 671 673 672
f 672 673 640 633
f 672 633 613
f 643 644 672
f 613 643 672
f 990 648 991
f 659 649 660 661
f 647 645 626 646
f 646 626 654 655
f 655 654 615 623
f 633 640 642 639
f 652 651 650
f 634 641 652
f 650 634 652
f 653 651 652
f 650 651 631 611
f 698 203 699 700
f 813 747 753
f 754 752 813
f 753 754 813
f 77 818 819 817
f 817 819 811 808
f 812 747 813 814
f 814 813 752 810
f 816 815 809
f 531 509 522 533
f 527 23 532
f 533 522 527
f 532 533 527
f 25 39 40 35
f 97 91 26
f 92 93 97
f 26 92 97
f 91 97 99 96
f 97 93 98 99
f 794 796 795 119
f 118 119 92 26
f 29 49 50
f 47 31 34 48
f 36 35 37 38
f 44 38 45 46
f 41 43 42 32
f 1097 41 32 1096
f 1095 1097 1096 29
f 73 72 74 76
f 76 74 33 75
f 71 79 80 78
f 75 33 1101 1102
f 62 31 47
f 107 91 96 108
f 104 106 105 102
f 100 102 101 87
f 457 464 465
f 465 456 457
f 464 457 462
f 455 471 468
f 471 456 472
f 456 461 472
f 456 471 455
f 460 456 465
f 454 455 468
f 456 460 461
f 465 463 460
f 461 475 469
f 459 460 463
f 474 466 469
f 477 474 476
f 477 473 474
f 462 459 463
f 461 469 472
f 479 454 467
f 468 467 454
f 454 479 480
f 479 481 289
f 479 467 481
f 848 454 480
f 849 453 850
f 843 850 453
f 848 843 453
f 843 846 850
f 848 453 454
f 452 453 849
f 289 473 478
f 478 473 477
f 480 482 845 848
f 843 844 846
f 451 297 450
f 479 289 478
f 451 849 297
f 483 486 864
f 462 457 458
f 492 493 494
f 462 458 459
f 474 475 476
f 469 475 474
f 489 490 287 286
f 483 484 486
f 490 491 287
f 284 491 492
f 492 283 284
f 287 284 285
f 283 492 494
f 287 491 284
f 489 286 485
f 487 488 485
f 485 488 489
f 283 494 495
f 488 864 486
f 864 488 863
f 296 863 488
f 482 864 845
f 844 847 846
f 865 844 845
f 847 886 298
f 865 886 844
f 885 886 865 858
f 865 845 864
f 844 886 847
f 483 864 482
f 862 296 861
f 296 288 861
f 296 862 863
f 860 295 859
f 866 885 858
f 858 295 866
f 885 866 309
f 885 309 884
f 858 859 295
f 488 487 296
f 884 309 881
f 449 450 298
f 446 447 445
f 452 849 451
f 438 439 440
f 435 433 434
f 445 447 444
f 441 438 440
f 447 448 444
f 437 438 441
f 433 435 432
f 428 429 901 900
f 432 435 436
f 429 430 896 897
f 856 428 900
f 412 413 410
f 414 421 413
f 421 414 422
f 421 409 413
f 854 416 857
f 422 414 419
f 416 856 857
f 851 416 854
f 428 856 416
f 409 410 413
f 900 427 856
f 898 899 897
f 901 897 899
f 901 429 897
f 902 853 854
f 855 854 857
f 853 902 898
f 902 899 898
f 854 855 902
f 451 450 449
f 449 298 448
f 448 443 444
f 308 875 879
f 887 298 886
f 298 887 448
f 887 442 443
f 442 887 437
f 870 874 319
f 887 443 448
f 877 884 881
f 437 441 442
f 877 881 883
f 876 879 875
f 308 319 874
f 306 870 312
f 872 870 319
f 870 872 312
f 880 879 876
f 308 874 875
f 869 871 318
f 895 432 436
f 437 888 436
f 436 888 895
f 887 888 437
f 432 895 431
f 898 903 853
f 896 430 431
f 852 853 904
f 896 431 895
f 853 903 904
f 895 888 867 894
f 873 867 318
f 868 318 867
f 894 867 873
f 893 894 873 326
f 326 892 893
f 889 890 327 325
f 890 891 327
f 869 318 868
f 871 869 306
f 406 424 852
f 284 290 285
f 282 495 281
f 496 281 495
f 291 1 285
f 291 288 299
f 1 291 299
f 291 285 290
f 495 282 283
f 281 496 280
f 497 280 496
f 280 497 279
f 277 272 273
f 272 277 9
f 272 9 267
f 274 277 273
f 275 279 497
f 267 264 272
f 861 288 860
f 288 293 300
f 288 300 2
f 288 292 293
f 288 291 292
f 2 303 302
f 303 294 302
f 300 301 2
f 2 301 303
f 2 860 288
f 263 270 264
f 271 264 270
f 304 294 303
f 261 10 931
f 264 10 263
f 10 261 262
f 262 263 10
f 259 261 931
f 1123 1124 264
f 271 272 264
f 501 274 275
f 274 501 278 277
f 502 278 501
f 275 500 501
f 498 500 275
f 1120 1121 276
f 1121 1120 1122
f 264 269 1122 1123
f 276 278 503
f 10 264 1124
f 502 503 278
f 266 504 505
f 276 503 266
f 517 1142 1118
f 1118 1119 515
f 1122 269 1121
f 276 266 1119 1120
f 266 503 504
f 1124 933 268
f 1124 1125 1126
f 946 930 934
f 930 937 934
f 933 934 932 268
f 259 939 261
f 1124 1126 933
f 268 10 1124
f 1126 1127 929 933
f 1129 929 1127
f 265 910 925
f 934 937 932
f 929 927 928
f 935 946 934
f 1128 1129 1127
f 1132 1130 1131
f 275 497 498
f 930 946 940
f 876 311 880
f 311 307 310
f 876 877 307
f 310 307 305
f 877 883 307
f 876 307 311
f 311 313 3
f 315 320 306
f 315 306 312
f 314 312 3
f 311 310 313
f 307 304 305
f 313 314 3
f 306 869 870
f 256 254 260
f 306 321 316
f 315 312 314
f 320 321 306
f 304 307 294
f 892 326 4
f 323 328 4
f 4 322 323
f 322 4 316
f 892 4 891
f 327 891 324
f 324 891 4
f 324 4 328
f 324 328 329
f 329 333 324
f 316 321 322
f 250 246 247
f 254 257 253
f 251 247 248
f 250 237 246
f 245 246 237
f 250 247 251
f 248 249 251
f 254 256 257
f 258 256 260
f 11 258 260
f 238 252 255
f 258 238 256
f 249 1029 1030
f 255 253 257
f 249 248 253
f 1029 249 255
f 1030 240 249
f 252 1029 255
f 939 11 260
f 938 940 946
f 1027 950 947
f 938 947 950
f 938 946 947
f 950 1027 252
f 1032 229 240
f 1030 1031 240
f 1028 1029 252
f 947 948 1026 1027
f 261 939 260
f 1031 1032 240
f 1053 237 1052
f 1035 1051 240
f 240 12 249
f 237 1053 228
f 245 237 236
f 1044 1052 1047
f 1052 1049 1047
f 1049 241 1047
f 1052 237 1049
f 228 235 236
f 241 1051 1036
f 237 250 12
f 241 1036 1048
f 1035 1036 1051
f 1036 1033 1045
f 1045 1048 1036
f 1047 1043 1044
f 1046 1043 1048
f 1043 1047 1048
f 1033 1046 1045
f 1032 1013 229
f 228 236 237
f 255 249 253
f 1042 1043 1046
f 295 860 2
f 1054 1055 1053
f 409 418 410
f 415 419 414
f 419 417 422
f 415 420 419
f 411 412 410
f 418 408 410
f 415 408 420
f 418 420 408
f 408 415 416
f 418 409 417
f 851 424 426
f 852 904 404
f 403 889 325
f 404 904 889
f 851 426 416
f 406 852 404
f 403 401 402
f 852 424 851
f 404 889 403
f 408 426 425
f 401 403 325
f 408 416 426
f 423 407 425
f 423 424 406
f 347 397 398
f 423 406 407
f 406 404 405
f 399 335 398
f 408 425 407
f 396 397 347
f 399 400 5 335
f 400 401 331 336
f 340 396 347
f 353 393 354
f 354 393 394
f 392 353 6
f 393 353 392
f 395 354 394
f 335 347 398
f 401 325 332
f 401 332 331
f 330 334 333
f 333 317 324
f 331 332 334
f 340 342 396
f 340 5 338 343
f 336 5 400
f 336 339 5
f 330 331 334
f 337 338 339
f 336 337 339
f 343 338 341
f 13 227 226 233
f 338 337 341
f 225 216 224
f 233 234 13
f 330 333 329
f 395 396 348
f 396 342 348
f 349 352 348
f 342 340 344
f 351 395 348
f 351 345 354
f 355 356 6
f 6 345 350
f 392 6 356
f 352 351 348
f 344 341 342
f 351 354 395
f 350 352 349
f 341 344 343
f 213 214 218
f 349 355 350
f 214 215 219
f 222 213 218
f 214 219 218
f 6 350 355
f 358 392 356
f 219 215 14
f 317 332 325
f 357 389 390
f 391 357 390
f 388 364 346
f 364 389 357
f 389 364 388
f 363 386 387
f 373 386 363
f 346 357 391
f 359 346 358
f 391 358 346
f 346 359 360
f 391 392 358
f 361 346 360
f 363 387 7
f 365 7 387
f 388 365 387
f 7 365 366
f 388 361 365
f 370 7 366
f 346 361 388
f 384 385 373
f 386 373 385
f 384 368 374 383
f 384 373 369
f 378 381 382
f 382 383 372 379
f 382 379 378
f 8 381 378
f 362 369 373
f 369 371 368 384
f 370 367 371
f 376 8 372
f 374 375 377
f 377 375 376
f 377 372 383
f 383 374 377
f 380 8 376
f 371 367 368
f 370 362 7
f 380 381 8
f 16 192 195
f 370 366 367
f 190 195 192
f 376 375 380
f 183 186 182
f 211 212 208
f 212 213 199
f 194 195 196
f 192 193 190
f 193 189 190
f 184 187 183
f 177 182 186
f 187 186 183
f 205 206 198
f 166 18 165
f 150 155 156
f 141 143 140
f 151 149 146
f 164 165 159
f 150 156 157
f 157 158 137
f 158 164 159
f 152 148 151
f 148 149 151
f 142 144 141
f 133 140 143
f 144 143 141
f 145 146 149
f 175 169 174
f 144 142 127
f 187 184 170
f 226 227 225
f 1076 1077 227
f 224 216 223
f 13 1076 227
f 227 216 225
f 218 14 222
f 1082 14 215
f 222 199 213
f 208 212 199
f 1081 223 216
f 228 13 234
f 1074 227 1077
f 1071 1069 1076
f 13 1075 1076
f 1076 1075 1071
f 1082 223 1081
f 220 14 1082 1083
f 221 1081 216
f 712 208 709
f 709 210 707
f 228 1053 984
f 712 713 208
f 204 205 198
f 206 207 15
f 15 198 206
f 207 208 15
f 185 204 198
f 195 194 16
f 196 197 185
f 185 194 196
f 197 204 185
f 193 191 724 189
f 716 717 185
f 15 713 708
f 712 709 707
f 198 719 716
f 188 724 191
f 715 716 719 202
f 191 16 188
f 717 718 185
f 185 198 716
f 15 208 713
f 211 208 207
f 189 724 725 184
f 223 1082 215
f 1056 1072 231
f 1068 1073 1072
f 1056 231 1063
f 1063 984 1064
f 1077 1078 1074
f 1073 1069 1071
f 1079 1081 221
f 1063 1064 1056
f 1075 231 1071
f 1072 1067 1068
f 1074 1078 232
f 1068 1069 1073
f 1065 1079 221
f 1081 1079 1080
f 1065 1066 1079
f 1065 221 1078
f 1057 1072 1056
f 1064 984 1055
f 711 220 1083
f 1084 209 711
f 210 710 705 706
f 710 209 1084 705
f 714 202 201
f 721 720 200
f 722 188 720
f 721 718 717
f 708 713 714
f 210 706 707
f 721 200 718
f 722 723 188
f 964 1086 967
f 1084 1085 704 705
f 722 720 721
f 202 714 715
f 714 201 708
f 1084 711 1083
f 724 188 723
f 1037 1064 1055
f 235 228 234
f 17 176 181
f 182 177 181
f 170 177 186
f 177 17 181
f 160 167 173
f 160 174 169
f 169 176 17
f 160 173 174
f 728 729 17
f 176 169 175
f 177 728 17
f 728 177 731
f 728 731 180
f 179 170 725 726
f 729 730 17
f 168 160 735 736
f 738 735 160
f 738 171 735
f 180 727 728
f 184 725 170
f 167 160 168
f 159 165 18
f 137 150 157
f 158 159 137
f 766 159 769
f 767 159 766
f 19 148 152
f 145 149 147
f 155 19 152
f 155 150 19
f 773 147 19
f 773 19 772
f 779 145 147
f 18 166 168
f 150 776 772
f 163 766 769
f 772 776 774
f 767 768 137
f 150 772 19
f 127 133 143
f 780 142 779
f 147 773 777
f 780 127 142
f 779 147 778
f 780 134 127
f 159 767 137
f 737 168 736
f 142 145 779
f 171 734 735
f 166 167 168
f 727 180 179
f 733 732 178
f 178 730 729
f 162 172 740 741
f 741 744 162
f 172 737 736
f 171 732 734
f 729 733 178
f 733 734 732
f 736 739 172
f 740 172 739
f 163 744 764
f 764 744 741
f 138 742 748
f 742 764 741
f 765 163 764
f 726 727 179
f 163 765 766
f 770 154 153
f 132 136 134
f 132 135 136
f 772 774 771
f 774 154 771
f 150 775 776
f 767 770 153
f 778 147 777
f 781 782 134
f 132 782 783 131
f 132 139 135
f 134 780 781
f 782 132 134
f 771 154 770
f 767 153 768
f 133 135 139
f 140 133 139
f 1053 1055 984
f 266 515 1119
f 516 266 505
f 515 517 1118
f 1129 1130 1006 1007
f 1130 1132 1006
f 927 1129 1007 919
f 506 516 505
f 929 1129 927
f 514 1141 513
f 506 20 516
f 1006 1132 1133
f 546 1009 918
f 915 917 918
f 513 1142 517
f 546 917 1007
f 514 20 507 1141
f 1134 1005 1006
f 917 919 1007
f 925 926 265
f 919 926 927
f 926 919 905
f 908 920 905
f 920 926 905
f 910 923 924
f 925 910 924
f 920 265 926
f 935 936 941
f 919 917 916
f 21 1112 909
f 905 912 908
f 1115 923 1114
f 911 1114 923
f 1113 1114 911 557
f 923 910 911
f 923 1115 922
f 557 909 1112
f 906 912 905
f 1008 1009 546
f 498 499 500
f 507 511 1141
f 1141 511 1140
f 1141 1142 513
f 1133 1134 1006
f 1007 1008 546
f 511 544 1140
f 1138 1139 1140
f 508 511 518
f 1140 544 1138
f 1137 1135 1136
f 1137 1005 1135
f 1005 550 1012
f 555 554 1012 550
f 1135 1005 1134
f 1005 1137 542 549
f 1010 1011 1012
f 916 917 915
f 1009 915 918
f 915 1010 914
f 1010 915 1009
f 907 21 906
f 21 907 545
f 557 1112 1113
f 545 907 913
f 1112 21 545
f 913 914 554 545
f 906 21 912
f 1111 1112 545
f 554 1010 1012
f 573 1111 545
f 573 574 584 1109
f 592 556 1108 585
f 573 1109 1110
f 573 1110 1111
f 554 914 1010
f 1137 1138 541 542
f 506 507 20
f 1117 1108 1116
f 935 945 946
f 942 943 945
f 243 948 951
f 252 1027 1028
f 971 1014 1015
f 948 949 1026
f 1025 1026 244
f 935 941 945
f 944 243 951 952
f 945 941 942
f 244 1017 1024 1025
f 244 1026 949
f 229 1014 971
f 1014 229 1013
f 229 1034 1035
f 243 949 948
f 240 229 1035
f 1050 1033 1034
f 1033 1050 239
f 1034 229 1050
f 1042 1033 239
f 1040 1041 1042
f 1037 1038 982
f 1038 1039 982
f 1037 982 1062
f 1062 1064 1037
f 239 1040 1042
f 1039 1040 979
f 979 1040 239
f 972 979 239
f 972 978 979
f 982 1039 983
f 980 983 1039
f 986 980 985
f 979 980 1039
f 983 980 986
f 971 977 972
f 986 997 981 983
f 591 921 922
f 922 1115 591
f 1116 556 591
f 591 593 588 921
f 556 1116 1108
f 598 22 952
f 971 1015 1016
f 1024 618 1023
f 618 1024 242
f 242 1024 1017
f 22 598 589
f 595 953 921
f 952 953 598
f 589 597 602
f 618 620 1023
f 617 1022 1023
f 602 619 600
f 242 600 618
f 953 599 598
f 624 1021 1022
f 971 1020 977
f 977 1020 976
f 1020 971 1016 1018
f 972 977 978
f 997 986 968 993
f 660 968 969
f 645 974 975
f 976 626 975
f 654 976 1020
f 1019 1022 1021
f 654 1020 615
f 626 976 654
f 975 626 645
f 993 968 660 649
f 1021 1020 1018
f 1018 1019 1021
f 1022 625 624
f 944 952 22
f 591 1115 1116
f 1108 1109 584 585
f 543 540 541
f 542 547 549
f 549 550 1005
f 564 576 555
f 551 552 550
f 552 555 550
f 543 541 544
f 524 512 544
f 548 549 547
f 523 543 512
f 555 552 564
f 563 564 552
f 559 560 558
f 552 558 563
f 564 565 576
f 524 544 511
f 524 511 508
f 553 582 574
f 553 577 565
f 565 577 576
f 583 584 574
f 587 588 593
f 587 593 592
f 592 585 586
f 921 588 595
f 510 553 565
f 510 582 553
f 566 572 571
f 587 592 586
f 570 581 510
f 510 581 582
f 582 583 574
f 569 572 566
f 571 510 565
f 565 566 571
f 519 520 525
f 508 519 525
f 534 529 521
f 540 543 523
f 539 523 526
f 523 539 540
f 520 538 539
f 520 539 526
f 520 526 525
f 521 538 520
f 23 529 534
f 533 532 535
f 534 532 23
f 534 535 532
f 530 528 538 521
f 537 528 509
f 522 509 528
f 538 528 537
f 533 535 536
f 529 530 521
f 578 569 567
f 568 579 580
f 581 570 568
f 569 578 568
f 580 581 568
f 561 563 558
f 569 566 567
f 537 509 531
f 537 531 536
f 533 536 531
f 578 579 568
f 560 561 558
f 563 561 562
f 605 606 24 594
f 519 508 518
f 959 602 597
f 599 603 597
f 599 595 596
f 599 953 595
f 602 959 954
f 617 1023 620
f 616 617 620
f 617 621 1022
f 619 614 620
f 625 1022 621
f 603 599 596
f 603 604 597
f 604 594 597
f 597 958 959
f 958 597 594
f 614 616 620
f 954 955 610
f 954 610 614
f 614 619 954
f 954 619 602
f 627 621 622
f 623 962 655
f 646 656 647
f 963 646 655
f 969 973 660
f 658 973 974
f 661 973 662
f 647 657 658
f 658 662 973
f 647 658 974
f 974 645 647
f 660 973 661
f 623 625 627 962
f 646 963 656
f 656 963 960
f 662 663 664
f 647 656 657
f 661 662 664
f 627 961 962
f 627 625 621
f 612 609 610
f 958 957 955
f 957 958 594
f 632 629 630
f 632 628 629
f 631 961 632
f 628 632 961
f 653 961 631
f 653 960 961
f 955 957 612
f 612 610 955
f 24 607 956
f 607 24 606
f 607 590 956
f 635 611 630
f 629 635 630
f 607 608 590
f 608 609 612 590
f 636 611 635
f 604 605 594
f 652 960 653
f 963 655 962
f 651 653 631
f 638 960 652
f 640 665 666
f 637 638 641
f 641 634 637
f 637 634 636
f 641 638 652
f 642 640 666
f 638 656 960
f 636 634 650
f 667 639 666
f 636 650 611
f 639 667 613
f 665 640 673
f 633 639 613
f 666 639 642
f 613 667 668
f 670 665 673 671
f 628 961 627
f 664 674 659 661
f 544 541 1138
f 665 670 674 664
f 970 1061 1062
f 1061 970 1060
f 970 981 999 1060
f 1062 982 970
f 1057 217 1072
f 1059 1057 1058
f 1001 217 1059
f 1057 1059 217
f 1072 217 1067
f 1059 1060 999
f 1059 999 1000
f 999 981 997
f 998 999 997
f 995 1001 1000
f 1000 1001 1059
f 1000 996 995
f 994 996 1002 1003
f 1079 1066 1090
f 232 1078 221
f 1066 1067 230
f 1067 217 1070
f 1066 682 1090
f 1088 1089 1090
f 1088 692 1087
f 967 1086 1087
f 691 1088 1090
f 230 681 1066
f 230 1067 1070
f 684 680 681
f 684 681 230
f 684 994 679
f 994 1003 679
f 692 966 967
f 1085 1086 964
f 682 685 691
f 1087 692 967
f 682 691 1090
f 692 1088 691
f 684 679 680
f 681 682 1066
f 683 994 684
f 996 1000 1002
f 992 993 649
f 675 988 989
f 649 659 989
f 648 1004 987
f 988 990 991
f 987 991 648
f 987 988 991
f 648 678 1004
f 675 989 659
f 669 671 644
f 671 669 670
f 675 990 988
f 668 669 644 643
f 613 668 643
f 674 675 659
f 649 989 992
f 990 678 648
f 678 679 1003
f 1003 1004 678
f 693 695 966
f 695 696 965 966
f 700 965 696
f 691 685 690
f 676 677 678
f 685 686 690
f 689 687 688
f 678 990 676
f 689 686 687
f 692 693 966
f 689 690 686
f 693 694 695
f 990 675 676
f 700 696 697
f 699 964 965
f 748 749 745
f 704 702 703
f 743 742 138
f 745 138 748
f 763 742 743
f 702 704 1085
f 764 742 763
f 745 749 750
f 964 702 1085
f 203 701 702
f 964 203 702
f 751 760 750
f 750 760 745
f 759 760 751
f 751 754 759
f 759 754 758
f 760 746 745
f 203 964 699
f 762 763 161
f 763 743 161
f 131 783 786 128
f 130 131 128 129
f 785 786 783
f 785 783 784
f 746 762 161
f 761 746 760
f 789 787 788
f 126 787 789
f 124 125 126
f 787 126 128 786
f 746 761 762
f 754 751 755
f 701 698 700
f 701 700 697
f 754 755 752
f 756 752 755
f 814 810 756
f 752 756 810
f 809 818 805
f 805 806 809
f 754 753 758
f 828 829 827
f 826 827 829
f 807 808 816
f 806 816 809
f 819 809 815
f 816 808 811
f 807 820 808
f 815 811 819
f 811 815 816
f 807 816 806
f 820 817 808
f 757 753 747
f 747 812 757
f 812 814 757
f 798 799 800
f 790 124 789
f 789 124 126
f 757 758 753
f 77 805 818
f 77 817 820
f 77 804 805
f 801 797 798
f 801 798 800
f 791 123 790
f 790 123 124
f 77 820 804
f 819 818 809
f 757 814 756
f 203 698 701
f 700 699 965
f 53 54 43
f 45 37 27
f 40 27 37
f 842 27 40
f 35 36 51
f 35 40 37
f 51 25 35
f 45 38 37
f 39 842 40
f 46 27 28
f 46 45 27
f 42 43 54
f 42 55 32
f 44 36 38
f 46 28 44
f 30 44 28
f 36 44 30
f 51 52 840
f 55 42 54
f 36 30 51
f 842 39 841
f 840 39 25
f 837 831 832
f 837 832 835
f 838 839 1101
f 33 838 1101
f 837 835 836
f 837 838 831
f 841 39 840
f 834 835 832
f 1098 1102 1101
f 1103 1098 1101
f 1101 839 1103
f 840 25 51
f 838 33 74
f 1099 75 1102
f 69 76 75
f 839 62 1103
f 839 840 52
f 74 831 838
f 41 53 43
f 1096 32 56
f 53 41 1097
f 1091 34 53
f 34 52 53
f 1092 48 1091
f 53 1094 1091
f 34 1091 48
f 1094 53 1097
f 1093 1094 1097
f 49 29 56
f 50 49 57
f 56 57 49
f 59 1092 1093
f 59 1095 50
f 50 1095 29
f 1093 1095 59
f 1097 1095 1093
f 47 48 1092
f 50 57 58
f 56 29 1096
f 56 32 55
f 50 58 59
f 62 52 31
f 31 52 34
f 60 68 62
f 1103 62 1100
f 1099 68 69
f 1099 69 75
f 62 68 1100
f 1100 68 1099
f 1102 1098 1099
f 60 62 47
f 839 52 62
f 60 47 59
f 64 61 63
f 65 66 67
f 64 65 61
f 61 65 67
f 67 68 61
f 61 68 60
f 59 47 1092
f 82 78 81
f 86 76 69
f 830 824 825
f 834 832 833
f 824 822 823
f 804 821 803
f 825 829 830
f 804 820 821
f 1105 824 830
f 1104 830 831
f 830 1104 1105
f 821 822 90
f 89 90 822
f 1105 88 89
f 89 822 824
f 94 99 90
f 72 1107 831
f 89 824 1105
f 1107 1104 831
f 98 821 90
f 802 795 797
f 797 801 802
f 92 802 803
f 821 98 803
f 802 92 795
f 792 793 796
f 796 793 797
f 794 791 792
f 796 797 795
f 796 794 792
f 803 98 93
f 803 93 92
f 117 119 118
f 795 92 119
f 791 120 122
f 117 120 794
f 122 120 121
f 117 794 119
f 794 120 791
f 99 98 90
f 123 791 122
f 829 825 826
f 73 1106 72
f 1106 73 86
f 76 86 73
f 72 831 74
f 103 105 95
f 103 101 105
f 109 87 101
f 103 109 101
f 1105 1106 86
f 101 102 105
f 1105 86 88
f 79 70 80
f 86 69 70
f 78 80 81
f 85 70 79
f 84 85 79
f 87 109 110
f 84 79 83
f 82 83 71
f 83 79 71
f 100 87 110
f 71 78 82
f 86 70 85
f 113 94 95
f 113 95 112
f 106 112 95
f 95 105 106
f 96 94 113
f 118 26 115
f 91 107 26
f 117 118 116
f 115 116 118
f 108 96 113
f 99 94 96
f 112 106 104
f 111 112 104
f 102 100 104
f 100 111 104
f 26 107 115
f 107 108 114
f 108 113 114
f 115 107 114
f 111 100 110
f 1106 1107 72
f 70 81 80
f 1046 1033 1042
