# Rhino

v -6 0 0
v -8 0 0
v -8 4 0
v -6 4 0
v -8 0 0
v -8 0 -4
v -8 4 -4
v -8 4 0
v -8 0 -4
v -6 0 -4
v -6 4 -4
v -8 4 -4
v -6 0 -4
v -6 0 0
v -6 4 0
v -6 4 -4
v -6 0 0
v -6 0 -4
v -8 0 -4
v -8 0 0
v -6 4 0
v -8 4 0
v -8 4 -4
v -6 4 -4
vn 0 0 1
vn 0 0 1
vn 0 0 1
vn 0 0 1
vn -1 0 0
vn -1 0 0
vn -1 0 0
vn -1 0 0
vn 0 0 -1
vn 0 0 -1
vn 0 0 -1
vn 0 0 -1
vn 1 0 0
vn 1 0 0
vn 1 0 0
vn 1 0 0
vn 0 -1 0
vn 0 -1 0
vn 0 -1 0
vn 0 -1 0
vn 0 1 0
vn 0 1 0
vn 0 1 0
vn 0 1 0
f 1//1 4//4 3//3 2//2
f 5//5 8//8 7//7 6//6
f 9//9 12//12 11//11 10//10
f 13//13 16//16 15//15 14//14
f 17//17 20//20 19//19 18//18
f 21//21 24//24 23//23 22//22
v -6 0 -4
v -8 0 -4
v -8 4 -4
v -6 4 -4
v -8 0 -4
v -8 0 -8
v -8 4 -8
v -8 4 -4
v -8 0 -8
v -6 0 -8
v -6 4 -8
v -8 4 -8
v -6 0 -8
v -6 0 -4
v -6 4 -4
v -6 4 -8
v -6 0 -4
v -6 0 -8
v -8 0 -8
v -8 0 -4
v -6 4 -4
v -8 4 -4
v -8 4 -8
v -6 4 -8
vn 0 0 1
vn 0 0 1
vn 0 0 1
vn 0 0 1
vn -1 0 0
vn -1 0 0
vn -1 0 0
vn -1 0 0
vn 0 0 -1
vn 0 0 -1
vn 0 0 -1
vn 0 0 -1
vn 1 0 0
vn 1 0 0
vn 1 0 0
vn 1 0 0
vn 0 -1 0
vn 0 -1 0
vn 0 -1 0
vn 0 -1 0
vn 0 1 0
vn 0 1 0
vn 0 1 0
vn 0 1 0
f 25//25 28//28 27//27 26//26
f 29//29 32//32 31//31 30//30
f 33//33 36//36 35//35 34//34
f 37//37 40//40 39//39 38//38
f 41//41 44//44 43//43 42//42
f 45//45 48//48 47//47 46//46
v -2 0 0
v -6 0 0
v -6 4 0
v -2 4 0
v -6 0 0
v -6 0 -2
v -6 4 -2
v -6 4 0
v -6 0 -2
v -2 0 -2
v -2 4 -2
v -6 4 -2
v -2 0 -2
v -2 0 0
v -2 4 0
v -2 4 -2
v -2 0 0
v -2 0 -2
v -6 0 -2
v -6 0 0
v -2 4 0
v -6 4 0
v -6 4 -2
v -2 4 -2
vn 0 0 1
vn 0 0 1
vn 0 0 1
vn 0 0 1
vn -1 0 0
vn -1 0 0
vn -1 0 0
vn -1 0 0
vn 0 0 -1
vn 0 0 -1
vn 0 0 -1
vn 0 0 -1
vn 1 0 0
vn 1 0 0
vn 1 0 0
vn 1 0 0
vn 0 -1 0
vn 0 -1 0
vn 0 -1 0
vn 0 -1 0
vn 0 1 0
vn 0 1 0
vn 0 1 0
vn 0 1 0
f 49//49 52//52 51//51 50//50
f 53//53 56//56 55//55 54//54
f 57//57 60//60 59//59 58//58
f 61//61 64//64 63//63 62//62
f 65//65 68//68 67//67 66//66
f 69//69 72//72 71//71 70//70
v -2 0 -2
v -6 0 -2
v -6 4 -2
v -2 4 -2
v -6 0 -2
v -6 0 -4
v -6 4 -4
v -6 4 -2
v -6 0 -4
v -2 0 -4
v -2 4 -4
v -6 4 -4
v -2 0 -4
v -2 0 -2
v -2 4 -2
v -2 4 -4
v -2 0 -2
v -2 0 -4
v -6 0 -4
v -6 0 -2
v -2 4 -2
v -6 4 -2
v -6 4 -4
v -2 4 -4
vn 0 0 1
vn 0 0 1
vn 0 0 1
vn 0 0 1
vn -1 0 0
vn -1 0 0
vn -1 0 0
vn -1 0 0
vn 0 0 -1
vn 0 0 -1
vn 0 0 -1
vn 0 0 -1
vn 1 0 0
vn 1 0 0
vn 1 0 0
vn 1 0 0
vn 0 -1 0
vn 0 -1 0
vn 0 -1 0
vn 0 -1 0
vn 0 1 0
vn 0 1 0
vn 0 1 0
vn 0 1 0
f 73//73 76//76 75//75 74//74
f 77//77 80//80 79//79 78//78
f 81//81 84//84 83//83 82//82
f 85//85 88//88 87//87 86//86
f 89//89 92//92 91//91 90//90
f 93//93 96//96 95//95 94//94
v -2 0 -4
v -6 0 -4
v -6 4 -4
v -2 4 -4
v -6 0 -4
v -6 0 -6
v -6 4 -6
v -6 4 -4
v -6 0 -6
v -2 0 -6
v -2 4 -6
v -6 4 -6
v -2 0 -6
v -2 0 -4
v -2 4 -4
v -2 4 -6
v -2 0 -4
v -2 0 -6
v -6 0 -6
v -6 0 -4
v -2 4 -4
v -6 4 -4
v -6 4 -6
v -2 4 -6
vn 0 0 1
vn 0 0 1
vn 0 0 1
vn 0 0 1
vn -1 0 0
vn -1 0 0
vn -1 0 0
vn -1 0 0
vn 0 0 -1
vn 0 0 -1
vn 0 0 -1
vn 0 0 -1
vn 1 0 0
vn 1 0 0
vn 1 0 0
vn 1 0 0
vn 0 -1 0
vn 0 -1 0
vn 0 -1 0
vn 0 -1 0
vn 0 1 0
vn 0 1 0
vn 0 1 0
vn 0 1 0
f 97//97 100//100 99//99 98//98
f 101//101 104//104 103//103 102//102
f 105//105 108//108 107//107 106//106
f 109//109 112//112 111//111 110//110
f 113//113 116//116 115//115 114//114
f 117//117 120//120 119//119 118//118
v -2 0 -6
v -6 0 -6
v -6 4 -6
v -2 4 -6
v -6 0 -6
v -6 0 -8
v -6 4 -8
v -6 4 -6
v -6 0 -8
v -2 0 -8
v -2 4 -8
v -6 4 -8
v -2 0 -8
v -2 0 -6
v -2 4 -6
v -2 4 -8
v -2 0 -6
v -2 0 -8
v -6 0 -8
v -6 0 -6
v -2 4 -6
v -6 4 -6
v -6 4 -8
v -2 4 -8
vn 0 0 1
vn 0 0 1
vn 0 0 1
vn 0 0 1
vn -1 0 0
vn -1 0 0
vn -1 0 0
vn -1 0 0
vn 0 0 -1
vn 0 0 -1
vn 0 0 -1
vn 0 0 -1
vn 1 0 0
vn 1 0 0
vn 1 0 0
vn 1 0 0
vn 0 -1 0
vn 0 -1 0
vn 0 -1 0
vn 0 -1 0
vn 0 1 0
vn 0 1 0
vn 0 1 0
vn 0 1 0
f 121//121 124//124 123//123 122//122
f 125//125 128//128 127//127 126//126
f 129//129 132//132 131//131 130//130
f 133//133 136//136 135//135 134//134
f 137//137 140//140 139//139 138//138
f 141//141 144//144 143//143 142//142
v 6 0 0
v 8 0 0
v 8 4 0
v 6 4 0
v 8 0 0
v 8 0 -4
v 8 4 -4
v 8 4 0
v 8 0 -4
v 6 0 -4
v 6 4 -4
v 8 4 -4
v 6 0 -4
v 6 0 0
v 6 4 0
v 6 4 -4
v 6 0 0
v 6 0 -4
v 8 0 -4
v 8 0 0
v 6 4 0
v 8 4 0
v 8 4 -4
v 6 4 -4
vn 0 0 1
vn 0 0 1
vn 0 0 1
vn 0 0 1
vn 1 0 0
vn 1 0 0
vn 1 0 0
vn 1 0 0
vn 0 0 -1
vn 0 0 -1
vn 0 0 -1
vn 0 0 -1
vn -1 0 0
vn -1 0 0
vn -1 0 0
vn -1 0 0
vn 0 -1 0
vn 0 -1 0
vn 0 -1 0
vn 0 -1 0
vn 0 1 0
vn 0 1 0
vn 0 1 0
vn 0 1 0
f 145//145 146//146 147//147 148//148
f 149//149 150//150 151//151 152//152
f 153//153 154//154 155//155 156//156
f 157//157 158//158 159//159 160//160
f 161//161 162//162 163//163 164//164
f 165//165 166//166 167//167 168//168
v 6 0 -4
v 8 0 -4
v 8 4 -4
v 6 4 -4
v 8 0 -4
v 8 0 -8
v 8 4 -8
v 8 4 -4
v 8 0 -8
v 6 0 -8
v 6 4 -8
v 8 4 -8
v 6 0 -8
v 6 0 -4
v 6 4 -4
v 6 4 -8
v 6 0 -4
v 6 0 -8
v 8 0 -8
v 8 0 -4
v 6 4 -4
v 8 4 -4
v 8 4 -8
v 6 4 -8
vn 0 0 1
vn 0 0 1
vn 0 0 1
vn 0 0 1
vn 1 0 0
vn 1 0 0
vn 1 0 0
vn 1 0 0
vn 0 0 -1
vn 0 0 -1
vn 0 0 -1
vn 0 0 -1
vn -1 0 0
vn -1 0 0
vn -1 0 0
vn -1 0 0
vn 0 -1 0
vn 0 -1 0
vn 0 -1 0
vn 0 -1 0
vn 0 1 0
vn 0 1 0
vn 0 1 0
vn 0 1 0
f 169//169 170//170 171//171 172//172
f 173//173 174//174 175//175 176//176
f 177//177 178//178 179//179 180//180
f 181//181 182//182 183//183 184//184
f 185//185 186//186 187//187 188//188
f 189//189 190//190 191//191 192//192
v 2 0 0
v 6 0 0
v 6 4 0
v 2 4 0
v 6 0 0
v 6 0 -2
v 6 4 -2
v 6 4 0
v 6 0 -2
v 2 0 -2
v 2 4 -2
v 6 4 -2
v 2 0 -2
v 2 0 0
v 2 4 0
v 2 4 -2
v 2 0 0
v 2 0 -2
v 6 0 -2
v 6 0 0
v 2 4 0
v 6 4 0
v 6 4 -2
v 2 4 -2
vn 0 0 1
vn 0 0 1
vn 0 0 1
vn 0 0 1
vn 1 0 0
vn 1 0 0
vn 1 0 0
vn 1 0 0
vn 0 0 -1
vn 0 0 -1
vn 0 0 -1
vn 0 0 -1
vn -1 0 0
vn -1 0 0
vn -1 0 0
vn -1 0 0
vn 0 -1 0
vn 0 -1 0
vn 0 -1 0
vn 0 -1 0
vn 0 1 0
vn 0 1 0
vn 0 1 0
vn 0 1 0
f 193//193 194//194 195//195 196//196
f 197//197 198//198 199//199 200//200
f 201//201 202//202 203//203 204//204
f 205//205 206//206 207//207 208//208
f 209//209 210//210 211//211 212//212
f 213//213 214//214 215//215 216//216
v 2 0 -2
v 6 0 -2
v 6 4 -2
v 2 4 -2
v 6 0 -2
v 6 0 -4
v 6 4 -4
v 6 4 -2
v 6 0 -4
v 2 0 -4
v 2 4 -4
v 6 4 -4
v 2 0 -4
v 2 0 -2
v 2 4 -2
v 2 4 -4
v 2 0 -2
v 2 0 -4
v 6 0 -4
v 6 0 -2
v 2 4 -2
v 6 4 -2
v 6 4 -4
v 2 4 -4
vn 0 0 1
vn 0 0 1
vn 0 0 1
vn 0 0 1
vn 1 0 0
vn 1 0 0
vn 1 0 0
vn 1 0 0
vn 0 0 -1
vn 0 0 -1
vn 0 0 -1
vn 0 0 -1
vn -1 0 0
vn -1 0 0
vn -1 0 0
vn -1 0 0
vn 0 -1 0
vn 0 -1 0
vn 0 -1 0
vn 0 -1 0
vn 0 1 0
vn 0 1 0
vn 0 1 0
vn 0 1 0
f 217//217 218//218 219//219 220//220
f 221//221 222//222 223//223 224//224
f 225//225 226//226 227//227 228//228
f 229//229 230//230 231//231 232//232
f 233//233 234//234 235//235 236//236
f 237//237 238//238 239//239 240//240
v 2 0 -4
v 6 0 -4
v 6 4 -4
v 2 4 -4
v 6 0 -4
v 6 0 -6
v 6 4 -6
v 6 4 -4
v 6 0 -6
v 2 0 -6
v 2 4 -6
v 6 4 -6
v 2 0 -6
v 2 0 -4
v 2 4 -4
v 2 4 -6
v 2 0 -4
v 2 0 -6
v 6 0 -6
v 6 0 -4
v 2 4 -4
v 6 4 -4
v 6 4 -6
v 2 4 -6
vn 0 0 1
vn 0 0 1
vn 0 0 1
vn 0 0 1
vn 1 0 0
vn 1 0 0
vn 1 0 0
vn 1 0 0
vn 0 0 -1
vn 0 0 -1
vn 0 0 -1
vn 0 0 -1
vn -1 0 0
vn -1 0 0
vn -1 0 0
vn -1 0 0
vn 0 -1 0
vn 0 -1 0
vn 0 -1 0
vn 0 -1 0
vn 0 1 0
vn 0 1 0
vn 0 1 0
vn 0 1 0
f 241//241 242//242 243//243 244//244
f 245//245 246//246 247//247 248//248
f 249//249 250//250 251//251 252//252
f 253//253 254//254 255//255 256//256
f 257//257 258//258 259//259 260//260
f 261//261 262//262 263//263 264//264
v 2 0 -6
v 6 0 -6
v 6 4 -6
v 2 4 -6
v 6 0 -6
v 6 0 -8
v 6 4 -8
v 6 4 -6
v 6 0 -8
v 2 0 -8
v 2 4 -8
v 6 4 -8
v 2 0 -8
v 2 0 -6
v 2 4 -6
v 2 4 -8
v 2 0 -6
v 2 0 -8
v 6 0 -8
v 6 0 -6
v 2 4 -6
v 6 4 -6
v 6 4 -8
v 2 4 -8
vn 0 0 1
vn 0 0 1
vn 0 0 1
vn 0 0 1
vn 1 0 0
vn 1 0 0
vn 1 0 0
vn 1 0 0
vn 0 0 -1
vn 0 0 -1
vn 0 0 -1
vn 0 0 -1
vn -1 0 0
vn -1 0 0
vn -1 0 0
vn -1 0 0
vn 0 -1 0
vn 0 -1 0
vn 0 -1 0
vn 0 -1 0
vn 0 1 0
vn 0 1 0
vn 0 1 0
vn 0 1 0
f 265//265 266//266 267//267 268//268
f 269//269 270//270 271//271 272//272
f 273//273 274//274 275//275 276//276
f 277//277 278//278 279//279 280//280
f 281//281 282//282 283//283 284//284
f 285//285 286//286 287//287 288//288
v -2 0 0
v 2 0 0
v 2 4 0
v -2 4 0
v 2 0 0
v 2 0 -8
v 2 4 -8
v 2 4 0
v 2 0 -8
v -2 0 -8
v -2 4 -8
v 2 4 -8
v -2 0 -8
v -2 0 0
v -2 4 0
v -2 4 -8
v -2 0 0
v -2 0 -8
v 2 0 -8
v 2 0 0
v -2 4 0
v 2 4 0
v 2 4 -8
v -2 4 -8
vn 0 0 1
vn 0 0 1
vn 0 0 1
vn 0 0 1
vn 1 0 0
vn 1 0 0
vn 1 0 0
vn 1 0 0
vn 0 0 -1
vn 0 0 -1
vn 0 0 -1
vn 0 0 -1
vn -1 0 0
vn -1 0 0
vn -1 0 0
vn -1 0 0
vn 0 -1 0
vn 0 -1 0
vn 0 -1 0
vn 0 -1 0
vn 0 1 0
vn 0 1 0
vn 0 1 0
vn 0 1 0
f 289//289 290//290 291//291 292//292
f 293//293 294//294 295//295 296//296
f 297//297 298//298 299//299 300//300
f 301//301 302//302 303//303 304//304
f 305//305 306//306 307//307 308//308
f 309//309 310//310 311//311 312//312
