# Rhino

v -6 0 -0.5
v -6 0 -1.5
v -6 2 -1.5
v -6 2 -0.5
vn -1 0 0
vn -1 0 0
vn -1 0 0
vn -1 0 0
f 1//1 4//4 3//3 2//2
v -2 0 -1.5
v -2 0 -0.5
v -2 2 -0.5
v -2 2 -1.5
vn 1 0 0
vn 1 0 0
vn 1 0 0
vn 1 0 0
f 5//5 8//8 7//7 6//6
v -6 0 -2.5
v -6 0 -3.5
v -6 2.1000000000000001 -3.5
v -6 2.1000000000000001 -2.5
vn -1 0 0
vn -1 0 0
vn -1 0 0
vn -1 0 0
f 9//9 12//12 11//11 10//10
v -3.3999999999999999 0 -4
v -4.5999999999999996 0 -4
v -4.5999999999999996 2.5 -4
v -3.3999999999999999 2.5 -4
vn 0 0 1
vn 0 0 1
vn 0 0 1
vn 0 0 1
f 13//13 16//16 15//15 14//14
v -6 0 -4.5
v -6 0 -5.5
v -6 2.1000000000000001 -5.5
v -6 2.1000000000000001 -4.5
vn -1 0 0
vn -1 0 0
vn -1 0 0
vn -1 0 0
f 17//17 20//20 19//19 18//18
v -6 0 -6.5
v -6 0 -7.5
v -6 2 -7.5
v -6 2 -6.5
vn -1 0 0
vn -1 0 0
vn -1 0 0
vn -1 0 0
f 21//21 24//24 23//23 22//22
v -2 0 -7.5
v -2 0 -6.5
v -2 2 -6.5
v -2 2 -7.5
vn 1 0 0
vn 1 0 0
vn 1 0 0
vn 1 0 0
f 25//25 28//28 27//27 26//26
v 6 0 -0.5
v 6 0 -1.5
v 6 2 -1.5
v 6 2 -0.5
vn 1 0 0
vn 1 0 0
vn 1 0 0
vn 1 0 0
f 29//29 30//30 31//31 32//32
v 2 0 -1.5
v 2 0 -0.5
v 2 2 -0.5
v 2 2 -1.5
vn -1 0 0
vn -1 0 0
vn -1 0 0
vn -1 0 0
f 33//33 34//34 35//35 36//36
v 6 0 -2.5
v 6 0 -3.5
v 6 2.1000000000000001 -3.5
v 6 2.1000000000000001 -2.5
vn 1 0 0
vn 1 0 0
vn 1 0 0
vn 1 0 0
f 37//37 38//38 39//39 40//40
v 3.3999999999999999 0 -4
v 4.5999999999999996 0 -4
v 4.5999999999999996 2.5 -4
v 3.3999999999999999 2.5 -4
vn 0 0 1
vn 0 0 1
vn 0 0 1
vn 0 0 1
f 41//41 42//42 43//43 44//44
v 6 0 -4.5
v 6 0 -5.5
v 6 2.1000000000000001 -5.5
v 6 2.1000000000000001 -4.5
vn 1 0 0
vn 1 0 0
vn 1 0 0
vn 1 0 0
f 45//45 46//46 47//47 48//48
v 6 0 -6.5
v 6 0 -7.5
v 6 2 -7.5
v 6 2 -6.5
vn 1 0 0
vn 1 0 0
vn 1 0 0
vn 1 0 0
f 49//49 50//50 51//51 52//52
v 2 0 -7.5
v 2 0 -6.5
v 2 2 -6.5
v 2 2 -7.5
vn -1 0 0
vn -1 0 0
vn -1 0 0
vn -1 0 0
f 53//53 54//54 55//55 56//56
